{
DisplayStrings = (
"/ga-deva/halant-deva/ra-deva/halant-deva/zerowidthjoiner  /g_ra-deva \012/na-deva/halant-deva/ra-deva/halant-deva/zerowidthjoiner  \012/bha-deva/halant-deva/ra-deva/halant-deva/zerowidthjoiner  \012/ma-deva/halant-deva/ra-deva/halant-deva/zerowidthjoiner  /m_ra-deva \012/ya-deva/halant-deva/ra-deva/halant-deva/zerowidthjoiner  /y_ra-deva \012/va-deva/halant-deva/ra-deva/halant-deva/zerowidthjoiner  \012/gha-deva/halant-deva/ra-deva/halant-deva/zerowidthjoiner  \012/dha-deva/halant-deva/ra-deva/halant-deva/zerowidthjoiner  \012/ta-deva/halant-deva/ra-deva/halant-deva  /zerowidthjoiner \012/ja-deva/halant-deva/ra-deva/halant-deva/zerowidthjoiner  ",
"/ga-deva/halant-deva/ra-deva/halant-deva/zerowidthjoiner  \012/na-deva/halant-deva/ra-deva/halant-deva/zerowidthjoiner  \012/bha-deva/halant-deva/ra-deva/halant-deva/zerowidthjoiner  \012/ma-deva/halant-deva/ra-deva/halant-deva/zerowidthjoiner  \012/ya-deva/halant-deva/ra-deva/halant-deva/zerowidthjoiner  \012/va-deva/halant-deva/ra-deva/halant-deva/zerowidthjoiner  \012/gha-deva/halant-deva/ra-deva/halant-deva/zerowidthjoiner  \012/dha-deva/halant-deva/ra-deva/halant-deva/zerowidthjoiner  \012/ta-deva/halant-deva/ra-deva/halant-deva  /zerowidthjoiner \012/ja-deva/halant-deva/ra-deva/halant-deva/zerowidthjoiner  "
);
classes = (
{
automatic = 1;

glyphs = (
{
glyphname = A;
lastChange = "2014-11-05 19:13:03 +0000";
layers = (
{
anchors = (
{
name = ogonek;
position = "{626, 10}";
},
{
name = top;
position = "{353, 688}";
}
);
background = {
paths = (
{
closed = 1;
nodes = (
"305 688 LINE",
"77 86 LINE",
"8 55 LINE",
"8 0 LINE",
"221 0 LINE",
"221 55 LINE",
"150 81 LINE",
"369 671 LINE",
"337 671 LINE",
"554 82 LINE",
"484 55 LINE",
"484 0 LINE",
"714 0 LINE",
"714 55 LINE",
"645 87 LINE",
"417 688 LINE"
);
},
{
closed = 1;
nodes = (
"191 300 LINE",
"169 229 LINE",
"534 229 LINE",
"510 300 LINE"
);
}
);
};
guideLines = (
{
angle = 90;
position = "{353, 613}";
}
);
layerId = "0225C979-6A3F-4323-834E-E3153ADD1AE8";
name = Regular;
paths = (
{
closed = 1;
nodes = (
"305 688 LINE",
"77 86 LINE",
"8 55 LINE",
"8 0 LINE",
"221 0 LINE",
"221 55 LINE",
"150 81 LINE",
"369 671 LINE",
"337 671 LINE",
"554 82 LINE",
"484 55 LINE",
"484 0 LINE",
"714 0 LINE",
"714 55 LINE",
"645 87 LINE",
"417 688 LINE"
);
},
{
closed = 1;
nodes = (
"191 300 LINE",
"169 229 LINE",
"534 229 LINE",
"510 300 LINE"
);
}
);
width = 722;
}
);
unicode = 0041;
},
{
glyphname = AE;
lastChange = "2014-11-05 19:13:03 +0000";
layers = (
{
anchors = (
{
name = top;
position = "{566, 680}";
}
);
background = {
paths = (
{
closed = 0;
nodes = (
"523 85 LINE",
"449 55 LINE",
"449 0 LINE",
"1019 0 LINE",
"1019 187 LINE",
"960 187 LINE",
"934 72 LINE",
"609 72 LINE",
"609 306 LINE",
"793 306 LINE",
"808 229 LINE",
"863 229 LINE",
"863 455 LINE",
"808 455 LINE",
"793 378 LINE",
"609 378 LINE",
"609 608 LINE",
"934 608 LINE",
"960 503 LINE",
"1019 503 LINE",
"1019 680 LINE",
"467 680 LINE"
);
}
);
};
layerId = "0225C979-6A3F-4323-834E-E3153ADD1AE8";
name = Regular;
paths = (
{
closed = 1;
nodes = (
"226 297 LINE",
"226 226 LINE",
"560 226 LINE",
"560 297 LINE"
);
},
{
closed = 1;
nodes = (
"66 85 LINE",
"-15 55 LINE",
"-15 0 LINE",
"204 0 LINE",
"204 55 LINE",
"149 82 LINE",
"509 609 LINE",
"523 609 LINE",
"523 85 LINE",
"449 55 LINE",
"449 0 LINE",
"1019 0 LINE",
"1019 187 LINE",
"960 187 LINE",
"934 72 LINE",
"609 72 LINE",
"609 306 LINE",
"793 306 LINE",
"808 229 LINE",
"863 229 LINE",
"863 455 LINE",
"808 455 LINE",
"793 378 LINE",
"609 378 LINE",
"609 608 LINE",
"934 608 LINE",
"960 503 LINE",
"1019 503 LINE",
"1019 680 LINE",
"468 680 LINE"
);
}
);
width = 1071;
}
);
rightMetricsKey = E;
unicode = 00C6;
},
{
glyphname = B;
lastChange = "2014-11-05 19:13:03 +0000";
layers = (
{
background = {
paths = (
{
closed = 1;
nodes = (
"55 680 LINE",
"55 623 LINE",
"129 594 LINE",
"129 86 LINE",
"55 55 LINE",
"55 0 LINE",
"476 0 LINE SMOOTH",
"607 0 OFFCURVE",
"650 71 OFFCURVE",
"650 176 CURVE SMOOTH",
"650 290 OFFCURVE",
"600 340 OFFCURVE",
"530 346 CURVE",
"601 362 OFFCURVE",
"640 424 OFFCURVE",
"640 514 CURVE SMOOTH",
"640 617 OFFCURVE",
"589 680 OFFCURVE",
"461 680 CURVE SMOOTH"
);
},
{
closed = 1;
nodes = (
"534 306 OFFCURVE",
"560 270 OFFCURVE",
"560 191 CURVE SMOOTH",
"560 103 OFFCURVE",
"528 72 OFFCURVE",
"466 72 CURVE SMOOTH",
"215 72 LINE",
"215 306 LINE",
"452 306 LINE SMOOTH"
);
},
{
closed = 1;
nodes = (
"526 608 OFFCURVE",
"550 577 OFFCURVE",
"550 496 CURVE SMOOTH",
"550 407 OFFCURVE",
"521 378 OFFCURVE",
"440 378 CURVE SMOOTH",
"215 378 LINE",
"215 608 LINE",
"458 608 LINE SMOOTH"
);
}
);
};
layerId = "0225C979-6A3F-4323-834E-E3153ADD1AE8";
leftMetricsKey = "=H";
name = Regular;
paths = (
{
closed = 1;
nodes = (
"55 680 LINE",
"55 623 LINE",
"129 594 LINE",
"129 86 LINE",
"55 55 LINE",
"55 0 LINE",
"476 0 LINE SMOOTH",
"607 0 OFFCURVE",
"650 71 OFFCURVE",
"650 176 CURVE SMOOTH",
"650 290 OFFCURVE",
"600 340 OFFCURVE",
"530 346 CURVE",
"601 362 OFFCURVE",
"640 424 OFFCURVE",
"640 514 CURVE SMOOTH",
"640 617 OFFCURVE",
"589 680 OFFCURVE",
"461 680 CURVE SMOOTH"
);
},
{
closed = 1;
nodes = (
"534 306 OFFCURVE",
"560 270 OFFCURVE",
"560 191 CURVE SMOOTH",
"560 103 OFFCURVE",
"528 72 OFFCURVE",
"466 72 CURVE SMOOTH",
"215 72 LINE",
"215 306 LINE",
"452 306 LINE SMOOTH"
);
},
{
closed = 1;
nodes = (
"526 608 OFFCURVE",
"550 577 OFFCURVE",
"550 496 CURVE SMOOTH",
"550 407 OFFCURVE",
"521 378 OFFCURVE",
"440 378 CURVE SMOOTH",
"215 378 LINE",
"215 608 LINE",
"458 608 LINE SMOOTH"
);
}
);
width = 710;
}
);
leftMetricsKey = H;
unicode = 0042;
},
{
glyphname = C;
lastChange = "2014-11-19 18:03:21 +0000";
layers = (
{
anchors = (
{
name = bottom;
position = "{375, 0}";
},
{
name = top;
position = "{369, 680}";
}
);
background = {
paths = (
{
closed = 1;
nodes = (
"167 692 OFFCURVE",
"42 590 OFFCURVE",
"42 340 CURVE SMOOTH",
"42 96 OFFCURVE",
"161 -12 OFFCURVE",
"375 -12 CURVE SMOOTH",
"456 -12 OFFCURVE",
"540 3 OFFCURVE",
"596 28 CURVE",
"596 102 LINE",
"525 72 OFFCURVE",
"440 62 OFFCURVE",
"375 62 CURVE SMOOTH",
"208 62 OFFCURVE",
"132 133 OFFCURVE",
"132 343 CURVE SMOOTH",
"132 547 OFFCURVE",
"204 618 OFFCURVE",
"381 618 CURVE SMOOTH",
"429 618 OFFCURVE",
"482 613 OFFCURVE",
"533 600 CURVE",
"504 642 LINE",
"526 491 LINE",
"596 491 LINE",
"596 668 LINE",
"525 684 OFFCURVE",
"451 692 OFFCURVE",
"389 692 CURVE SMOOTH"
);
}
);
};
layerId = "0225C979-6A3F-4323-834E-E3153ADD1AE8";
name = Regular;
paths = (
{
closed = 1;
nodes = (
"167 692 OFFCURVE",
"42 590 OFFCURVE",
"42 340 CURVE SMOOTH",
"42 96 OFFCURVE",
"161 -12 OFFCURVE",
"375 -12 CURVE SMOOTH",
"456 -12 OFFCURVE",
"540 3 OFFCURVE",
"596 28 CURVE",
"596 102 LINE",
"525 72 OFFCURVE",
"440 62 OFFCURVE",
"375 62 CURVE SMOOTH",
"208 62 OFFCURVE",
"132 133 OFFCURVE",
"132 343 CURVE SMOOTH",
"132 547 OFFCURVE",
"204 618 OFFCURVE",
"381 618 CURVE SMOOTH",
"429 618 OFFCURVE",
"482 613 OFFCURVE",
"533 600 CURVE",
"504 642 LINE",
"526 491 LINE",
"596 491 LINE",
"596 668 LINE",
"525 684 OFFCURVE",
"451 692 OFFCURVE",
"389 692 CURVE SMOOTH"
);
}
);
width = 661;
}
);
leftMetricsKey = O;
rightMetricsKey = 65tt;
unicode = 0043;
},
{
glyphname = D;
lastChange = "2014-11-05 19:13:03 +0000";
layers = (
{
anchors = (
{
name = center;
position = "{381, 340}";
},
{
name = top;
position = "{400, 680}";
}
);
background = {
paths = (
{
closed = 1;
nodes = (
"55 680 LINE",
"55 623 LINE",
"145 594 LINE",
"145 86 LINE",
"55 55 LINE",
"55 0 LINE",
"414 0 LINE SMOOTH",
"566 0 OFFCURVE",
"719 70 OFFCURVE",
"719 342 CURVE SMOOTH",
"719 610 OFFCURVE",
"566 680 OFFCURVE",
"414 680 CURVE SMOOTH"
);
},
{
closed = 1;
nodes = (
"530 608 OFFCURVE",
"629 559 OFFCURVE",
"629 342 CURVE SMOOTH",
"629 120 OFFCURVE",
"530 72 OFFCURVE",
"393 72 CURVE SMOOTH",
"231 72 LINE",
"231 608 LINE",
"393 608 LINE SMOOTH"
);
}
);
};
guideLines = (
{
angle = -51;
position = "{553, 144}";
showMeasurement = 1;
}
);
layerId = "0225C979-6A3F-4323-834E-E3153ADD1AE8";
rightMetricsKey = "=O";
name = Regular;
paths = (
{
closed = 1;
nodes = (
"55 680 LINE",
"55 623 LINE",
"145 594 LINE",
"145 86 LINE",
"55 55 LINE",
"55 0 LINE",
"414 0 LINE SMOOTH",
"566 0 OFFCURVE",
"719 70 OFFCURVE",
"719 342 CURVE SMOOTH",
"719 610 OFFCURVE",
"566 680 OFFCURVE",
"414 680 CURVE SMOOTH"
);
},
{
closed = 1;
nodes = (
"530 608 OFFCURVE",
"629 559 OFFCURVE",
"629 342 CURVE SMOOTH",
"629 120 OFFCURVE",
"530 72 OFFCURVE",
"393 72 CURVE SMOOTH",
"231 72 LINE",
"231 608 LINE",
"393 608 LINE SMOOTH"
);
}
);
width = 761;
}
);
leftMetricsKey = H;
rightMetricsKey = O;
unicode = 0044;
},
{
glyphname = Eth;
lastChange = "2014-11-05 19:13:03 +0000";
layers = (
{
background = {
paths = (
{
closed = 1;
nodes = (
"55 680 LINE",
"55 623 LINE",
"145 594 LINE",
"145 86 LINE",
"55 55 LINE",
"55 0 LINE",
"414 0 LINE SMOOTH",
"566 0 OFFCURVE",
"719 70 OFFCURVE",
"719 342 CURVE SMOOTH",
"719 610 OFFCURVE",
"566 680 OFFCURVE",
"414 680 CURVE SMOOTH"
);
},
{
closed = 1;
nodes = (
"530 608 OFFCURVE",
"629 559 OFFCURVE",
"629 342 CURVE SMOOTH",
"629 120 OFFCURVE",
"530 72 OFFCURVE",
"393 72 CURVE SMOOTH",
"231 72 LINE",
"231 608 LINE",
"393 608 LINE SMOOTH"
);
}
);
};
components = (
{
name = D;
transform = "{1, 0, 0, 1, 0, 0}";
}
);
guideLines = (
{
angle = 90;
position = "{55, 0}";
}
);
layerId = "0225C979-6A3F-4323-834E-E3153ADD1AE8";
name = Regular;
paths = (
{
closed = 1;
nodes = (
"55 376 LINE",
"55 304 LINE",
"475 304 LINE",
"475 376 LINE"
);
}
);
width = 761;
}
);
unicode = 00D0;
},
{
glyphname = E;
lastChange = "2014-11-05 19:13:03 +0000";
layers = (
{
anchors = (
{
name = bottom;
position = "{385, 0}";
},
{
name = ogonek;
position = "{552, 10}";
},
{
name = top;
position = "{385, 680}";
}
);
background = {
guideLines = (
{
angle = 90;
position = "{645, 85}";
}
);
paths = (
{
closed = 1;
nodes = (
"55 680 LINE",
"55 623 LINE",
"129 594 LINE",
"129 85 LINE",
"55 55 LINE",
"55 0 LINE",
"640 0 LINE",
"640 187 LINE",
"581 187 LINE",
"555 72 LINE",
"215 72 LINE",
"215 306 LINE",
"414 306 LINE",
"429 229 LINE",
"484 229 LINE",
"484 455 LINE",
"429 455 LINE",
"414 378 LINE",
"215 378 LINE",
"215 608 LINE",
"555 608 LINE",
"581 503 LINE",
"640 503 LINE",
"640 680 LINE"
);
}
);
};
layerId = "0225C979-6A3F-4323-834E-E3153ADD1AE8";
name = Regular;
paths = (
{
closed = 1;
nodes = (
"55 680 LINE",
"55 623 LINE",
"129 594 LINE",
"129 85 LINE",
"55 55 LINE",
"55 0 LINE",
"640 0 LINE",
"640 187 LINE",
"581 187 LINE",
"555 72 LINE",
"215 72 LINE",
"215 306 LINE",
"414 306 LINE",
"429 229 LINE",
"484 229 LINE",
"484 455 LINE",
"429 455 LINE",
"414 378 LINE",
"215 378 LINE",
"215 608 LINE",
"555 608 LINE",
"581 503 LINE",
"640 503 LINE",
"640 680 LINE"
);
}
);
width = 692;
}
);
leftMetricsKey = H;
unicode = 0045;
},
{
glyphname = F;
lastChange = "2014-11-05 19:13:03 +0000";
layers = (
{
background = {
paths = (
{
closed = 1;
nodes = (
"55 680 LINE",
"55 623 LINE",
"129 594 LINE",
"129 85 LINE",
"55 55 LINE",
"55 0 LINE",
"306 0 LINE",
"306 55 LINE",
"215 85 LINE",
"215 297 LINE",
"407 297 LINE",
"422 216 LINE",
"477 216 LINE",
"477 447 LINE",
"422 447 LINE",
"407 369 LINE",
"215 369 LINE",
"215 609 LINE",
"548 609 LINE",
"575 497 LINE",
"634 497 LINE",
"634 680 LINE"
);
}
);
};
layerId = "0225C979-6A3F-4323-834E-E3153ADD1AE8";
name = Regular;
paths = (
{
closed = 1;
nodes = (
"55 680 LINE",
"55 623 LINE",
"129 594 LINE",
"129 85 LINE",
"55 55 LINE",
"55 0 LINE",
"306 0 LINE",
"306 55 LINE",
"215 85 LINE",
"215 297 LINE",
"407 297 LINE",
"422 216 LINE",
"477 216 LINE",
"477 447 LINE",
"422 447 LINE",
"407 369 LINE",
"215 369 LINE",
"215 609 LINE",
"548 609 LINE",
"575 497 LINE",
"634 497 LINE",
"634 680 LINE"
);
}
);
width = 679;
}
);
leftMetricsKey = H;
unicode = 0046;
},
{
glyphname = G;
lastChange = "2014-11-06 06:30:01 +0000";
layers = (
{
anchors = (
{
name = bottom;
position = "{387, 0}";
},
{
name = top;
position = "{353, 680}";
}
);
background = {
paths = (
{
closed = 1;
nodes = (
"166.199 692 OFFCURVE",
"42 588.771 OFFCURVE",
"42 340 CURVE SMOOTH",
"42 89 OFFCURVE",
"162 -12 OFFCURVE",
"389 -12 CURVE SMOOTH",
"460 -12 OFFCURVE",
"550 0 OFFCURVE",
"622 24 CURVE",
"622 254 LINE",
"686 283 LINE",
"686 340 LINE",
"473 340 LINE",
"473 283 LINE",
"537 254 LINE",
"537 82 LINE",
"490 68 OFFCURVE",
"440 62 OFFCURVE",
"385 62 CURVE SMOOTH",
"203 62 OFFCURVE",
"132 127 OFFCURVE",
"132 340 CURVE SMOOTH",
"132 548.673 OFFCURVE",
"202.034 618 OFFCURVE",
"388 618 CURVE SMOOTH",
"446.049 618 OFFCURVE",
"503.08 610 OFFCURVE",
"554 597 CURVE",
"530 639 LINE",
"552 488 LINE",
"622 488 LINE",
"622 665 LINE",
"549.061 681 OFFCURVE",
"472.07 692 OFFCURVE",
"389 692 CURVE SMOOTH"
);
}
);
};
guideLines = (
{
angle = 167.8;
position = "{626, 664}";
},
{
angle = 90;
position = "{1356, 608}";
},
{
angle = 90;
position = "{1532, 608}";
},
{
angle = 90;
position = "{537, 254}";
},
{
angle = 90;
position = "{622, 254}";
}
);
layerId = "0225C979-6A3F-4323-834E-E3153ADD1AE8";
name = Regular;
paths = (
{
closed = 1;
nodes = (
"166.199 692 OFFCURVE",
"42 588.771 OFFCURVE",
"42 340 CURVE SMOOTH",
"42 89 OFFCURVE",
"162 -12 OFFCURVE",
"389 -12 CURVE SMOOTH",
"460 -12 OFFCURVE",
"550 0 OFFCURVE",
"622 24 CURVE",
"622 254 LINE",
"686 283 LINE",
"686 340 LINE",
"473 340 LINE",
"473 283 LINE",
"537 254 LINE",
"537 82 LINE",
"490 68 OFFCURVE",
"440 62 OFFCURVE",
"385 62 CURVE SMOOTH",
"203 62 OFFCURVE",
"132 127 OFFCURVE",
"132 340 CURVE SMOOTH",
"132 548.673 OFFCURVE",
"202.034 618 OFFCURVE",
"388 618 CURVE SMOOTH",
"446.049 618 OFFCURVE",
"503.08 610 OFFCURVE",
"554 597 CURVE",
"530 639 LINE",
"552 488 LINE",
"622 488 LINE",
"622 665 LINE",
"549.061 681 OFFCURVE",
"472.07 692 OFFCURVE",
"389 692 CURVE SMOOTH"
);
}
);
width = 706;
}
);
leftMetricsKey = O;
unicode = 0047;
},
{
glyphname = H;
lastChange = "2014-11-05 19:13:04 +0000";
layers = (
{
background = {
guideLines = (
{
angle = 90;
position = "{543, 83}";
},
{
angle = 90;
position = "{130, 592}";
},
{
angle = 90;
position = "{694, 593}";
}
);
paths = (
{
closed = 1;
nodes = (
"533 680 LINE",
"533 623 LINE",
"607 594 LINE",
"607 378 LINE",
"215 378 LINE",
"215 594 LINE",
"289 623 LINE",
"289 680 LINE",
"55 680 LINE",
"55 623 LINE",
"129 594 LINE",
"129 86 LINE",
"55 55 LINE",
"55 0 LINE",
"289 0 LINE",
"289 55 LINE",
"215 86 LINE",
"215 306 LINE",
"607 306 LINE",
"607 86 LINE",
"533 55 LINE",
"533 0 LINE",
"767 0 LINE",
"767 55 LINE",
"693 86 LINE",
"693 594 LINE",
"767 623 LINE",
"767 680 LINE"
);
}
);
};
layerId = "0225C979-6A3F-4323-834E-E3153ADD1AE8";
rightMetricsKey = "=|H";
name = Regular;
paths = (
{
closed = 1;
nodes = (
"533 680 LINE",
"533 623 LINE",
"607 594 LINE",
"607 378 LINE",
"215 378 LINE",
"215 594 LINE",
"289 623 LINE",
"289 680 LINE",
"55 680 LINE",
"55 623 LINE",
"129 594 LINE",
"129 86 LINE",
"55 55 LINE",
"55 0 LINE",
"289 0 LINE",
"289 55 LINE",
"215 86 LINE",
"215 306 LINE",
"607 306 LINE",
"607 86 LINE",
"533 55 LINE",
"533 0 LINE",
"767 0 LINE",
"767 55 LINE",
"693 86 LINE",
"693 594 LINE",
"767 623 LINE",
"767 680 LINE"
);
}
);
width = 822;
}
);
rightMetricsKey = "=|H";
unicode = 0048;
},
{
glyphname = I;
lastChange = "2014-11-05 19:13:04 +0000";
layers = (
{
anchors = (
{
name = ogonek;
position = "{147, 10}";
},
{
name = top;
position = "{172, 680}";
}
);
background = {
paths = (
{
closed = 1;
nodes = (
"55 680 LINE",
"55 623 LINE",
"129 594 LINE",
"129 85 LINE",
"55 55 LINE",
"55 0 LINE",
"289 0 LINE",
"289 55 LINE",
"215 85 LINE",
"215 594 LINE",
"289 623 LINE",
"289 680 LINE"
);
}
);
};
guideLines = (
{
angle = 90;
position = "{215, 85}";
},
{
angle = 90;
position = "{129, 85}";
}
);
layerId = "0225C979-6A3F-4323-834E-E3153ADD1AE8";
name = Regular;
paths = (
{
closed = 1;
nodes = (
"55 680 LINE",
"55 623 LINE",
"129 594 LINE",
"129 85 LINE",
"55 55 LINE",
"55 0 LINE",
"289 0 LINE",
"289 55 LINE",
"215 85 LINE",
"215 594 LINE",
"289 623 LINE",
"289 680 LINE"
);
}
);
width = 344;
}
);
leftMetricsKey = H;
rightMetricsKey = H;
unicode = 0049;
},
{
glyphname = J;
lastChange = "2014-11-05 19:13:04 +0000";
layers = (
{
background = {
paths = (
{
closed = 1;
nodes = (
"146 680 LINE",
"146 623 LINE",
"230 594 LINE",
"230 224 LINE SMOOTH",
"230 103 OFFCURVE",
"190 60 OFFCURVE",
"96 60 CURVE SMOOTH",
"68 60 OFFCURVE",
"43 62 OFFCURVE",
"20 66 CURVE",
"20 -4 LINE",
"48 -10 OFFCURVE",
"73 -12 OFFCURVE",
"106 -12 CURVE SMOOTH",
"241 -12 OFFCURVE",
"316 58 OFFCURVE",
"316 231 CURVE SMOOTH",
"316 594 LINE",
"390 623 LINE",
"390 680 LINE"
);
}
);
};
guideLines = (
{
angle = 90;
position = "{20, 225}";
}
);
layerId = "0225C979-6A3F-4323-834E-E3153ADD1AE8";
name = Regular;
paths = (
{
closed = 1;
nodes = (
"146 680 LINE",
"146 623 LINE",
"230 594 LINE",
"230 224 LINE SMOOTH",
"230 103 OFFCURVE",
"190 60 OFFCURVE",
"96 60 CURVE SMOOTH",
"68 60 OFFCURVE",
"43 62 OFFCURVE",
"20 66 CURVE",
"20 -4 LINE",
"48 -10 OFFCURVE",
"73 -12 OFFCURVE",
"106 -12 CURVE SMOOTH",
"241 -12 OFFCURVE",
"316 58 OFFCURVE",
"316 231 CURVE SMOOTH",
"316 594 LINE",
"390 623 LINE",
"390 680 LINE"
);
}
);
width = 440;
}
);
unicode = 004A;
},
{
glyphname = K;
lastChange = "2014-11-05 19:13:04 +0000";
layers = (
{
anchors = (
{
name = bottom;
position = "{405, 0}";
},
{
name = top;
position = "{398, 680}";
}
);
background = {
paths = (
{
closed = 1;
nodes = (
"506 680 LINE",
"506 623 LINE",
"565 598 LINE",
"191 304 LINE",
"191 216 LINE",
"685 603 LINE",
"641 578 LINE",
"742 623 LINE",
"742 680 LINE"
);
},
{
closed = 1;
nodes = (
"55 680 LINE",
"55 623 LINE",
"129 594 LINE",
"129 86 LINE",
"55 55 LINE",
"55 0 LINE",
"294 0 LINE",
"294 55 LINE",
"215 86 LINE",
"215 594 LINE",
"289 623 LINE",
"289 680 LINE"
);
},
{
closed = 1;
nodes = (
"688 86 LINE",
"413 411 LINE",
"348 358 LINE",
"578.304 85.4139 LINE",
"515 56 LINE",
"515 1 LINE",
"752 1 LINE",
"752 56 LINE"
);
}
);
};
layerId = "0225C979-6A3F-4323-834E-E3153ADD1AE8";
name = Regular;
paths = (
{
closed = 1;
nodes = (
"506 680 LINE",
"506 623 LINE",
"565 598 LINE",
"191 304 LINE",
"191 216 LINE",
"685 603 LINE",
"641 578 LINE",
"742 623 LINE",
"742 680 LINE"
);
},
{
closed = 1;
nodes = (
"55 680 LINE",
"55 623 LINE",
"129 594 LINE",
"129 86 LINE",
"55 55 LINE",
"55 0 LINE",
"294 0 LINE",
"294 55 LINE",
"215 86 LINE",
"215 594 LINE",
"289 623 LINE",
"289 680 LINE"
);
},
{
closed = 1;
nodes = (
"688 86 LINE",
"413 411 LINE",
"348 358 LINE",
"578.304 85.4139 LINE",
"515 56 LINE",
"515 1 LINE",
"752 1 LINE",
"752 56 LINE"
);
}
);
width = 797;
}
);
leftMetricsKey = H;
unicode = 004B;
},
{
glyphname = L;
lastChange = "2014-11-05 19:13:04 +0000";
layers = (
{
anchors = (
{
name = bottom;
position = "{379, 0}";
},
{
name = top;
position = "{172, 680}";
},
{
name = topright;
position = "{629, 680}";
}
);
background = {
paths = (
{
closed = 1;
nodes = (
"55 680 LINE",
"55 623 LINE",
"129 594 LINE",
"129 85 LINE",
"55 55 LINE",
"55 0 LINE",
"640 0 LINE",
"640 187 LINE",
"581 187 LINE",
"555 72 LINE",
"215 72 LINE",
"215 594 LINE",
"289 623 LINE",
"289 680 LINE"
);
}
);
};
guideLines = (
{
position = "{129, 594}";
},
{
position = "{55, 623}";
}
);
layerId = "0225C979-6A3F-4323-834E-E3153ADD1AE8";
name = Regular;
paths = (
{
closed = 1;
nodes = (
"55 680 LINE",
"55 623 LINE",
"129 594 LINE",
"129 85 LINE",
"55 55 LINE",
"55 0 LINE",
"629 0 LINE",
"629 187 LINE",
"570 187 LINE",
"544 72 LINE",
"215 72 LINE",
"215 594 LINE",
"289 623 LINE",
"289 680 LINE"
);
}
);
width = 649;
}
);
unicode = 004C;
},
{
color = 8;
glyphname = Lslash;
lastChange = "2014-11-06 06:47:48 +0000";
layers = (
{
anchors = (
{
name = bottom;
position = "{379, 0}";
},
{
name = top;
position = "{172, 680}";
},
{
name = topright;
position = "{629, 680}";
}
);
background = {
guideLines = (
{
position = "{137, 340}";
},
{
angle = 90;
position = "{172, 375}";
}
);
paths = (
{
closed = 1;
nodes = (
"475 429 LINE",
"475 505 LINE",
"55 329 LINE",
"55 253 LINE"
);
},
{
closed = 1;
nodes = (
"55 680 LINE",
"55 623 LINE",
"129 594 LINE",
"129 85 LINE",
"55 55 LINE",
"55 0 LINE",
"629 0 LINE",
"629 187 LINE",
"570 187 LINE",
"544 72 LINE",
"215 72 LINE",
"215 594 LINE",
"289 623 LINE",
"289 680 LINE"
);
}
);
};
guideLines = (
{
position = "{137, 340}";
},
{
angle = 90;
position = "{475, 187}";
},
{
angle = 90;
position = "{172, 375}";
},
{
angle = 90;
position = "{428, 268}";
},
{
angle = 90;
position = "{380, 187}";
}
);
layerId = "0225C979-6A3F-4323-834E-E3153ADD1AE8";
name = Regular;
paths = (
{
closed = 1;
nodes = (
"428 409.305 LINE",
"428 485.305 LINE",
"55 329 LINE",
"55 253 LINE"
);
},
{
closed = 1;
nodes = (
"55 680 LINE",
"55 623 LINE",
"129 594 LINE",
"129 85 LINE",
"55 55 LINE",
"55 0 LINE",
"629 0 LINE",
"629 187 LINE",
"570 187 LINE",
"544 72 LINE",
"215 72 LINE",
"215 594 LINE",
"289 623 LINE",
"289 680 LINE"
);
}
);
width = 649;
}
);
unicode = 0141;
},
{
glyphname = M;
lastChange = "2014-11-05 19:13:04 +0000";
layers = (
{
background = {
paths = (
{
closed = 1;
nodes = (
"676 680 LINE",
"464 181 LINE",
"478 181 LINE",
"266 680 LINE",
"55 680 LINE",
"55 623 LINE",
"129 594 LINE",
"129 85 LINE",
"55 55 LINE",
"55 0 LINE",
"270 0 LINE",
"270 55 LINE",
"201 85 LINE",
"201 630 LINE",
"194 630 LINE",
"429 85 LINE",
"496 85 LINE",
"730 630 LINE",
"723 630 LINE",
"723 85 LINE",
"654 55 LINE",
"654 0 LINE",
"883 0 LINE",
"883 55 LINE",
"809 85 LINE",
"809 594 LINE",
"883 623 LINE",
"883 680 LINE"
);
}
);
};
guideLines = (
{
angle = 90;
position = "{1592, 418}";
},
{
angle = 156.982;
position = "{686, 299}";
showMeasurement = 1;
},
{
angle = 23.0182;
position = "{471, 400}";
showMeasurement = 1;
}
);
layerId = "0225C979-6A3F-4323-834E-E3153ADD1AE8";
name = Regular;
paths = (
{
closed = 1;
nodes = (
"676 680 LINE",
"464 181 LINE",
"478 181 LINE",
"266 680 LINE",
"55 680 LINE",
"55 623 LINE",
"129 594 LINE",
"129 85 LINE",
"55 55 LINE",
"55 0 LINE",
"270 0 LINE",
"270 55 LINE",
"201 85 LINE",
"201 630 LINE",
"194 630 LINE",
"429 85 LINE",
"496 85 LINE",
"730 630 LINE",
"723 630 LINE",
"723 85 LINE",
"654 55 LINE",
"654 0 LINE",
"883 0 LINE",
"883 55 LINE",
"809 85 LINE",
"809 594 LINE",
"883 623 LINE",
"883 680 LINE"
);
}
);
width = 938;
}
);
leftMetricsKey = H;
rightMetricsKey = H;
unicode = 004D;
},
{
glyphname = N;
lastChange = "2014-11-05 19:13:04 +0000";
layers = (
{
anchors = (
{
name = bottom;
position = "{404, 0}";
},
{
name = top;
position = "{404, 680}";
}
);
background = {
guideLines = (
{
angle = 90;
position = "{546, 272}";
},
{
angle = 216.469;
position = "{546, 448}";
showMeasurement = 1;
},
{
position = "{678, 448}";
}
);
paths = (
{
closed = 1;
nodes = (
"536 680 LINE",
"536 623 LINE",
"615 594 LINE",
"615 81 LINE",
"631 84 LINE",
"231 680 LINE",
"55 680 LINE",
"55 623 LINE",
"129 594 LINE",
"129 85 LINE",
"55 55 LINE",
"55 0 LINE",
"281 0 LINE",
"281 55 LINE",
"202 85 LINE",
"202 599 LINE",
"187 595 LINE",
"587 0 LINE",
"689 0 LINE",
"689 594 LINE",
"763 623 LINE",
"763 680 LINE"
);
}
);
};
guideLines = (
{
angle = 33.8672;
position = "{448, 404}";
showMeasurement = 1;
},
{
angle = 90;
position = "{730, 594}";
},
{
angle = 90;
position = "{687, 594}";
}
);
layerId = "0225C979-6A3F-4323-834E-E3153ADD1AE8";
name = Regular;
paths = (
{
closed = 1;
nodes = (
"536 680 LINE",
"536 623 LINE",
"615 594 LINE",
"615 81 LINE",
"631 84 LINE",
"231 680 LINE",
"55 680 LINE",
"55 623 LINE",
"129 594 LINE",
"129 85 LINE",
"55 55 LINE",
"55 0 LINE",
"281 0 LINE",
"281 55 LINE",
"202 85 LINE",
"202 599 LINE",
"187 595 LINE",
"587 0 LINE",
"689 0 LINE",
"689 594 LINE",
"763 623 LINE",
"763 680 LINE"
);
}
);
width = 808;
}
);
leftMetricsKey = H;
rightMetricsKey = "=H-10";
unicode = 004E;
},
{
glyphname = O;
lastChange = "2014-11-13 17:23:18 +0000";
layers = (
{
anchors = (
{
name = top;
position = "{364, 680}";
}
);
background = {
paths = (
{
closed = 1;
nodes = (
"168 692 OFFCURVE",
"42 583 OFFCURVE",
"42 340 CURVE SMOOTH",
"42 97 OFFCURVE",
"168 -12 OFFCURVE",
"364 -12 CURVE SMOOTH",
"560 -12 OFFCURVE",
"686 97 OFFCURVE",
"686 340 CURVE SMOOTH",
"686 583 OFFCURVE",
"560 692 OFFCURVE",
"364 692 CURVE SMOOTH"
);
},
{
closed = 1;
nodes = (
"521 618 OFFCURVE",
"596 546 OFFCURVE",
"596 340 CURVE SMOOTH",
"596 134 OFFCURVE",
"521 62 OFFCURVE",
"364 62 CURVE SMOOTH",
"207 62 OFFCURVE",
"132 134 OFFCURVE",
"132 340 CURVE SMOOTH",
"132 546 OFFCURVE",
"207 618 OFFCURVE",
"364 618 CURVE SMOOTH"
);
}
);
};
guideLines = (
{
angle = 90;
position = "{364, 618}";
}
);
layerId = "0225C979-6A3F-4323-834E-E3153ADD1AE8";
rightMetricsKey = "=|O";
name = Regular;
paths = (
{
closed = 1;
nodes = (
"168 692 OFFCURVE",
"42 583 OFFCURVE",
"42 340 CURVE SMOOTH",
"42 97 OFFCURVE",
"168 -12 OFFCURVE",
"364 -12 CURVE SMOOTH",
"560 -12 OFFCURVE",
"686 97 OFFCURVE",
"686 340 CURVE SMOOTH",
"686 583 OFFCURVE",
"560 692 OFFCURVE",
"364 692 CURVE SMOOTH"
);
},
{
closed = 1;
nodes = (
"521 618 OFFCURVE",
"596 546 OFFCURVE",
"596 340 CURVE SMOOTH",
"596 134 OFFCURVE",
"521 62 OFFCURVE",
"364 62 CURVE SMOOTH",
"207 62 OFFCURVE",
"132 134 OFFCURVE",
"132 340 CURVE SMOOTH",
"132 546 OFFCURVE",
"207 618 OFFCURVE",
"364 618 CURVE SMOOTH"
);
}
);
width = 728;
}
);
rightMetricsKey = "=|O";
unicode = 004F;
},
{
glyphname = Oslash;
lastChange = "2014-11-05 19:13:04 +0000";
layers = (
{
background = {
guideLines = (
{
angle = 90;
position = "{132, 340}";
},
{
angle = 90;
position = "{42, 340}";
},
{
angle = 90;
position = "{686, 340}";
},
{
angle = 90;
position = "{596, 340}";
}
);
paths = (
{
closed = 1;
nodes = (
"584 705 LINE",
"52 -25 LINE",
"126 -51 LINE",
"676 705 LINE"
);
}
);
};
components = (
{
name = O;
transform = "{1, 0, 0, 1, 0, 0}";
}
);
guideLines = (
{
angle = 90;
position = "{132, 340}";
},
{
angle = 90;
position = "{52, 340}";
},
{
angle = 90;
position = "{676, 340}";
},
{
angle = 90;
position = "{596, 340}";
},
{
position = "{42, -25}";
},
{
position = "{28, 705}";
}
);
layerId = "0225C979-6A3F-4323-834E-E3153ADD1AE8";
name = Regular;
paths = (
{
closed = 1;
nodes = (
"584 705 LINE",
"52 -25 LINE",
"145 -25 LINE",
"676 705 LINE"
);
}
);
width = 728;
}
);
unicode = 00D8;
},
{
glyphname = OE;
lastChange = "2014-11-05 19:13:04 +0000";
layers = (
{
anchors = (
{
name = top;
position = "{615, 680}";
}
);
background = {
paths = (
{
closed = 1;
nodes = (
"167 694 OFFCURVE",
"43 579 OFFCURVE",
"42 338 CURVE SMOOTH",
"41 100 OFFCURVE",
"167 -14 OFFCURVE",
"382 -14 CURVE SMOOTH",
"438 -14 OFFCURVE",
"491 -6 OFFCURVE",
"523 0 CURVE",
"1067 0 LINE",
"1067 177 LINE",
"1008 177 LINE",
"982 72 LINE",
"657 72 LINE",
"657 302 LINE",
"841 302 LINE",
"856 225 LINE",
"911 225 LINE",
"911 451 LINE",
"856 451 LINE",
"841 374 LINE",
"657 374 LINE",
"657 608 LINE",
"982 608 LINE",
"1008 493 LINE",
"1067 493 LINE",
"1067 680 LINE",
"523 680 LINE",
"491 687 OFFCURVE",
"438 694 OFFCURVE",
"382 694 CURVE SMOOTH"
);
},
{
closed = 1;
nodes = (
"448 620 OFFCURVE",
"511 612 OFFCURVE",
"572 591 CURVE",
"572 88 LINE",
"511 67 OFFCURVE",
"448 60 OFFCURVE",
"386 60 CURVE SMOOTH",
"228 60 OFFCURVE",
"129 144 OFFCURVE",
"131 338 CURVE SMOOTH",
"133 535 OFFCURVE",
"228 620 OFFCURVE",
"386 620 CURVE SMOOTH"
);
}
);
};
layerId = "0225C979-6A3F-4323-834E-E3153ADD1AE8";
name = Regular;
paths = (
{
closed = 1;
nodes = (
"438 -14 OFFCURVE",
"491 -7 OFFCURVE",
"523 0 CURVE",
"1067 0 LINE",
"1067 187 LINE",
"1008 187 LINE",
"982 72 LINE",
"657 72 LINE",
"657 306 LINE",
"841 306 LINE",
"856 229 LINE",
"911 229 LINE",
"911 455 LINE",
"856 455 LINE",
"841 378 LINE",
"657 378 LINE",
"657 608 LINE",
"982 608 LINE",
"1008 503 LINE",
"1067 503 LINE",
"1067 680 LINE",
"523 680 LINE",
"491 686 OFFCURVE",
"438 694 OFFCURVE",
"382 694 CURVE SMOOTH",
"167 694 OFFCURVE",
"42 580 OFFCURVE",
"42 342 CURVE SMOOTH",
"42 101 OFFCURVE",
"167 -14 OFFCURVE",
"382 -14 CURVE SMOOTH"
);
},
{
closed = 1;
nodes = (
"228 60 OFFCURVE",
"133 145 OFFCURVE",
"131 342 CURVE SMOOTH",
"129 536 OFFCURVE",
"228 620 OFFCURVE",
"386 620 CURVE SMOOTH",
"448 620 OFFCURVE",
"511 613 OFFCURVE",
"572 592 CURVE",
"572 88 LINE",
"511 67 OFFCURVE",
"448 60 OFFCURVE",
"386 60 CURVE SMOOTH"
);
}
);
width = 1119;
}
);
leftMetricsKey = O;
rightMetricsKey = E;
unicode = 0152;
},
{
glyphname = P;
lastChange = "2014-11-05 19:13:04 +0000";
layers = (
{
background = {
guideLines = (
{
position = "{530, 475}";
}
);
paths = (
{
closed = 1;
nodes = (
"55 680 LINE",
"55 623 LINE",
"129 594 LINE",
"129 86 LINE",
"55 55 LINE",
"55 0 LINE",
"289 0 LINE",
"289 55 LINE",
"215 86 LINE",
"215 270 LINE",
"450 270 LINE SMOOTH",
"591 270 OFFCURVE",
"650 329 OFFCURVE",
"650 475 CURVE SMOOTH",
"650 621 OFFCURVE",
"591 680 OFFCURVE",
"450 680 CURVE SMOOTH"
);
},
{
closed = 1;
nodes = (
"530 608 OFFCURVE",
"560 579 OFFCURVE",
"560 475 CURVE SMOOTH",
"560 371 OFFCURVE",
"530 342 OFFCURVE",
"440 342 CURVE SMOOTH",
"215 342 LINE",
"215 608 LINE",
"440 608 LINE SMOOTH"
);
}
);
};
guideLines = (
{
position = "{195, 342}";
},
{
position = "{195, 270}";
}
);
layerId = "0225C979-6A3F-4323-834E-E3153ADD1AE8";
name = Regular;
paths = (
{
closed = 1;
nodes = (
"55 680 LINE",
"55 623 LINE",
"129 594 LINE",
"129 86 LINE",
"55 55 LINE",
"55 0 LINE",
"289 0 LINE",
"289 55 LINE",
"215 86 LINE",
"215 270 LINE",
"450 270 LINE SMOOTH",
"591 270 OFFCURVE",
"650 329 OFFCURVE",
"650 475 CURVE SMOOTH",
"650 621 OFFCURVE",
"591 680 OFFCURVE",
"450 680 CURVE SMOOTH"
);
},
{
closed = 1;
nodes = (
"530 608 OFFCURVE",
"560 579 OFFCURVE",
"560 475 CURVE SMOOTH",
"560 371 OFFCURVE",
"530 342 OFFCURVE",
"440 342 CURVE SMOOTH",
"215 342 LINE",
"215 608 LINE",
"440 608 LINE SMOOTH"
);
}
);
width = 680;
}
);
leftMetricsKey = H;
unicode = 0050;
},
{
glyphname = Thorn;
lastChange = "2014-11-05 19:13:04 +0000";
layers = (
{
background = {
paths = (
{
closed = 1;
nodes = (
"55 680 LINE",
"55 623 LINE",
"129 594 LINE",
"129 86 LINE",
"55 55 LINE",
"55 0 LINE",
"294 0 LINE",
"294 55 LINE",
"215 86 LINE",
"215 135 LINE",
"450 135 LINE SMOOTH",
"591 135 OFFCURVE",
"650 194 OFFCURVE",
"650 340 CURVE SMOOTH",
"650 486 OFFCURVE",
"591 545 OFFCURVE",
"450 545 CURVE SMOOTH",
"215 545 LINE",
"215 594 LINE",
"294 623 LINE",
"294 680 LINE"
);
},
{
closed = 1;
nodes = (
"530 473 OFFCURVE",
"560 444 OFFCURVE",
"560 340 CURVE SMOOTH",
"560 236 OFFCURVE",
"530 207 OFFCURVE",
"440 207 CURVE SMOOTH",
"215 207 LINE",
"215 473 LINE",
"440 473 LINE SMOOTH"
);
}
);
};
guideLines = (
{
angle = 90;
position = "{215, 473}";
}
);
layerId = "0225C979-6A3F-4323-834E-E3153ADD1AE8";
name = Regular;
paths = (
{
closed = 1;
nodes = (
"55 680 LINE",
"55 623 LINE",
"129 594 LINE",
"129 86 LINE",
"55 55 LINE",
"55 0 LINE",
"294 0 LINE",
"294 55 LINE",
"215 86 LINE",
"215 135 LINE",
"450 135 LINE SMOOTH",
"591 135 OFFCURVE",
"650 194 OFFCURVE",
"650 340 CURVE SMOOTH",
"650 486 OFFCURVE",
"591 545 OFFCURVE",
"450 545 CURVE SMOOTH",
"215 545 LINE",
"215 594 LINE",
"294 623 LINE",
"294 680 LINE"
);
},
{
closed = 1;
nodes = (
"530 473 OFFCURVE",
"560 444 OFFCURVE",
"560 340 CURVE SMOOTH",
"560 236 OFFCURVE",
"530 207 OFFCURVE",
"440 207 CURVE SMOOTH",
"215 207 LINE",
"215 473 LINE",
"440 473 LINE SMOOTH"
);
}
);
width = 662;
},
{
associatedMasterId = "0225C979-6A3F-4323-834E-E3153ADD1AE8";
background = {
paths = (
{
closed = 1;
nodes = (
"55 680 LINE",
"55 623 LINE",
"129 594 LINE",
"129 86 LINE",
"55 55 LINE",
"55 0 LINE",
"215 0 LINE",
"215 140 LINE",
"450 140 LINE SMOOTH",
"591 140 OFFCURVE",
"650 199 OFFCURVE",
"650 345 CURVE SMOOTH",
"650 491 OFFCURVE",
"591 550 OFFCURVE",
"450 550 CURVE SMOOTH",
"215 550 LINE",
"215 680 LINE"
);
},
{
closed = 1;
nodes = (
"530 478 OFFCURVE",
"560 449 OFFCURVE",
"560 345 CURVE SMOOTH",
"560 241 OFFCURVE",
"530 212 OFFCURVE",
"440 212 CURVE SMOOTH",
"215 212 LINE",
"215 478 LINE",
"440 478 LINE SMOOTH"
);
}
);
};
guideLines = (
{
angle = 90;
position = "{215, 473}";
}
);
layerId = "41FFFBE9-5F2D-48F2-A909-EDC41BF2F4CC";
name = "Regular [150]";
paths = (
{
closed = 1;
nodes = (
"55 680 LINE",
"55 623 LINE",
"129 594 LINE",
"129 86 LINE",
"55 55 LINE",
"55 0 LINE",
"215 0 LINE",
"215 140 LINE",
"450 140 LINE SMOOTH",
"591 140 OFFCURVE",
"650 199 OFFCURVE",
"650 345 CURVE SMOOTH",
"650 491 OFFCURVE",
"591 550 OFFCURVE",
"450 550 CURVE SMOOTH",
"215 550 LINE",
"215 680 LINE"
);
},
{
closed = 1;
nodes = (
"530 478 OFFCURVE",
"560 449 OFFCURVE",
"560 345 CURVE SMOOTH",
"560 241 OFFCURVE",
"530 212 OFFCURVE",
"440 212 CURVE SMOOTH",
"215 212 LINE",
"215 478 LINE",
"440 478 LINE SMOOTH"
);
}
);
width = 665;
},
{
associatedMasterId = "0225C979-6A3F-4323-834E-E3153ADD1AE8";
background = {
paths = (
{
closed = 1;
nodes = (
"30 680 LINE",
"30 567 LINE",
"112 535 LINE",
"112 146 LINE",
"30 114 LINE",
"30 0 LINE",
"386 0 LINE",
"386 104 LINE",
"314 136 LINE",
"314 168 LINE",
"544 168 LINE SMOOTH",
"666 168 OFFCURVE",
"725 208 OFFCURVE",
"725 338 CURVE SMOOTH",
"725 468 OFFCURVE",
"666 508 OFFCURVE",
"544 508 CURVE SMOOTH",
"314 508 LINE",
"314 535 LINE",
"386 567 LINE",
"386 680 LINE"
);
},
{
closed = 1;
nodes = (
"490 398 OFFCURVE",
"513 387 OFFCURVE",
"513 338 CURVE SMOOTH",
"513 289 OFFCURVE",
"490 278 OFFCURVE",
"430 278 CURVE SMOOTH",
"314 278 LINE",
"314 398 LINE",
"430 398 LINE SMOOTH"
);
}
);
};
guideLines = (
{
angle = 90;
position = "{314, 240}";
}
);
layerId = "CA43879A-E32C-40EB-9D2F-C88B349F6B89";
name = "Bold [150]";
paths = (
{
closed = 1;
nodes = (
"30 680 LINE",
"30 567 LINE",
"112 535 LINE",
"112 146 LINE",
"30 114 LINE",
"30 0 LINE",
"314 0 LINE",
"314 125 LINE",
"494 125 LINE SMOOTH",
"657 125 OFFCURVE",
"725 185 OFFCURVE",
"725 343 CURVE SMOOTH",
"725 504 OFFCURVE",
"656 565 OFFCURVE",
"494 565 CURVE SMOOTH",
"314 565 LINE",
"314 680 LINE"
);
},
{
closed = 1;
nodes = (
"490 427 OFFCURVE",
"513 412 OFFCURVE",
"513 341 CURVE SMOOTH",
"513 270 OFFCURVE",
"490 255 OFFCURVE",
"430 255 CURVE SMOOTH",
"314 255 LINE",
"314 427 LINE",
"430 427 LINE SMOOTH"
);
}
);
width = 747;
}
);
unicode = 00DE;
},
{
glyphname = Q;
lastChange = "2014-11-13 17:23:43 +0000";
layers = (
{
background = {
components = (
{
name = O;
transform = "{1, 0, 0, 1, 0, 0}";
}
);
paths = (
{
closed = 1;
nodes = (
"344 0 LINE",
"344 -141 OFFCURVE",
"396 -189 OFFCURVE",
"641 -189 CURVE",
"641 -115 LINE",
"444 -115 OFFCURVE",
"414 -95 OFFCURVE",
"414 0 CURVE"
);
}
);
};
components = (
{
name = O;
transform = "{1, 0, 0, 1, 0, 0}";
}
);
guideLines = (
{
angle = 90;
position = "{364, 618}";
}
);
layerId = "0225C979-6A3F-4323-834E-E3153ADD1AE8";
name = Regular;
paths = (
{
closed = 1;
nodes = (
"342 0 LINE",
"342 -143 OFFCURVE",
"394 -191 OFFCURVE",
"641 -191 CURVE",
"641 -115 LINE",
"446 -115 OFFCURVE",
"416 -95 OFFCURVE",
"416 0 CURVE"
);
}
);
width = 758;
}
);
leftMetricsKey = O;
rightMetricsKey = O;
unicode = 0051;
},
{
glyphname = R;
lastChange = "2014-11-13 17:34:55 +0000";
layers = (
{
anchors = (
{
name = bottom;
position = "{391, 0}";
},
{
name = top;
position = "{373, 680}";
}
);
background = {
paths = (
{
closed = 1;
nodes = (
"55 680 LINE",
"55 623 LINE",
"129 594 LINE",
"129 86 LINE",
"55 55 LINE",
"55 0 LINE",
"289 0 LINE",
"289 55 LINE",
"215 86 LINE",
"215 282 LINE",
"462 282 LINE",
"591 293 OFFCURVE",
"652 354 OFFCURVE",
"652 487 CURVE SMOOTH",
"652 621 OFFCURVE",
"593 680 OFFCURVE",
"452 680 CURVE SMOOTH"
);
},
{
closed = 1;
nodes = (
"374 303 LINE",
"576 0 LINE",
"691 0 LINE",
"691 55 LINE",
"623 85 LINE",
"475 303 LINE"
);
},
{
closed = 1;
nodes = (
"532 608 OFFCURVE",
"562 579 OFFCURVE",
"562 481 CURVE SMOOTH",
"562 375 OFFCURVE",
"522 354 OFFCURVE",
"432 354 CURVE SMOOTH",
"215 354 LINE",
"215 608 LINE",
"442 608 LINE SMOOTH"
);
}
);
};
guideLines = (
{
angle = 124.013;
position = "{576, 0}";
},
{
angle = 34.013;
position = "{502, 279}";
showMeasurement = 1;
},
{
angle = 90;
position = "{172, 142}";
},
{
position = "{289, 55}";
},
{
position = "{215, 86}";
},
{
angle = 34.013;
position = "{643, 102}";
showMeasurement = 1;
}
);
layerId = "0225C979-6A3F-4323-834E-E3153ADD1AE8";
name = Regular;
paths = (
{
closed = 1;
nodes = (
"55 680 LINE",
"55 623 LINE",
"129 594 LINE",
"129 86 LINE",
"55 55 LINE",
"55 0 LINE",
"289 0 LINE",
"289 55 LINE",
"215 86 LINE",
"215 282 LINE",
"462 282 LINE",
"591 293 OFFCURVE",
"652 354 OFFCURVE",
"652 487 CURVE SMOOTH",
"652 621 OFFCURVE",
"593 680 OFFCURVE",
"452 680 CURVE SMOOTH"
);
},
{
closed = 1;
nodes = (
"374 303 LINE",
"576 0 LINE",
"691 0 LINE",
"691 55 LINE",
"623 85 LINE",
"475 303 LINE"
);
},
{
closed = 1;
nodes = (
"532 608 OFFCURVE",
"562 579 OFFCURVE",
"562 481 CURVE SMOOTH",
"562 375 OFFCURVE",
"522 354 OFFCURVE",
"432 354 CURVE SMOOTH",
"215 354 LINE",
"215 608 LINE",
"442 608 LINE SMOOTH"
);
}
);
width = 728;
}
);
leftMetricsKey = H;
unicode = 0052;
},
{
glyphname = S;
lastChange = "2014-11-13 17:22:13 +0000";
layers = (
{
background = {
paths = (
{
closed = 1;
nodes = (
"123 688 OFFCURVE",
"47 640 OFFCURVE",
"47 498 CURVE SMOOTH",
"47 384 OFFCURVE",
"94 342 OFFCURVE",
"255 312 CURVE SMOOTH",
"461 273 OFFCURVE",
"479 274 OFFCURVE",
"479 176 CURVE SMOOTH",
"479 98 OFFCURVE",
"449 66 OFFCURVE",
"300 66 CURVE SMOOTH",
"244 66 OFFCURVE",
"186 71 OFFCURVE",
"124 85 CURVE",
"146 48 LINE",
"124 196 LINE",
"55 196 LINE",
"55 18 LINE",
"138 -1 OFFCURVE",
"217 -8 OFFCURVE",
"297 -8 CURVE SMOOTH",
"492 -8 OFFCURVE",
"567 40 OFFCURVE",
"567 190 CURVE SMOOTH",
"567 325 OFFCURVE",
"518 351 OFFCURVE",
"366 380 CURVE SMOOTH",
"163 419 OFFCURVE",
"135 419 OFFCURVE",
"135 513 CURVE SMOOTH",
"135 582 OFFCURVE",
"164 614 OFFCURVE",
"313 614 CURVE SMOOTH",
"369 614 OFFCURVE",
"427 609 OFFCURVE",
"489 595 CURVE",
"472 634 LINE",
"493 487 LINE",
"559 487 LINE",
"559 662 LINE",
"477 679 OFFCURVE",
"397 688 OFFCURVE",
"317 688 CURVE SMOOTH"
);
}
);
};
guideLines = (
{
angle = 90;
position = "{47, 498}";
},
{
angle = 90;
position = "{39, 498}";
}
);
layerId = "0225C979-6A3F-4323-834E-E3153ADD1AE8";
name = Regular;
paths = (
{
closed = 1;
nodes = (
"123 688 OFFCURVE",
"47 640 OFFCURVE",
"47 498 CURVE SMOOTH",
"47 384 OFFCURVE",
"94 342 OFFCURVE",
"255 312 CURVE SMOOTH",
"461 273 OFFCURVE",
"479 274 OFFCURVE",
"479 176 CURVE SMOOTH",
"479 98 OFFCURVE",
"449 66 OFFCURVE",
"300 66 CURVE SMOOTH",
"241 66 OFFCURVE",
"181 72 OFFCURVE",
"116 89 CURVE",
"138 52 LINE",
"116 200 LINE",
"47 200 LINE",
"47 22 LINE",
"135 -1 OFFCURVE",
"216 -8 OFFCURVE",
"297 -8 CURVE SMOOTH",
"492 -8 OFFCURVE",
"567 40 OFFCURVE",
"567 190 CURVE SMOOTH",
"567 325 OFFCURVE",
"518 351 OFFCURVE",
"366 380 CURVE SMOOTH",
"163 419 OFFCURVE",
"135 419 OFFCURVE",
"135 513 CURVE SMOOTH",
"135 582 OFFCURVE",
"164 614 OFFCURVE",
"305 614 CURVE SMOOTH",
"361 614 OFFCURVE",
"419 609 OFFCURVE",
"481 595 CURVE",
"464 634 LINE",
"485 487 LINE",
"551 487 LINE",
"551 662 LINE",
"469 679 OFFCURVE",
"389 688 OFFCURVE",
"309 688 CURVE SMOOTH"
);
}
);
width = 619;
}
);
unicode = 0053;
},
{
glyphname = Germandbls;
lastChange = "2014-11-05 19:13:04 +0000";
layers = (
{
background = {
guideLines = (
{
angle = 137.77;
position = "{581, 455}";
showMeasurement = 1;
}
);
paths = (
{
closed = 1;
nodes = (
"129 680 LINE",
"129 86 LINE",
"55 55 LINE",
"55 0 LINE",
"215 0 LINE",
"215 608 LINE",
"558 608 LINE",
"558 626 LINE",
"362 405 LINE",
"362 333 LINE",
"392 333 LINE SMOOTH",
"569 333 OFFCURVE",
"603 287 OFFCURVE",
"603 201 CURVE SMOOTH",
"603 110 OFFCURVE",
"565 65 OFFCURVE",
"449 62 CURVE SMOOTH",
"404 61 OFFCURVE",
"372 64 OFFCURVE",
"337 69 CURVE",
"337 -3 LINE",
"369 -9 OFFCURVE",
"410 -12 OFFCURVE",
"449 -12 CURVE SMOOTH",
"618 -12 OFFCURVE",
"693 71 OFFCURVE",
"693 201 CURVE SMOOTH",
"693 336 OFFCURVE",
"609 403 OFFCURVE",
"453 403 CURVE",
"453 387 LINE",
"658 618 LINE",
"658 680 LINE"
);
}
);
};
guideLines = (
{
angle = 90;
position = "{453, 416}";
}
);
layerId = "0225C979-6A3F-4323-834E-E3153ADD1AE8";
leftMetricsKey = "=H";
name = Regular;
paths = (
{
closed = 1;
nodes = (
"129 680 LINE",
"129 86 LINE",
"55 55 LINE",
"55 0 LINE",
"215 0 LINE",
"215 608 LINE",
"558 608 LINE",
"558 626 LINE",
"362 405 LINE",
"362 333 LINE",
"392 333 LINE SMOOTH",
"569 333 OFFCURVE",
"603 287 OFFCURVE",
"603 201 CURVE SMOOTH",
"603 110 OFFCURVE",
"565 65 OFFCURVE",
"449 62 CURVE SMOOTH",
"404 61 OFFCURVE",
"372 64 OFFCURVE",
"337 69 CURVE",
"337 -3 LINE",
"369 -9 OFFCURVE",
"410 -12 OFFCURVE",
"449 -12 CURVE SMOOTH",
"618 -12 OFFCURVE",
"693 71 OFFCURVE",
"693 201 CURVE SMOOTH",
"693 336 OFFCURVE",
"609 403 OFFCURVE",
"453 403 CURVE",
"453 387 LINE",
"658 618 LINE",
"658 680 LINE"
);
}
);
width = 725;
}
);
leftMetricsKey = H;
unicode = 1E9E;
},
{
glyphname = T;
lastChange = "2014-11-05 19:13:04 +0000";
layers = (
{
anchors = (
{
name = bottom;
position = "{338, 0}";
},
{
name = center;
position = "{338, 340}";
},
{
name = top;
position = "{338, 680}";
}
);
background = {
paths = (
{
closed = 1;
nodes = (
"40 680 LINE",
"40 488 LINE",
"95 488 LINE",
"124 608 LINE",
"295 608 LINE",
"295 85 LINE",
"211 55 LINE",
"211 0 LINE",
"465 0 LINE",
"465 55 LINE",
"381 85 LINE",
"381 608 LINE",
"552 608 LINE",
"581 488 LINE",
"636 488 LINE",
"636 680 LINE"
);
}
);
};
guideLines = (
{
angle = 90;
position = "{620, 594}";
},
{
angle = 90;
position = "{56, 594}";
}
);
layerId = "0225C979-6A3F-4323-834E-E3153ADD1AE8";
name = Regular;
paths = (
{
closed = 1;
nodes = (
"40 680 LINE",
"40 488 LINE",
"95 488 LINE",
"124 608 LINE",
"295 608 LINE",
"295 85 LINE",
"211 55 LINE",
"211 0 LINE",
"465 0 LINE",
"465 55 LINE",
"381 85 LINE",
"381 608 LINE",
"552 608 LINE",
"581 488 LINE",
"636 488 LINE",
"636 680 LINE"
);
}
);
width = 676;
}
);
unicode = 0054;
},
{
glyphname = U;
lastChange = "2014-11-05 19:13:04 +0000";
layers = (
{
anchors = (
{
name = ogonek;
position = "{405, 8}";
},
{
name = top;
position = "{406, 680}";
}
);
background = {
paths = (
{
closed = 1;
nodes = (
"521 680 LINE",
"521 623 LINE",
"602 594 LINE",
"602 260 LINE SMOOTH",
"602 99 OFFCURVE",
"537 59 OFFCURVE",
"411 59 CURVE SMOOTH",
"274 59 OFFCURVE",
"210 107 OFFCURVE",
"210 267 CURVE SMOOTH",
"210 594 LINE",
"284 623 LINE",
"284 680 LINE",
"50 680 LINE",
"50 623 LINE",
"124 594 LINE",
"124 260 LINE SMOOTH",
"124 57 OFFCURVE",
"231 -15 OFFCURVE",
"407 -15 CURVE SMOOTH",
"582 -15 OFFCURVE",
"674 57 OFFCURVE",
"674 267 CURVE SMOOTH",
"674 594 LINE",
"758 623 LINE",
"758 680 LINE"
);
}
);
};
layerId = "0225C979-6A3F-4323-834E-E3153ADD1AE8";
rightMetricsKey = "=|U-8";
name = Regular;
paths = (
{
closed = 1;
nodes = (
"521 680 LINE",
"521 623 LINE",
"602 594 LINE",
"602 260 LINE SMOOTH",
"602 99 OFFCURVE",
"537 59 OFFCURVE",
"411 59 CURVE SMOOTH",
"274 59 OFFCURVE",
"210 107 OFFCURVE",
"210 267 CURVE SMOOTH",
"210 594 LINE",
"284 623 LINE",
"284 680 LINE",
"50 680 LINE",
"50 623 LINE",
"124 594 LINE",
"124 260 LINE SMOOTH",
"124 57 OFFCURVE",
"231 -15 OFFCURVE",
"407 -15 CURVE SMOOTH",
"582 -15 OFFCURVE",
"674 57 OFFCURVE",
"674 267 CURVE SMOOTH",
"674 594 LINE",
"758 623 LINE",
"758 680 LINE"
);
}
);
width = 800;
}
);
leftMetricsKey = "=H-5";
rightMetricsKey = "=|U";
unicode = 0055;
},
{
glyphname = V;
lastChange = "2014-11-05 21:18:07 +0000";
layers = (
{
background = {
paths = (
{
closed = 1;
nodes = (
"431 0 LINE",
"657 594 LINE",
"726 623 LINE",
"726 680 LINE",
"507 680 LINE",
"507 623 LINE",
"581 594 LINE",
"370 30 LINE",
"400 30 LINE",
"190 594 LINE",
"264 623 LINE",
"264 680 LINE",
"29 680 LINE",
"29 623 LINE",
"98 594 LINE",
"324 0 LINE"
);
}
);
};
guideLines = (
{
angle = 158.629;
position = "{1572, 1140}";
showMeasurement = 1;
},
{
angle = 158.749;
position = "{515, 60}";
showMeasurement = 1;
},
{
angle = 21.2505;
position = "{200, 594}";
showMeasurement = 1;
},
{
angle = 201.038;
position = "{225, 50}";
showMeasurement = 1;
},
{
angle = 158.749;
position = "{571, 594}";
showMeasurement = 1;
}
);
layerId = "0225C979-6A3F-4323-834E-E3153ADD1AE8";
name = Regular;
paths = (
{
closed = 1;
nodes = (
"431 0 LINE",
"657 594 LINE",
"726 623 LINE",
"726 680 LINE",
"507 680 LINE",
"507 623 LINE",
"581 594 LINE",
"370 30 LINE",
"400 30 LINE",
"190 594 LINE",
"264 623 LINE",
"264 680 LINE",
"29 680 LINE",
"29 623 LINE",
"98 594 LINE",
"324 0 LINE"
);
}
);
width = 755;
}
);
unicode = 0056;
},
{
glyphname = W;
lastChange = "2014-11-05 19:13:04 +0000";
layers = (
{
anchors = (
{
name = top;
position = "{529, 680}";
}
);
background = {
paths = (
{
closed = 1;
nodes = (
"811 680 LINE",
"811 623 LINE",
"885 594 LINE",
"732 70 LINE",
"744 70 LINE",
"586 625 LINE",
"481 625 LINE",
"323 66 LINE",
"337 66 LINE",
"182 594 LINE",
"256 623 LINE",
"256 680 LINE",
"23 680 LINE",
"23 623 LINE",
"92 594 LINE",
"272 0 LINE",
"374 0 LINE",
"543 582 LINE",
"515 582 LINE",
"681 0 LINE",
"782 0 LINE",
"960 594 LINE",
"1029 623 LINE",
"1029 680 LINE"
);
}
);
};
guideLines = (
{
angle = 198.327;
position = "{174, 1177}";
},
{
position = "{758, 1416}";
}
);
layerId = "0225C979-6A3F-4323-834E-E3153ADD1AE8";
name = Regular;
paths = (
{
closed = 1;
nodes = (
"811 680 LINE",
"811 623 LINE",
"885 594 LINE",
"732 70 LINE",
"744 70 LINE",
"586 625 LINE",
"481 625 LINE",
"323 66 LINE",
"337 66 LINE",
"182 594 LINE",
"256 623 LINE",
"256 680 LINE",
"23 680 LINE",
"23 623 LINE",
"92 594 LINE",
"272 0 LINE",
"374 0 LINE",
"543 582 LINE",
"515 582 LINE",
"681 0 LINE",
"782 0 LINE",
"960 594 LINE",
"1029 623 LINE",
"1029 680 LINE"
);
}
);
width = 1052;
}
);
unicode = 0057;
},
{
glyphname = X;
lastChange = "2014-11-05 19:13:04 +0000";
layers = (
{
background = {
paths = (
{
closed = 1;
nodes = (
"30 680 LINE",
"30 623 LINE",
"99 594 LINE",
"546 85 LINE",
"472 55 LINE",
"472 0 LINE",
"726 0 LINE",
"726 55 LINE",
"657 85 LINE",
"210 594 LINE",
"284 623 LINE",
"284 680 LINE"
);
},
{
closed = 1;
nodes = (
"97 85 LINE",
"28 55 LINE",
"28 0 LINE",
"268 0 LINE",
"268 55 LINE",
"194 85 LINE",
"379 300 LINE",
"333 351 LINE"
);
},
{
closed = 1;
nodes = (
"486 680 LINE",
"486 625 LINE",
"560 595 LINE",
"377 380 LINE",
"421 329 LINE",
"655 595 LINE",
"724 625 LINE",
"724 680 LINE"
);
}
);
};
layerId = "0225C979-6A3F-4323-834E-E3153ADD1AE8";
name = Regular;
paths = (
{
closed = 1;
nodes = (
"34 680 LINE",
"34 623 LINE",
"103 594 LINE",
"542 85 LINE",
"468 55 LINE",
"468 0 LINE",
"722 0 LINE",
"722 55 LINE",
"653 85 LINE",
"214 594 LINE",
"288 623 LINE",
"288 680 LINE"
);
},
{
closed = 1;
nodes = (
"99 85 LINE",
"30 55 LINE",
"30 0 LINE",
"270 0 LINE",
"270 55 LINE",
"196 85 LINE",
"382 300 LINE",
"336 351 LINE"
);
},
{
closed = 1;
nodes = (
"484 680 LINE",
"484 625 LINE",
"558 595 LINE",
"374 380 LINE",
"418 329 LINE",
"653 595 LINE",
"722 625 LINE",
"722 680 LINE"
);
}
);
width = 752;
}
);
unicode = 0058;
},
{
glyphname = Y;
lastChange = "2014-11-05 19:13:04 +0000";
layers = (
{
anchors = (
{
name = top;
position = "{348, 680}";
}
);
layerId = "0225C979-6A3F-4323-834E-E3153ADD1AE8";
name = Regular;
paths = (
{
closed = 1;
nodes = (
"441 680 LINE",
"441 623 LINE",
"510 594 LINE",
"340 325 LINE",
"355 325 LINE",
"184 594 LINE",
"254 623 LINE",
"254 680 LINE",
"20 680 LINE",
"20 623 LINE",
"85 594 LINE",
"297 267 LINE",
"297 85 LINE",
"213 55 LINE",
"213 0 LINE",
"467 0 LINE",
"467 55 LINE",
"383 85 LINE",
"383 267 LINE",
"596 594 LINE",
"660 623 LINE",
"660 680 LINE"
);
}
);
width = 680;
}
);
unicode = 0059;
},
{
glyphname = Z;
lastChange = "2014-11-05 19:13:04 +0000";
layers = (
{
anchors = (
{
name = top;
position = "{340, 680}";
}
);
layerId = "0225C979-6A3F-4323-834E-E3153ADD1AE8";
name = Regular;
paths = (
{
closed = 1;
nodes = (
"65 680 LINE",
"65 503 LINE",
"124 503 LINE",
"150 608 LINE",
"557 608 LINE",
"544 638 LINE",
"60 85 LINE",
"60 0 LINE",
"624 0 LINE",
"624 187 LINE",
"565 187 LINE",
"539 72 LINE",
"118 72 LINE",
"131 43 LINE",
"614 595 LINE",
"614 680 LINE"
);
}
);
width = 674;
}
);
unicode = 005A;
},
{
glyphname = a;
lastChange = "2014-11-05 19:13:04 +0000";
layers = (
{
anchors = (
{
name = ogonek;
position = "{487, 10}";
},
{
name = top;
position = "{287, 502}";
}
);
background = {
hints = (
{
place = "{0.000000, 0.000000}";
}
);
paths = (
{
closed = 1;
nodes = (
"211 516 OFFCURVE",
"140 506 OFFCURVE",
"75 492 CURVE",
"75 420 LINE",
"143 435 OFFCURVE",
"211 444 OFFCURVE",
"285 444 CURVE SMOOTH",
"397 444 OFFCURVE",
"423 413 OFFCURVE",
"423 324 CURVE SMOOTH",
"423 285 LINE",
"397 299 OFFCURVE",
"348 314 OFFCURVE",
"279 314 CURVE SMOOTH",
"117 314 OFFCURVE",
"47 264 OFFCURVE",
"47 147 CURVE SMOOTH",
"47 35 OFFCURVE",
"110 -10 OFFCURVE",
"235 -10 CURVE SMOOTH",
"322 -10 OFFCURVE",
"387 21 OFFCURVE",
"446 90 CURVE",
"423 90 LINE",
"456 0 LINE",
"575 0 LINE",
"575 55 LINE",
"507 85 LINE",
"507 342 LINE SMOOTH",
"507 457 OFFCURVE",
"481 516 OFFCURVE",
"287 516 CURVE SMOOTH"
);
},
{
closed = 1;
nodes = (
"328 244 OFFCURVE",
"381 240 OFFCURVE",
"423 228 CURVE",
"423 128 LINE",
"375 88 OFFCURVE",
"315 62 OFFCURVE",
"249 62 CURVE SMOOTH",
"160 62 OFFCURVE",
"135 90 OFFCURVE",
"135 153 CURVE SMOOTH",
"135 212 OFFCURVE",
"167 244 OFFCURVE",
"288 244 CURVE SMOOTH"
);
}
);
};
layerId = "0225C979-6A3F-4323-834E-E3153ADD1AE8";
name = Regular;
paths = (
{
closed = 1;
nodes = (
"211 516 OFFCURVE",
"140 506 OFFCURVE",
"75 492 CURVE",
"75 420 LINE",
"143 435 OFFCURVE",
"211 444 OFFCURVE",
"285 444 CURVE SMOOTH",
"397 444 OFFCURVE",
"423 413 OFFCURVE",
"423 324 CURVE SMOOTH",
"423 285 LINE",
"397 299 OFFCURVE",
"348 314 OFFCURVE",
"279 314 CURVE SMOOTH",
"117 314 OFFCURVE",
"47 264 OFFCURVE",
"47 147 CURVE SMOOTH",
"47 35 OFFCURVE",
"110 -10 OFFCURVE",
"235 -10 CURVE SMOOTH",
"322 -10 OFFCURVE",
"387 21 OFFCURVE",
"446 90 CURVE",
"423 90 LINE",
"456 0 LINE",
"575 0 LINE",
"575 55 LINE",
"507 85 LINE",
"507 342 LINE SMOOTH",
"507 457 OFFCURVE",
"481 516 OFFCURVE",
"287 516 CURVE SMOOTH"
);
},
{
closed = 1;
nodes = (
"328 244 OFFCURVE",
"381 240 OFFCURVE",
"423 228 CURVE",
"423 128 LINE",
"375 88 OFFCURVE",
"315 62 OFFCURVE",
"249 62 CURVE SMOOTH",
"160 62 OFFCURVE",
"135 90 OFFCURVE",
"135 153 CURVE SMOOTH",
"135 212 OFFCURVE",
"167 244 OFFCURVE",
"288 244 CURVE SMOOTH"
);
}
);
width = 610;
}
);
rightMetricsKey = n;
unicode = 0061;
},
{
glyphname = ae;
lastChange = "2014-11-05 19:13:04 +0000";
layers = (
{
background = {
anchors = (
{
name = ogonek;
position = "{427, 19}";
},
{
name = bottom;
position = "{302, 0}";
},
{
name = top;
position = "{282, 502}";
}
);
paths = (
{
closed = 1;
nodes = (
"509 516 OFFCURVE",
"408 439 OFFCURVE",
"408 251 CURVE SMOOTH",
"408 48 OFFCURVE",
"507 -14 OFFCURVE",
"665 -14 CURVE SMOOTH",
"727 -14 OFFCURVE",
"798 -4 OFFCURVE",
"846 9 CURVE",
"846 81 LINE",
"777 63 OFFCURVE",
"723 58 OFFCURVE",
"667 58 CURVE SMOOTH",
"548 58 OFFCURVE",
"501 91 OFFCURVE",
"492 224 CURVE",
"864 224 LINE",
"864 264 LINE SMOOTH",
"864 439 OFFCURVE",
"768 516 OFFCURVE",
"646 516 CURVE SMOOTH"
);
},
{
closed = 1;
nodes = (
"730 444 OFFCURVE",
"772 392 OFFCURVE",
"779 295 CURVE",
"493 295 LINE",
"501 400 OFFCURVE",
"543 444 OFFCURVE",
"642 444 CURVE SMOOTH"
);
}
);
};
layerId = "0225C979-6A3F-4323-834E-E3153ADD1AE8";
name = Regular;
paths = (
{
closed = 1;
nodes = (
"727 -14 OFFCURVE",
"798 -4 OFFCURVE",
"846 9 CURVE",
"846 81 LINE",
"777 63 OFFCURVE",
"723 58 OFFCURVE",
"667 58 CURVE SMOOTH",
"548 58 OFFCURVE",
"501 91 OFFCURVE",
"492 224 CURVE",
"864 224 LINE",
"864 264 LINE SMOOTH",
"864 439 OFFCURVE",
"768 516 OFFCURVE",
"646 516 CURVE SMOOTH",
"570 516 OFFCURVE",
"506 493 OFFCURVE",
"468 440 CURVE",
"472 440 LINE",
"450 490 OFFCURVE",
"401 516 OFFCURVE",
"278 516 CURVE SMOOTH",
"205 516 OFFCURVE",
"136 506 OFFCURVE",
"74 492 CURVE",
"74 420 LINE",
"139 435 OFFCURVE",
"205 444 OFFCURVE",
"276 444 CURVE SMOOTH",
"383 444 OFFCURVE",
"408 413 OFFCURVE",
"408 324 CURVE SMOOTH",
"408 285 LINE",
"383 299 OFFCURVE",
"336 314 OFFCURVE",
"270 314 CURVE SMOOTH",
"114 314 OFFCURVE",
"47 264 OFFCURVE",
"47 147 CURVE SMOOTH",
"47 35 OFFCURVE",
"108 -10 OFFCURVE",
"228 -10 CURVE SMOOTH",
"321 -10 OFFCURVE",
"392 21 OFFCURVE",
"456 91 CURVE",
"445 91 LINE",
"483 13 OFFCURVE",
"560 -14 OFFCURVE",
"665 -14 CURVE SMOOTH"
);
},
{
closed = 1;
nodes = (
"156 62 OFFCURVE",
"135 90 OFFCURVE",
"135 153 CURVE SMOOTH",
"135 212 OFFCURVE",
"162 244 OFFCURVE",
"279 244 CURVE SMOOTH",
"317 244 OFFCURVE",
"368 240 OFFCURVE",
"408 228 CURVE",
"408 128 LINE",
"362 88 OFFCURVE",
"305 62 OFFCURVE",
"241 62 CURVE SMOOTH"
);
},
{
closed = 1;
nodes = (
"500 400 OFFCURVE",
"543 444 OFFCURVE",
"642 444 CURVE SMOOTH",
"728 444 OFFCURVE",
"769 392 OFFCURVE",
"776 295 CURVE",
"492 295 LINE"
);
}
);
width = 895;
}
);
leftMetricsKey = a;
rightMetricsKey = e;
unicode = 00E6;
},
{
glyphname = b;
lastChange = "2014-11-05 19:13:04 +0000";
layers = (
{
background = {
paths = (
{
closed = 1;
nodes = (
"36 710 LINE",
"36 653 LINE",
"104 625 LINE",
"104 0 LINE",
"155 0 LINE",
"188 90 LINE",
"165 90 LINE",
"224 21 OFFCURVE",
"289 -10 OFFCURVE",
"380 -10 CURVE SMOOTH",
"510 -10 OFFCURVE",
"579 47 OFFCURVE",
"579 249 CURVE SMOOTH",
"579 446 OFFCURVE",
"497 516 OFFCURVE",
"371 516 CURVE SMOOTH",
"308 516 OFFCURVE",
"249 499 OFFCURVE",
"178 455 CURVE",
"188 451 LINE",
"188 710 LINE"
);
},
{
closed = 1;
nodes = (
"454 443 OFFCURVE",
"491 374 OFFCURVE",
"491 241 CURVE SMOOTH",
"491 101 OFFCURVE",
"450 63 OFFCURVE",
"363 63 CURVE SMOOTH",
"297 63 OFFCURVE",
"241 86 OFFCURVE",
"188 128 CURVE",
"188 402 LINE",
"252 425 OFFCURVE",
"299 443 OFFCURVE",
"351 443 CURVE SMOOTH"
);
}
);
};
layerId = "0225C979-6A3F-4323-834E-E3153ADD1AE8";
leftMetricsKey = "=h-10";
rightMetricsKey = "=o+4";
name = Regular;
paths = (
{
closed = 1;
nodes = (
"36 710 LINE",
"36 653 LINE",
"104 625 LINE",
"104 0 LINE",
"155 0 LINE",
"188 90 LINE",
"165 90 LINE",
"224 21 OFFCURVE",
"289 -10 OFFCURVE",
"380 -10 CURVE SMOOTH",
"510 -10 OFFCURVE",
"579 47 OFFCURVE",
"579 249 CURVE SMOOTH",
"579 446 OFFCURVE",
"497 516 OFFCURVE",
"371 516 CURVE SMOOTH",
"308 516 OFFCURVE",
"249 499 OFFCURVE",
"178 455 CURVE",
"188 451 LINE",
"188 710 LINE"
);
},
{
closed = 1;
nodes = (
"454 443 OFFCURVE",
"491 374 OFFCURVE",
"491 241 CURVE SMOOTH",
"491 101 OFFCURVE",
"450 63 OFFCURVE",
"363 63 CURVE SMOOTH",
"297 63 OFFCURVE",
"241 86 OFFCURVE",
"188 128 CURVE",
"188 402 LINE",
"252 425 OFFCURVE",
"299 443 OFFCURVE",
"351 443 CURVE SMOOTH"
);
}
);
width = 624;
}
);
leftMetricsKey = "=H-10";
rightMetricsKey = "=o+4";
unicode = 0062;
},
{
glyphname = c;
lastChange = "2014-11-05 19:13:04 +0000";
layers = (
{
anchors = (
{
name = bottom;
position = "{286, 0}";
},
{
name = top;
position = "{288, 502}";
}
);
background = {
paths = (
{
closed = 1;
nodes = (
"134 516 OFFCURVE",
"41 442 OFFCURVE",
"41 250 CURVE SMOOTH",
"41 46 OFFCURVE",
"143 -14 OFFCURVE",
"296 -14 CURVE SMOOTH",
"350 -14 OFFCURVE",
"409 -5 OFFCURVE",
"451 11 CURVE",
"451 83 LINE",
"399 64 OFFCURVE",
"355 58 OFFCURVE",
"300 58 CURVE SMOOTH",
"181 58 OFFCURVE",
"129 92 OFFCURVE",
"129 253 CURVE SMOOTH",
"129 400 OFFCURVE",
"163 447 OFFCURVE",
"319 447 CURVE",
"363 347 LINE",
"432 347 OFFCURVE",
"459 378 OFFCURVE",
"459 428 CURVE SMOOTH",
"459 487 OFFCURVE",
"422 516 OFFCURVE",
"308 516 CURVE SMOOTH"
);
}
);
};
layerId = "0225C979-6A3F-4323-834E-E3153ADD1AE8";
name = Regular;
paths = (
{
closed = 1;
nodes = (
"134 516 OFFCURVE",
"41 442 OFFCURVE",
"41 250 CURVE SMOOTH",
"41 46 OFFCURVE",
"143 -14 OFFCURVE",
"296 -14 CURVE SMOOTH",
"350 -14 OFFCURVE",
"409 -5 OFFCURVE",
"451 11 CURVE",
"451 83 LINE",
"399 64 OFFCURVE",
"355 58 OFFCURVE",
"300 58 CURVE SMOOTH",
"181 58 OFFCURVE",
"129 92 OFFCURVE",
"129 253 CURVE SMOOTH",
"129 400 OFFCURVE",
"163 447 OFFCURVE",
"319 447 CURVE",
"363 347 LINE",
"432 347 OFFCURVE",
"459 378 OFFCURVE",
"459 428 CURVE SMOOTH",
"459 487 OFFCURVE",
"422 516 OFFCURVE",
"308 516 CURVE SMOOTH"
);
}
);
width = 499;
}
);
leftMetricsKey = o;
unicode = 0063;
},
{
glyphname = d;
lastChange = "2014-11-13 17:54:04 +0000";
layers = (
{
anchors = (
{
name = center;
position = "{312, 251}";
},
{
name = top;
position = "{479, 680}";
},
{
name = topright;
position = "{604, 502}";
}
);
background = {
paths = (
{
closed = 1;
nodes = (
"369 710 LINE",
"369 653 LINE",
"437 625 LINE",
"437 451 LINE",
"447 455 LINE",
"376 499 OFFCURVE",
"317 516 OFFCURVE",
"254 516 CURVE SMOOTH",
"128 516 OFFCURVE",
"46 446 OFFCURVE",
"46 249 CURVE SMOOTH",
"46 47 OFFCURVE",
"115 -10 OFFCURVE",
"245 -10 CURVE SMOOTH",
"336 -10 OFFCURVE",
"401 21 OFFCURVE",
"460 90 CURVE",
"437 90 LINE",
"470 0 LINE",
"589 0 LINE",
"589 55 LINE",
"521 85 LINE",
"521 710 LINE"
);
},
{
closed = 1;
nodes = (
"326 443 OFFCURVE",
"373 425 OFFCURVE",
"437 402 CURVE",
"437 128 LINE",
"384 86 OFFCURVE",
"328 63 OFFCURVE",
"262 63 CURVE SMOOTH",
"175 63 OFFCURVE",
"134 101 OFFCURVE",
"134 241 CURVE SMOOTH",
"134 374 OFFCURVE",
"171 443 OFFCURVE",
"274 443 CURVE SMOOTH"
);
}
);
};
guideLines = (
{
angle = 90;
position = "{254, 516}";
},
{
angle = 90;
position = "{46, 249}";
},
{
angle = 90;
position = "{90, 241}";
},
{
angle = 90;
position = "{134, 241}";
}
);
layerId = "0225C979-6A3F-4323-834E-E3153ADD1AE8";
leftMetricsKey = "=o+5";
name = Regular;
paths = (
{
closed = 1;
nodes = (
"369 710 LINE",
"369 653 LINE",
"437 625 LINE",
"437 451 LINE",
"447 455 LINE",
"376 499 OFFCURVE",
"317 516 OFFCURVE",
"254 516 CURVE SMOOTH",
"128 516 OFFCURVE",
"46 446 OFFCURVE",
"46 249 CURVE SMOOTH",
"46 47 OFFCURVE",
"115 -10 OFFCURVE",
"245 -10 CURVE SMOOTH",
"336 -10 OFFCURVE",
"401 21 OFFCURVE",
"460 90 CURVE",
"437 90 LINE",
"470 0 LINE",
"589 0 LINE",
"589 55 LINE",
"521 85 LINE",
"521 710 LINE"
);
},
{
closed = 1;
nodes = (
"326 443 OFFCURVE",
"373 425 OFFCURVE",
"437 402 CURVE",
"437 128 LINE",
"384 86 OFFCURVE",
"328 63 OFFCURVE",
"262 63 CURVE SMOOTH",
"175 63 OFFCURVE",
"134 101 OFFCURVE",
"134 241 CURVE SMOOTH",
"134 374 OFFCURVE",
"171 443 OFFCURVE",
"274 443 CURVE SMOOTH"
);
}
);
width = 624;
}
);
leftMetricsKey = "=o+4";
rightMetricsKey = n;
unicode = 0064;
},
{
glyphname = eth;
lastChange = "2014-11-05 19:13:04 +0000";
layers = (
{
background = {
paths = (
{
closed = 1;
nodes = (
"170 656 LINE",
"357 645 OFFCURVE",
"461 527 OFFCURVE",
"461 281 CURVE SMOOTH",
"461 107 OFFCURVE",
"409 58 OFFCURVE",
"294 58 CURVE SMOOTH",
"187 58 OFFCURVE",
"129 100 OFFCURVE",
"129 216 CURVE SMOOTH",
"129 334 OFFCURVE",
"188 380 OFFCURVE",
"275 380 CURVE SMOOTH",
"326 380 OFFCURVE",
"390 364 OFFCURVE",
"471 325 CURVE",
"471 387 LINE",
"401 428 OFFCURVE",
"322 452 OFFCURVE",
"252 452 CURVE SMOOTH",
"131 452 OFFCURVE",
"41 380 OFFCURVE",
"41 224 CURVE SMOOTH",
"41 48 OFFCURVE",
"156 -14 OFFCURVE",
"289 -14 CURVE SMOOTH",
"442 -14 OFFCURVE",
"549 67 OFFCURVE",
"549 285 CURVE SMOOTH",
"549 513 OFFCURVE",
"433 708 OFFCURVE",
"170 718 CURVE"
);
},
{
closed = 1;
nodes = (
"175 525 LINE",
"198 479 LINE",
"528 631 LINE",
"499 690 LINE"
);
}
);
};
guideLines = (
{
angle = 90;
position = "{549, 287}";
},
{
angle = 90;
position = "{505, 287}";
},
{
angle = 90;
position = "{212, 234}";
},
{
angle = 20.6589;
position = "{531, 618}";
},
{
angle = 90;
position = "{170, 234}";
},
{
angle = 20.6589;
position = "{508, 679}";
}
);
layerId = "0225C979-6A3F-4323-834E-E3153ADD1AE8";
rightMetricsKey = "=o";
name = Regular;
paths = (
{
closed = 1;
nodes = (
"170 656 LINE",
"357 645 OFFCURVE",
"461 527 OFFCURVE",
"461 281 CURVE SMOOTH",
"461 107 OFFCURVE",
"409 58 OFFCURVE",
"294 58 CURVE SMOOTH",
"187 58 OFFCURVE",
"129 100 OFFCURVE",
"129 216 CURVE SMOOTH",
"129 334 OFFCURVE",
"188 380 OFFCURVE",
"275 380 CURVE SMOOTH",
"326 380 OFFCURVE",
"390 364 OFFCURVE",
"471 325 CURVE",
"471 387 LINE",
"401 428 OFFCURVE",
"322 452 OFFCURVE",
"252 452 CURVE SMOOTH",
"131 452 OFFCURVE",
"41 380 OFFCURVE",
"41 224 CURVE SMOOTH",
"41 48 OFFCURVE",
"156 -14 OFFCURVE",
"289 -14 CURVE SMOOTH",
"442 -14 OFFCURVE",
"549 67 OFFCURVE",
"549 285 CURVE SMOOTH",
"549 513 OFFCURVE",
"433 708 OFFCURVE",
"170 718 CURVE"
);
},
{
closed = 1;
nodes = (
"175 525 LINE",
"198 479 LINE",
"528 631 LINE",
"499 690 LINE"
);
}
);
width = 590;
}
);
leftMetricsKey = d;
rightMetricsKey = o;
unicode = 00F0;
},
{
glyphname = dcroat;
lastChange = "2014-11-13 17:57:04 +0000";
layers = (
{
anchors = (
{
name = center;
position = "{312, 251}";
},
{
name = top;
position = "{479, 680}";
},
{
name = topright;
position = "{604, 502}";
}
);
background = {
paths = (
{
closed = 1;
nodes = (
"369 710 LINE",
"369 653 LINE",
"437 625 LINE",
"437 451 LINE",
"447 455 LINE",
"376 499 OFFCURVE",
"317 516 OFFCURVE",
"254 516 CURVE SMOOTH",
"128 516 OFFCURVE",
"46 446 OFFCURVE",
"46 249 CURVE SMOOTH",
"46 47 OFFCURVE",
"115 -10 OFFCURVE",
"245 -10 CURVE SMOOTH",
"336 -10 OFFCURVE",
"401 21 OFFCURVE",
"460 90 CURVE",
"437 90 LINE",
"470 0 LINE",
"589 0 LINE",
"589 55 LINE",
"521 85 LINE",
"521 710 LINE"
);
},
{
closed = 1;
nodes = (
"326 443 OFFCURVE",
"373 425 OFFCURVE",
"437 402 CURVE",
"437 128 LINE",
"384 86 OFFCURVE",
"328 63 OFFCURVE",
"262 63 CURVE SMOOTH",
"175 63 OFFCURVE",
"134 101 OFFCURVE",
"134 241 CURVE SMOOTH",
"134 374 OFFCURVE",
"171 443 OFFCURVE",
"274 443 CURVE SMOOTH"
);
},
{
closed = 1;
nodes = (
"254 550 LINE",
"571 550 LINE",
"571 610 LINE",
"254 610 LINE"
);
}
);
};
guideLines = (
{
angle = 90;
position = "{134, 241}";
},
{
angle = 90;
position = "{46, 249}";
},
{
angle = 90;
position = "{90, 241}";
},
{
angle = 90;
position = "{254, 516}";
},
{
position = "{369, 653}";
}
);
layerId = "0225C979-6A3F-4323-834E-E3153ADD1AE8";
name = Regular;
paths = (
{
closed = 1;
nodes = (
"254 540 LINE",
"571 540 LINE",
"571 600 LINE",
"254 600 LINE"
);
},
{
closed = 1;
nodes = (
"369 710 LINE",
"369 653 LINE",
"437 639 LINE",
"437 441 LINE",
"447 445 LINE",
"376 489 OFFCURVE",
"317 506 OFFCURVE",
"254 506 CURVE SMOOTH",
"128 506 OFFCURVE",
"46 436 OFFCURVE",
"46 249 CURVE SMOOTH",
"46 47 OFFCURVE",
"115 -10 OFFCURVE",
"245 -10 CURVE SMOOTH",
"336 -10 OFFCURVE",
"401 21 OFFCURVE",
"460 90 CURVE",
"437 90 LINE",
"470 0 LINE",
"589 0 LINE",
"589 55 LINE",
"521 85 LINE",
"521 710 LINE"
);
},
{
closed = 1;
nodes = (
"326 433 OFFCURVE",
"373 415 OFFCURVE",
"437 392 CURVE",
"437 128 LINE",
"384 86 OFFCURVE",
"328 63 OFFCURVE",
"262 63 CURVE SMOOTH",
"175 63 OFFCURVE",
"134 101 OFFCURVE",
"134 241 CURVE SMOOTH",
"134 364 OFFCURVE",
"171 433 OFFCURVE",
"274 433 CURVE SMOOTH"
);
}
);
width = 624;
}
);
unicode = 0111;
},
{
glyphname = e;
lastChange = "2014-11-05 19:13:04 +0000";
layers = (
{
anchors = (
{
name = bottom;
position = "{312, 0}";
},
{
name = ogonek;
position = "{437, 19}";
},
{
name = top;
position = "{292, 502}";
}
);
background = {
guideLines = (
{
angle = 90;
position = "{300, 450}";
}
);
paths = (
{
closed = 1;
nodes = (
"147 516 OFFCURVE",
"41 439 OFFCURVE",
"41 251 CURVE SMOOTH",
"41 48 OFFCURVE",
"145 -14 OFFCURVE",
"312 -14 CURVE SMOOTH",
"377 -14 OFFCURVE",
"452 -4 OFFCURVE",
"502 9 CURVE",
"502 81 LINE",
"429 63 OFFCURVE",
"373 58 OFFCURVE",
"314 58 CURVE SMOOTH",
"188 58 OFFCURVE",
"139 91 OFFCURVE",
"129 224 CURVE",
"521 224 LINE",
"521 264 LINE SMOOTH",
"521 439 OFFCURVE",
"420 516 OFFCURVE",
"292 516 CURVE SMOOTH"
);
},
{
closed = 1;
nodes = (
"380 444 OFFCURVE",
"424 392 OFFCURVE",
"432 295 CURVE",
"130 295 LINE",
"139 400 OFFCURVE",
"183 444 OFFCURVE",
"287 444 CURVE SMOOTH"
);
}
);
};
guideLines = (
{
angle = 90;
position = "{300, 457}";
}
);
layerId = "0225C979-6A3F-4323-834E-E3153ADD1AE8";
rightMetricsKey = "=|-10";
name = Regular;
paths = (
{
closed = 1;
nodes = (
"147 516 OFFCURVE",
"41 439 OFFCURVE",
"41 251 CURVE SMOOTH",
"41 48 OFFCURVE",
"145 -14 OFFCURVE",
"312 -14 CURVE SMOOTH",
"377 -14 OFFCURVE",
"452 -4 OFFCURVE",
"502 9 CURVE",
"502 81 LINE",
"429 63 OFFCURVE",
"373 58 OFFCURVE",
"314 58 CURVE SMOOTH",
"188 58 OFFCURVE",
"139 91 OFFCURVE",
"129 224 CURVE",
"521 224 LINE",
"521 264 LINE SMOOTH",
"521 439 OFFCURVE",
"420 516 OFFCURVE",
"292 516 CURVE SMOOTH"
);
},
{
closed = 1;
nodes = (
"380 444 OFFCURVE",
"424 392 OFFCURVE",
"432 295 CURVE",
"130 295 LINE",
"139 400 OFFCURVE",
"183 444 OFFCURVE",
"287 444 CURVE SMOOTH"
);
}
);
width = 552;
}
);
leftMetricsKey = o;
rightMetricsKey = "=|-10";
unicode = 0065;
},
{
glyphname = f;
lastChange = "2014-11-05 19:13:04 +0000";
layers = (
{
background = {
paths = (
{
closed = 1;
nodes = (
"190 718 OFFCURVE",
"114 664 OFFCURVE",
"114 550 CURVE SMOOTH",
"114 502 LINE",
"46 488 LINE",
"46 432 LINE",
"114 432 LINE",
"114 85 LINE",
"46 55 LINE",
"46 0 LINE",
"291 0 LINE",
"291 55 LINE",
"198 85 LINE",
"198 432 LINE",
"291 432 LINE",
"291 502 LINE",
"198 502 LINE",
"198 568 LINE SMOOTH",
"198 617 OFFCURVE",
"233 648 OFFCURVE",
"317 648 CURVE SMOOTH",
"331 648 LINE",
"331 718 LINE"
);
}
);
};
layerId = "0225C979-6A3F-4323-834E-E3153ADD1AE8";
name = Regular;
paths = (
{
closed = 1;
nodes = (
"177 718 OFFCURVE",
"114 664 OFFCURVE",
"114 550 CURVE SMOOTH",
"114 502 LINE",
"46 488 LINE",
"46 432 LINE",
"114 432 LINE",
"114 85 LINE",
"46 55 LINE",
"46 0 LINE",
"291 0 LINE",
"291 55 LINE",
"198 85 LINE",
"198 432 LINE",
"291 432 LINE",
"291 502 LINE",
"198 502 LINE",
"198 576 LINE SMOOTH",
"198 625 OFFCURVE",
"222 656 OFFCURVE",
"279 656 CURVE",
"306 597 LINE",
"358 597 OFFCURVE",
"377 616 OFFCURVE",
"377 651 CURVE SMOOTH",
"377 697 OFFCURVE",
"352 718 OFFCURVE",
"290 718 CURVE SMOOTH"
);
}
);
width = 342;
}
);
leftMetricsKey = n;
unicode = 0066;
},
{
glyphname = g;
lastChange = "2014-11-13 17:58:54 +0000";
layers = (
{
anchors = (
{
name = top;
position = "{289, 502}";
}
);
background = {
guideLines = (
{
angle = 90;
position = "{596, 507}";
}
);
paths = (
{
closed = 1;
nodes = (
"126 516 OFFCURVE",
"42 457 OFFCURVE",
"42 336 CURVE SMOOTH",
"42 210 OFFCURVE",
"127 156 OFFCURVE",
"261 156 CURVE SMOOTH",
"397 156 OFFCURVE",
"481 207 OFFCURVE",
"481 336 CURVE SMOOTH",
"481 452 OFFCURVE",
"396 516 OFFCURVE",
"261 516 CURVE SMOOTH"
);
},
{
closed = 1;
nodes = (
"374 451 OFFCURVE",
"397 414 OFFCURVE",
"397 336 CURVE SMOOTH",
"397 258 OFFCURVE",
"374 221 OFFCURVE",
"261 221 CURVE SMOOTH",
"148 221 OFFCURVE",
"125 257 OFFCURVE",
"125 336 CURVE SMOOTH",
"125 413 OFFCURVE",
"148 451 OFFCURVE",
"261 451 CURVE SMOOTH"
);
},
{
closed = 1;
nodes = (
"536 445 LINE",
"536 502 LINE",
"329 502 LINE",
"448 417 LINE"
);
},
{
closed = 1;
nodes = (
"56 199 OFFCURVE",
"32 165 OFFCURVE",
"32 118 CURVE SMOOTH",
"32 68 OFFCURVE",
"56 32 OFFCURVE",
"109 18 CURVE",
"109 28 LINE",
"46 16 OFFCURVE",
"17 -24 OFFCURVE",
"17 -79 CURVE SMOOTH",
"17 -138 OFFCURVE",
"38 -174 OFFCURVE",
"84 -198 CURVE SMOOTH",
"132 -223 OFFCURVE",
"207 -234 OFFCURVE",
"281 -234 CURVE SMOOTH",
"452 -234 OFFCURVE",
"536 -179 OFFCURVE",
"536 -62 CURVE SMOOTH",
"536 35 OFFCURVE",
"496 78 OFFCURVE",
"383 78 CURVE SMOOTH",
"199 78 LINE SMOOTH",
"128 78 OFFCURVE",
"105 95 OFFCURVE",
"105 132 CURVE SMOOTH",
"105 157 OFFCURVE",
"118 181 OFFCURVE",
"152 197 CURVE",
"108 217 LINE"
);
},
{
closed = 1;
nodes = (
"435 0 OFFCURVE",
"453 -18 OFFCURVE",
"453 -72 CURVE SMOOTH",
"453 -140 OFFCURVE",
"423 -167 OFFCURVE",
"299 -167 CURVE SMOOTH",
"140 -167 OFFCURVE",
"95 -136 OFFCURVE",
"95 -71 CURVE SMOOTH",
"95 -23 OFFCURVE",
"119 0 OFFCURVE",
"164 0 CURVE SMOOTH",
"376 0 LINE SMOOTH"
);
}
);
};
guideLines = (
{
angle = 90;
position = "{289, 544}";
}
);
layerId = "0225C979-6A3F-4323-834E-E3153ADD1AE8";
name = Regular;
paths = (
{
closed = 1;
nodes = (
"126 516 OFFCURVE",
"42 457 OFFCURVE",
"42 336 CURVE SMOOTH",
"42 210 OFFCURVE",
"127 156 OFFCURVE",
"261 156 CURVE SMOOTH",
"397 156 OFFCURVE",
"481 207 OFFCURVE",
"481 336 CURVE SMOOTH",
"481 452 OFFCURVE",
"396 516 OFFCURVE",
"261 516 CURVE SMOOTH"
);
},
{
closed = 1;
nodes = (
"374 451 OFFCURVE",
"397 414 OFFCURVE",
"397 336 CURVE SMOOTH",
"397 258 OFFCURVE",
"374 221 OFFCURVE",
"261 221 CURVE SMOOTH",
"148 221 OFFCURVE",
"125 257 OFFCURVE",
"125 336 CURVE SMOOTH",
"125 413 OFFCURVE",
"148 451 OFFCURVE",
"261 451 CURVE SMOOTH"
);
},
{
closed = 1;
nodes = (
"536 445 LINE",
"536 502 LINE",
"329 502 LINE",
"448 417 LINE"
);
},
{
closed = 1;
nodes = (
"56 199 OFFCURVE",
"32 165 OFFCURVE",
"32 118 CURVE SMOOTH",
"32 68 OFFCURVE",
"56 32 OFFCURVE",
"109 18 CURVE",
"109 28 LINE",
"46 16 OFFCURVE",
"17 -24 OFFCURVE",
"17 -79 CURVE SMOOTH",
"17 -138 OFFCURVE",
"38 -174 OFFCURVE",
"84 -198 CURVE SMOOTH",
"132 -223 OFFCURVE",
"207 -234 OFFCURVE",
"281 -234 CURVE SMOOTH",
"452 -234 OFFCURVE",
"536 -179 OFFCURVE",
"536 -62 CURVE SMOOTH",
"536 35 OFFCURVE",
"496 78 OFFCURVE",
"383 78 CURVE SMOOTH",
"199 78 LINE SMOOTH",
"128 78 OFFCURVE",
"105 95 OFFCURVE",
"105 132 CURVE SMOOTH",
"105 157 OFFCURVE",
"118 181 OFFCURVE",
"152 197 CURVE",
"108 217 LINE"
);
},
{
closed = 1;
nodes = (
"435 0 OFFCURVE",
"453 -18 OFFCURVE",
"453 -72 CURVE SMOOTH",
"453 -140 OFFCURVE",
"423 -167 OFFCURVE",
"299 -167 CURVE SMOOTH",
"140 -167 OFFCURVE",
"95 -136 OFFCURVE",
"95 -71 CURVE SMOOTH",
"95 -23 OFFCURVE",
"119 0 OFFCURVE",
"164 0 CURVE SMOOTH",
"376 0 LINE SMOOTH"
);
}
);
width = 556;
}
);
unicode = 0067;
},
{
color = 8;
glyphname = gcommaaccent;
lastChange = "2014-11-13 18:00:16 +0000";
layers = (
{
background = {
anchors = (
{
name = top;
position = "{261, 502}";
}
);
paths = (
{
closed = 1;
nodes = (
"126 516 OFFCURVE",
"42 457 OFFCURVE",
"42 336 CURVE SMOOTH",
"42 210 OFFCURVE",
"127 156 OFFCURVE",
"261 156 CURVE SMOOTH",
"397 156 OFFCURVE",
"481 207 OFFCURVE",
"481 336 CURVE SMOOTH",
"481 452 OFFCURVE",
"396 516 OFFCURVE",
"261 516 CURVE SMOOTH"
);
},
{
closed = 1;
nodes = (
"374 451 OFFCURVE",
"397 414 OFFCURVE",
"397 336 CURVE SMOOTH",
"397 258 OFFCURVE",
"374 221 OFFCURVE",
"261 221 CURVE SMOOTH",
"148 221 OFFCURVE",
"125 257 OFFCURVE",
"125 336 CURVE SMOOTH",
"125 413 OFFCURVE",
"148 451 OFFCURVE",
"261 451 CURVE SMOOTH"
);
},
{
closed = 1;
nodes = (
"536 445 LINE",
"536 502 LINE",
"329 502 LINE",
"448 417 LINE"
);
},
{
closed = 1;
nodes = (
"56 199 OFFCURVE",
"32 165 OFFCURVE",
"32 118 CURVE SMOOTH",
"32 68 OFFCURVE",
"56 32 OFFCURVE",
"109 18 CURVE",
"109 28 LINE",
"46 16 OFFCURVE",
"17 -24 OFFCURVE",
"17 -79 CURVE SMOOTH",
"17 -138 OFFCURVE",
"38 -174 OFFCURVE",
"84 -198 CURVE SMOOTH",
"132 -223 OFFCURVE",
"207 -234 OFFCURVE",
"281 -234 CURVE SMOOTH",
"452 -234 OFFCURVE",
"536 -179 OFFCURVE",
"536 -62 CURVE SMOOTH",
"536 35 OFFCURVE",
"496 78 OFFCURVE",
"383 78 CURVE SMOOTH",
"199 78 LINE SMOOTH",
"128 78 OFFCURVE",
"105 95 OFFCURVE",
"105 132 CURVE SMOOTH",
"105 157 OFFCURVE",
"118 181 OFFCURVE",
"152 197 CURVE",
"108 217 LINE"
);
},
{
closed = 1;
nodes = (
"435 0 OFFCURVE",
"453 -18 OFFCURVE",
"453 -72 CURVE SMOOTH",
"453 -140 OFFCURVE",
"423 -167 OFFCURVE",
"299 -167 CURVE SMOOTH",
"140 -167 OFFCURVE",
"95 -136 OFFCURVE",
"95 -71 CURVE SMOOTH",
"95 -23 OFFCURVE",
"119 0 OFFCURVE",
"164 0 CURVE SMOOTH",
"376 0 LINE SMOOTH"
);
},
{
closed = 1;
nodes = (
"335 777 LINE",
"273 777 LINE",
"243 577 LINE",
"335 577 LINE"
);
}
);
};
components = (
{
name = g;
transform = "{1, 0, 0, 1, 0, 0}";
}
);
layerId = "0225C979-6A3F-4323-834E-E3153ADD1AE8";
name = Regular;
paths = (
{
closed = 1;
nodes = (
"336 777 LINE",
"272 777 LINE",
"242 577 LINE",
"336 577 LINE"
);
}
);
width = 556;
}
);
unicode = 0123;
},
{
glyphname = h;
lastChange = "2014-11-05 19:13:04 +0000";
layers = (
{
background = {
hints = (
{
place = "{0.000000, 0.000000}";
}
);
paths = (
{
closed = 1;
nodes = (
"46 710 LINE",
"46 653 LINE",
"114 625 LINE",
"114 85 LINE",
"46 55 LINE",
"46 0 LINE",
"266 0 LINE",
"266 55 LINE",
"198 85 LINE",
"198 402 LINE",
"268 427 OFFCURVE",
"313 443 OFFCURVE",
"364 443 CURVE SMOOTH",
"435 443 OFFCURVE",
"476 412 OFFCURVE",
"476 331 CURVE SMOOTH",
"476 0 LINE",
"628 0 LINE",
"628 55 LINE",
"560 85 LINE",
"560 320 LINE SMOOTH",
"560 462 OFFCURVE",
"517 516 OFFCURVE",
"391 516 CURVE SMOOTH",
"319 516 OFFCURVE",
"252 498 OFFCURVE",
"171 452 CURVE",
"198 452 LINE",
"198 710 LINE"
);
}
);
};
layerId = "0225C979-6A3F-4323-834E-E3153ADD1AE8";
name = Regular;
paths = (
{
closed = 1;
nodes = (
"46 710 LINE",
"46 653 LINE",
"114 625 LINE",
"114 85 LINE",
"46 55 LINE",
"46 0 LINE",
"266 0 LINE",
"266 55 LINE",
"198 85 LINE",
"198 402 LINE",
"268 427 OFFCURVE",
"313 443 OFFCURVE",
"364 443 CURVE SMOOTH",
"435 443 OFFCURVE",
"476 412 OFFCURVE",
"476 331 CURVE SMOOTH",
"476 0 LINE",
"628 0 LINE",
"628 55 LINE",
"560 85 LINE",
"560 320 LINE SMOOTH",
"560 462 OFFCURVE",
"517 516 OFFCURVE",
"391 516 CURVE SMOOTH",
"319 516 OFFCURVE",
"252 498 OFFCURVE",
"171 452 CURVE",
"198 452 LINE",
"198 710 LINE"
);
}
);
width = 663;
}
);
leftMetricsKey = n;
rightMetricsKey = n;
unicode = 0068;
},
{
glyphname = i;
lastChange = "2014-11-05 19:13:04 +0000";
layers = (
{
background = {
paths = (
{
closed = 1;
nodes = (
"46 502 LINE",
"46 445 LINE",
"114 417 LINE",
"114 85 LINE",
"46 55 LINE",
"46 0 LINE",
"266 0 LINE",
"266 55 LINE",
"198 85 LINE",
"198 502 LINE"
);
},
{
closed = 1;
nodes = (
"109 717 OFFCURVE",
"84 694 OFFCURVE",
"84 652 CURVE SMOOTH",
"84 610 OFFCURVE",
"109 587 OFFCURVE",
"148 587 CURVE SMOOTH",
"187 587 OFFCURVE",
"212 610 OFFCURVE",
"212 652 CURVE SMOOTH",
"212 694 OFFCURVE",
"187 717 OFFCURVE",
"148 717 CURVE SMOOTH"
);
}
);
};
guideLines = (
{
angle = 90;
position = "{114, 425}";
},
{
angle = 90;
position = "{198, 510}";
}
);
layerId = "0225C979-6A3F-4323-834E-E3153ADD1AE8";
name = Regular;
paths = (
{
closed = 1;
nodes = (
"46 502 LINE",
"46 445 LINE",
"114 417 LINE",
"114 85 LINE",
"46 55 LINE",
"46 0 LINE",
"266 0 LINE",
"266 55 LINE",
"198 85 LINE",
"198 502 LINE"
);
},
{
closed = 1;
nodes = (
"109 717 OFFCURVE",
"84 694 OFFCURVE",
"84 652 CURVE SMOOTH",
"84 610 OFFCURVE",
"109 587 OFFCURVE",
"148 587 CURVE SMOOTH",
"187 587 OFFCURVE",
"212 610 OFFCURVE",
"212 652 CURVE SMOOTH",
"212 694 OFFCURVE",
"187 717 OFFCURVE",
"148 717 CURVE SMOOTH"
);
}
);
width = 301;
}
);
leftMetricsKey = n;
rightMetricsKey = n;
unicode = 0069;
},
{
glyphname = idotless;
lastChange = "2014-11-05 19:13:04 +0000";
layers = (
{
anchors = (
{
name = ogonek;
position = "{135, 10}";
},
{
name = top;
position = "{156, 502}";
}
);
guideLines = (
{
angle = 90;
position = "{198, 85}";
},
{
angle = 90;
position = "{114, 85}";
}
);
layerId = "0225C979-6A3F-4323-834E-E3153ADD1AE8";
name = Regular;
paths = (
{
closed = 1;
nodes = (
"46 502 LINE",
"46 445 LINE",
"114 417 LINE",
"114 85 LINE",
"46 55 LINE",
"46 0 LINE",
"266 0 LINE",
"266 55 LINE",
"198 85 LINE",
"198 502 LINE"
);
}
);
width = 301;
}
);
unicode = 0131;
},
{
glyphname = j;
lastChange = "2014-11-05 19:13:04 +0000";
layers = (
{
background = {
paths = (
{
closed = 1;
nodes = (
"46 502 LINE",
"46 445 LINE",
"114 417 LINE",
"114 -8 LINE SMOOTH",
"114 -42 OFFCURVE",
"114 -58 OFFCURVE",
"114 -82 CURVE SMOOTH",
"114 -130 OFFCURVE",
"91 -154 OFFCURVE",
"44 -154 CURVE",
"20 -103 LINE",
"-33 -103 OFFCURVE",
"-51 -122 OFFCURVE",
"-51 -159 CURVE SMOOTH",
"-51 -203 OFFCURVE",
"-25 -224 OFFCURVE",
"38 -224 CURVE SMOOTH",
"132 -224 OFFCURVE",
"198 -176 OFFCURVE",
"198 -66 CURVE SMOOTH",
"198 502 LINE"
);
},
{
closed = 1;
nodes = (
"109 717 OFFCURVE",
"84 694 OFFCURVE",
"84 652 CURVE SMOOTH",
"84 610 OFFCURVE",
"109 587 OFFCURVE",
"148 587 CURVE SMOOTH",
"187 587 OFFCURVE",
"212 610 OFFCURVE",
"212 652 CURVE SMOOTH",
"212 694 OFFCURVE",
"187 717 OFFCURVE",
"148 717 CURVE SMOOTH"
);
}
);
};
layerId = "0225C979-6A3F-4323-834E-E3153ADD1AE8";
name = Regular;
paths = (
{
closed = 1;
nodes = (
"46 502 LINE",
"46 445 LINE",
"114 417 LINE",
"114 -8 LINE SMOOTH",
"114 -42 OFFCURVE",
"114 -58 OFFCURVE",
"114 -82 CURVE SMOOTH",
"114 -130 OFFCURVE",
"91 -154 OFFCURVE",
"44 -154 CURVE",
"20 -103 LINE",
"-33 -103 OFFCURVE",
"-51 -122 OFFCURVE",
"-51 -159 CURVE SMOOTH",
"-51 -203 OFFCURVE",
"-25 -224 OFFCURVE",
"38 -224 CURVE SMOOTH",
"132 -224 OFFCURVE",
"198 -176 OFFCURVE",
"198 -66 CURVE SMOOTH",
"198 502 LINE"
);
},
{
closed = 1;
nodes = (
"109 717 OFFCURVE",
"84 694 OFFCURVE",
"84 652 CURVE SMOOTH",
"84 610 OFFCURVE",
"109 587 OFFCURVE",
"148 587 CURVE SMOOTH",
"187 587 OFFCURVE",
"212 610 OFFCURVE",
"212 652 CURVE SMOOTH",
"212 694 OFFCURVE",
"187 717 OFFCURVE",
"148 717 CURVE SMOOTH"
);
}
);
width = 291;
}
);
unicode = 006A;
},
{
glyphname = k;
lastChange = "2014-11-13 17:26:00 +0000";
layers = (
{
anchors = (
{
name = bottom;
position = "{394, 0}";
}
);
background = {
guideLines = (
{
angle = 123.463;
position = "{434, 309}";
showMeasurement = 1;
}
);
paths = (
{
closed = 1;
nodes = (
"46 710 LINE",
"46 653 LINE",
"114 625 LINE",
"114 85 LINE",
"46 55 LINE",
"46 0 LINE",
"266 0 LINE",
"266 55 LINE",
"198 85 LINE",
"198 710 LINE"
);
},
{
closed = 1;
nodes = (
"346 502 LINE",
"346 445 LINE",
"450 402 LINE",
"445 440 LINE",
"178 237 LINE",
"178 150 LINE",
"529 417 LINE",
"597 445 LINE",
"597 502 LINE"
);
},
{
closed = 1;
nodes = (
"287 279 LINE",
"521 0 LINE",
"628 0 LINE",
"628 55 LINE",
"560 85 LINE",
"354 328 LINE"
);
}
);
};
guideLines = (
{
position = "{597, 417}";
},
{
position = "{597, 445}";
},
{
position = "{597, 431}";
}
);
layerId = "0225C979-6A3F-4323-834E-E3153ADD1AE8";
leftMetricsKey = "=h";
name = Regular;
paths = (
{
closed = 1;
nodes = (
"46 710 LINE",
"46 653 LINE",
"114 625 LINE",
"114 85 LINE",
"46 55 LINE",
"46 0 LINE",
"266 0 LINE",
"266 55 LINE",
"198 85 LINE",
"198 710 LINE"
);
},
{
closed = 1;
nodes = (
"346 502 LINE",
"346 445 LINE",
"445 419 LINE",
"445 440 LINE",
"178 237 LINE",
"178 150 LINE",
"529 417 LINE",
"597 445 LINE",
"597 502 LINE"
);
},
{
closed = 1;
nodes = (
"287 279 LINE",
"521 0 LINE",
"628 0 LINE",
"628 55 LINE",
"560 85 LINE",
"354 328 LINE"
);
}
);
width = 643;
}
);
leftMetricsKey = h;
unicode = 006B;
},
{
glyphname = l;
lastChange = "2014-11-06 06:43:24 +0000";
layers = (
{
anchors = (
{
name = bottom;
position = "{156, 0}";
},
{
name = top;
position = "{156, 680}";
},
{
name = topright;
position = "{281, 502}";
}
);
background = {
paths = (
{
closed = 1;
nodes = (
"46 710 LINE",
"46 653 LINE",
"114 625 LINE",
"114 85 LINE",
"46 55 LINE",
"46 0 LINE",
"266 0 LINE",
"266 55 LINE",
"198 85 LINE",
"198 710 LINE"
);
},
{
closed = 1;
nodes = (
"175 321 OFFCURVE",
"190 336 OFFCURVE",
"190 355 CURVE SMOOTH",
"190 374 OFFCURVE",
"175 389 OFFCURVE",
"156 389 CURVE SMOOTH",
"137 389 OFFCURVE",
"122 374 OFFCURVE",
"122 355 CURVE SMOOTH",
"122 336 OFFCURVE",
"137 321 OFFCURVE",
"156 321 CURVE SMOOTH"
);
}
);
};
layerId = "0225C979-6A3F-4323-834E-E3153ADD1AE8";
name = Regular;
paths = (
{
closed = 1;
nodes = (
"46 710 LINE",
"46 653 LINE",
"114 625 LINE",
"114 85 LINE",
"46 55 LINE",
"46 0 LINE",
"266 0 LINE",
"266 55 LINE",
"198 85 LINE",
"198 710 LINE"
);
}
);
width = 301;
}
);
leftMetricsKey = h;
rightMetricsKey = h;
unicode = 006C;
},
{
color = 8;
glyphname = lslash;
lastChange = "2014-11-06 06:47:51 +0000";
layers = (
{
background = {
paths = (
{
closed = 1;
nodes = (
"286 446 LINE",
"26 337 LINE",
"26 263 LINE",
"286 372 LINE"
);
}
);
};
components = (
{
name = l;
transform = "{1, 0, 0, 1, 0, 0}";
}
);
layerId = "0225C979-6A3F-4323-834E-E3153ADD1AE8";
name = Regular;
paths = (
{
closed = 1;
nodes = (
"286 477 LINE",
"26 368 LINE",
"26 294 LINE",
"286 403 LINE"
);
}
);
width = 301;
}
);
unicode = 0142;
},
{
glyphname = m;
lastChange = "2014-11-05 19:13:04 +0000";
layers = (
{
background = {
paths = (
{
closed = 1;
nodes = (
"659 516 OFFCURVE",
"595 497 OFFCURVE",
"502 446 CURVE",
"535 443 LINE",
"505 495 OFFCURVE",
"460 516 OFFCURVE",
"386 516 CURVE SMOOTH",
"312 516 OFFCURVE",
"248 497 OFFCURVE",
"155 446 CURVE",
"193 446 LINE",
"157 502 LINE",
"46 502 LINE",
"46 445 LINE",
"114 417 LINE",
"114 85 LINE",
"46 55 LINE",
"46 0 LINE",
"266 0 LINE",
"266 55 LINE",
"198 85 LINE",
"198 402 LINE",
"268 427 OFFCURVE",
"308 443 OFFCURVE",
"359 443 CURVE SMOOTH",
"425 443 OFFCURVE",
"462 412 OFFCURVE",
"462 331 CURVE SMOOTH",
"462 0 LINE",
"614 0 LINE",
"614 55 LINE",
"546 85 LINE",
"546 402 LINE",
"615 427 OFFCURVE",
"655 443 OFFCURVE",
"707 443 CURVE SMOOTH",
"773 443 OFFCURVE",
"810 412 OFFCURVE",
"810 331 CURVE SMOOTH",
"810 0 LINE",
"962 0 LINE",
"962 55 LINE",
"894 85 LINE",
"894 320 LINE SMOOTH",
"894 462 OFFCURVE",
"854 516 OFFCURVE",
"734 516 CURVE SMOOTH"
);
}
);
};
layerId = "0225C979-6A3F-4323-834E-E3153ADD1AE8";
name = Regular;
paths = (
{
closed = 1;
nodes = (
"659 516 OFFCURVE",
"595 497 OFFCURVE",
"502 446 CURVE",
"535 443 LINE",
"505 495 OFFCURVE",
"460 516 OFFCURVE",
"386 516 CURVE SMOOTH",
"312 516 OFFCURVE",
"248 497 OFFCURVE",
"155 446 CURVE",
"193 446 LINE",
"157 502 LINE",
"46 502 LINE",
"46 445 LINE",
"114 417 LINE",
"114 85 LINE",
"46 55 LINE",
"46 0 LINE",
"266 0 LINE",
"266 55 LINE",
"198 85 LINE",
"198 402 LINE",
"268 427 OFFCURVE",
"308 443 OFFCURVE",
"359 443 CURVE SMOOTH",
"425 443 OFFCURVE",
"462 412 OFFCURVE",
"462 331 CURVE SMOOTH",
"462 0 LINE",
"614 0 LINE",
"614 55 LINE",
"546 85 LINE",
"546 402 LINE",
"615 427 OFFCURVE",
"655 443 OFFCURVE",
"707 443 CURVE SMOOTH",
"773 443 OFFCURVE",
"810 412 OFFCURVE",
"810 331 CURVE SMOOTH",
"810 0 LINE",
"962 0 LINE",
"962 55 LINE",
"894 85 LINE",
"894 320 LINE SMOOTH",
"894 462 OFFCURVE",
"854 516 OFFCURVE",
"734 516 CURVE SMOOTH"
);
}
);
width = 997;
}
);
leftMetricsKey = n;
rightMetricsKey = n;
unicode = 006D;
},
{
glyphname = n;
lastChange = "2014-11-05 19:13:04 +0000";
layers = (
{
anchors = (
{
name = bottom;
position = "{337, 0}";
},
{
name = top;
position = "{337, 502}";
}
);
background = {
paths = (
{
closed = 1;
nodes = (
"319 516 OFFCURVE",
"251 497 OFFCURVE",
"172 455 CURVE",
"193 446 LINE",
"157 502 LINE",
"46 502 LINE",
"46 445 LINE",
"114 417 LINE",
"114 85 LINE",
"46 55 LINE",
"46 0 LINE",
"276 0 LINE",
"276 55 LINE",
"198 85 LINE",
"198 402 LINE",
"268 427 OFFCURVE",
"313 443 OFFCURVE",
"364 443 CURVE SMOOTH",
"435 443 OFFCURVE",
"476 412 OFFCURVE",
"476 331 CURVE SMOOTH",
"476 0 LINE",
"628 0 LINE",
"628 55 LINE",
"560 85 LINE",
"560 320 LINE SMOOTH",
"560 462 OFFCURVE",
"517 516 OFFCURVE",
"391 516 CURVE SMOOTH"
);
}
);
};
layerId = "0225C979-6A3F-4323-834E-E3153ADD1AE8";
name = Regular;
paths = (
{
closed = 1;
nodes = (
"319 516 OFFCURVE",
"251 497 OFFCURVE",
"172 455 CURVE",
"193 446 LINE",
"157 502 LINE",
"46 502 LINE",
"46 445 LINE",
"114 417 LINE",
"114 85 LINE",
"46 55 LINE",
"46 0 LINE",
"276 0 LINE",
"276 55 LINE",
"198 85 LINE",
"198 402 LINE",
"268 427 OFFCURVE",
"313 443 OFFCURVE",
"364 443 CURVE SMOOTH",
"435 443 OFFCURVE",
"476 412 OFFCURVE",
"476 331 CURVE SMOOTH",
"476 0 LINE",
"628 0 LINE",
"628 55 LINE",
"560 85 LINE",
"560 320 LINE SMOOTH",
"560 462 OFFCURVE",
"517 516 OFFCURVE",
"391 516 CURVE SMOOTH"
);
}
);
width = 663;
}
);
unicode = 006E;
},
{
glyphname = o;
lastChange = "2014-11-05 19:13:04 +0000";
layers = (
{
anchors = (
{
name = top;
position = "{295, 502}";
}
);
background = {
paths = (
{
closed = 1;
nodes = (
"154 516 OFFCURVE",
"41 446 OFFCURVE",
"41 251 CURVE SMOOTH",
"41 56 OFFCURVE",
"153 -14 OFFCURVE",
"295 -14 CURVE SMOOTH",
"437 -14 OFFCURVE",
"549 56 OFFCURVE",
"549 251 CURVE SMOOTH",
"549 446 OFFCURVE",
"436 516 OFFCURVE",
"295 516 CURVE SMOOTH"
);
},
{
closed = 1;
nodes = (
"410 444 OFFCURVE",
"461 402 OFFCURVE",
"461 251 CURVE SMOOTH",
"461 100 OFFCURVE",
"410 58 OFFCURVE",
"295 58 CURVE SMOOTH",
"180 58 OFFCURVE",
"129 100 OFFCURVE",
"129 251 CURVE SMOOTH",
"129 402 OFFCURVE",
"180 444 OFFCURVE",
"295 444 CURVE SMOOTH"
);
}
);
};
layerId = "0225C979-6A3F-4323-834E-E3153ADD1AE8";
rightMetricsKey = "=|o";
name = Regular;
paths = (
{
closed = 1;
nodes = (
"154 516 OFFCURVE",
"41 446 OFFCURVE",
"41 251 CURVE SMOOTH",
"41 56 OFFCURVE",
"153 -14 OFFCURVE",
"295 -14 CURVE SMOOTH",
"437 -14 OFFCURVE",
"549 56 OFFCURVE",
"549 251 CURVE SMOOTH",
"549 446 OFFCURVE",
"436 516 OFFCURVE",
"295 516 CURVE SMOOTH"
);
},
{
closed = 1;
nodes = (
"410 444 OFFCURVE",
"461 402 OFFCURVE",
"461 251 CURVE SMOOTH",
"461 100 OFFCURVE",
"410 58 OFFCURVE",
"295 58 CURVE SMOOTH",
"180 58 OFFCURVE",
"129 100 OFFCURVE",
"129 251 CURVE SMOOTH",
"129 402 OFFCURVE",
"180 444 OFFCURVE",
"295 444 CURVE SMOOTH"
);
}
);
width = 590;
}
);
rightMetricsKey = "=|o";
unicode = 006F;
},
{
glyphname = oslash;
lastChange = "2014-11-05 19:13:04 +0000";
layers = (
{
background = {
anchors = (
{
name = top;
position = "{295, 502}";
}
);
guideLines = (
{
angle = 90;
position = "{539, 251}";
},
{
angle = 90;
position = "{51, 251}";
},
{
position = "{295, 536}";
},
{
position = "{295, -34}";
}
);
paths = (
{
closed = 1;
nodes = (
"154 516 OFFCURVE",
"41 446 OFFCURVE",
"41 251 CURVE SMOOTH",
"41 56 OFFCURVE",
"153 -14 OFFCURVE",
"295 -14 CURVE SMOOTH",
"437 -14 OFFCURVE",
"549 56 OFFCURVE",
"549 251 CURVE SMOOTH",
"549 446 OFFCURVE",
"436 516 OFFCURVE",
"295 516 CURVE SMOOTH"
);
},
{
closed = 1;
nodes = (
"410 444 OFFCURVE",
"461 402 OFFCURVE",
"461 251 CURVE SMOOTH",
"461 100 OFFCURVE",
"410 58 OFFCURVE",
"295 58 CURVE SMOOTH",
"180 58 OFFCURVE",
"129 100 OFFCURVE",
"129 251 CURVE SMOOTH",
"129 402 OFFCURVE",
"180 444 OFFCURVE",
"295 444 CURVE SMOOTH"
);
}
);
};
components = (
{
name = o;
transform = "{1, 0, 0, 1, 0, 0}";
}
);
guideLines = (
{
angle = 90;
position = "{539, 251}";
},
{
angle = 90;
position = "{51, 251}";
},
{
position = "{295, 536}";
},
{
position = "{295, -34}";
}
);
layerId = "0225C979-6A3F-4323-834E-E3153ADD1AE8";
name = Regular;
paths = (
{
closed = 1;
nodes = (
"452 536 LINE",
"51 -34 LINE",
"139 -34 LINE",
"539 536 LINE"
);
}
);
width = 590;
}
);
unicode = 00F8;
},
{
glyphname = oe;
lastChange = "2014-11-05 19:13:04 +0000";
layers = (
{
anchors = (
{
name = top;
position = "{284, 502}";
}
);
background = {
paths = (
{
closed = 1;
nodes = (
"410 444 OFFCURVE",
"461 402 OFFCURVE",
"461 251 CURVE SMOOTH",
"461 100 OFFCURVE",
"410 58 OFFCURVE",
"295 58 CURVE SMOOTH",
"180 58 OFFCURVE",
"129 100 OFFCURVE",
"129 251 CURVE SMOOTH",
"129 402 OFFCURVE",
"180 444 OFFCURVE",
"295 444 CURVE SMOOTH"
);
},
{
closed = 1;
nodes = (
"829 207 LINE",
"822 110 OFFCURVE",
"781 58 OFFCURVE",
"695 58 CURVE SMOOTH",
"596 58 OFFCURVE",
"553 102 OFFCURVE",
"545 207 CURVE"
);
},
{
closed = 1;
nodes = (
"472 477 OFFCURVE",
"411 516 OFFCURVE",
"295 516 CURVE SMOOTH",
"153 516 OFFCURVE",
"41 446 OFFCURVE",
"41 251 CURVE SMOOTH",
"41 56 OFFCURVE",
"154 -14 OFFCURVE",
"295 -14 CURVE SMOOTH",
"397 -14 OFFCURVE",
"465 17 OFFCURVE",
"498 88 CURVE",
"506 88 LINE",
"539 17 OFFCURVE",
"612 -14 OFFCURVE",
"699 -14 CURVE SMOOTH",
"821 -14 OFFCURVE",
"917 63 OFFCURVE",
"917 238 CURVE SMOOTH",
"917 278 LINE",
"545 278 LINE",
"554 411 OFFCURVE",
"601 444 OFFCURVE",
"720 444 CURVE SMOOTH",
"776 444 OFFCURVE",
"830 439 OFFCURVE",
"899 421 CURVE",
"899 493 LINE",
"851 506 OFFCURVE",
"780 516 OFFCURVE",
"718 516 CURVE SMOOTH",
"613 516 OFFCURVE",
"532 489 OFFCURVE",
"495 404 CURVE",
"502 404 LINE"
);
}
);
};
guideLines = (
{
angle = 90;
position = "{461, 609}";
}
);
layerId = "0225C979-6A3F-4323-834E-E3153ADD1AE8";
name = Regular;
paths = (
{
closed = 1;
nodes = (
"180 58 OFFCURVE",
"129 100 OFFCURVE",
"129 251 CURVE SMOOTH",
"129 402 OFFCURVE",
"180 444 OFFCURVE",
"295 444 CURVE SMOOTH",
"410 444 OFFCURVE",
"461 402 OFFCURVE",
"461 251 CURVE SMOOTH",
"461 100 OFFCURVE",
"410 58 OFFCURVE",
"295 58 CURVE SMOOTH"
);
},
{
closed = 1;
nodes = (
"553 400 OFFCURVE",
"596 444 OFFCURVE",
"695 444 CURVE SMOOTH",
"781 444 OFFCURVE",
"822 392 OFFCURVE",
"829 295 CURVE",
"545 295 LINE"
);
},
{
closed = 1;
nodes = (
"495 98 LINE",
"532 13 OFFCURVE",
"613 -14 OFFCURVE",
"718 -14 CURVE SMOOTH",
"780 -14 OFFCURVE",
"851 -4 OFFCURVE",
"899 9 CURVE",
"899 81 LINE",
"830 63 OFFCURVE",
"776 58 OFFCURVE",
"720 58 CURVE SMOOTH",
"601 58 OFFCURVE",
"554 91 OFFCURVE",
"545 224 CURVE",
"917 224 LINE",
"917 264 LINE SMOOTH",
"917 439 OFFCURVE",
"821 516 OFFCURVE",
"699 516 CURVE SMOOTH",
"607 516 OFFCURVE",
"530 483 OFFCURVE",
"495 404 CURVE",
"502 404 LINE",
"468 486 OFFCURVE",
"400 516 OFFCURVE",
"295 516 CURVE SMOOTH",
"154 516 OFFCURVE",
"41 446 OFFCURVE",
"41 251 CURVE SMOOTH",
"41 56 OFFCURVE",
"153 -14 OFFCURVE",
"295 -14 CURVE SMOOTH",
"411 -14 OFFCURVE",
"472 25 OFFCURVE",
"502 98 CURVE"
);
}
);
width = 948;
}
);
leftMetricsKey = o;
rightMetricsKey = e;
unicode = 0153;
},
{
glyphname = p;
lastChange = "2014-11-05 19:13:04 +0000";
layers = (
{
background = {
paths = (
{
closed = 1;
nodes = (
"308 516 OFFCURVE",
"246 499 OFFCURVE",
"169 449 CURVE",
"183 446 LINE",
"147 502 LINE",
"36 502 LINE",
"36 445 LINE",
"104 417 LINE",
"104 -139 LINE",
"36 -169 LINE",
"36 -224 LINE",
"266 -224 LINE",
"266 -169 LINE",
"188 -139 LINE",
"188 90 LINE",
"165 90 LINE",
"224 21 OFFCURVE",
"289 -10 OFFCURVE",
"380 -10 CURVE SMOOTH",
"510 -10 OFFCURVE",
"579 47 OFFCURVE",
"579 249 CURVE SMOOTH",
"579 446 OFFCURVE",
"497 516 OFFCURVE",
"371 516 CURVE SMOOTH"
);
},
{
closed = 1;
nodes = (
"454 443 OFFCURVE",
"491 374 OFFCURVE",
"491 241 CURVE SMOOTH",
"491 101 OFFCURVE",
"450 63 OFFCURVE",
"363 63 CURVE SMOOTH",
"297 63 OFFCURVE",
"241 86 OFFCURVE",
"188 128 CURVE",
"188 402 LINE",
"252 425 OFFCURVE",
"299 443 OFFCURVE",
"351 443 CURVE SMOOTH"
);
}
);
};
layerId = "0225C979-6A3F-4323-834E-E3153ADD1AE8";
name = Regular;
paths = (
{
closed = 1;
nodes = (
"308 516 OFFCURVE",
"246 499 OFFCURVE",
"169 449 CURVE",
"183 446 LINE",
"147 502 LINE",
"36 502 LINE",
"36 445 LINE",
"104 417 LINE",
"104 -139 LINE",
"36 -169 LINE",
"36 -224 LINE",
"266 -224 LINE",
"266 -169 LINE",
"188 -139 LINE",
"188 90 LINE",
"165 90 LINE",
"224 21 OFFCURVE",
"289 -10 OFFCURVE",
"380 -10 CURVE SMOOTH",
"510 -10 OFFCURVE",
"579 47 OFFCURVE",
"579 249 CURVE SMOOTH",
"579 446 OFFCURVE",
"497 516 OFFCURVE",
"371 516 CURVE SMOOTH"
);
},
{
closed = 1;
nodes = (
"454 443 OFFCURVE",
"491 374 OFFCURVE",
"491 241 CURVE SMOOTH",
"491 101 OFFCURVE",
"450 63 OFFCURVE",
"363 63 CURVE SMOOTH",
"297 63 OFFCURVE",
"241 86 OFFCURVE",
"188 128 CURVE",
"188 402 LINE",
"252 425 OFFCURVE",
"299 443 OFFCURVE",
"351 443 CURVE SMOOTH"
);
}
);
width = 624;
}
);
leftMetricsKey = "=b";
rightMetricsKey = "=o+4";
unicode = 0070;
},
{
glyphname = thorn;
lastChange = "2014-11-05 19:13:04 +0000";
layers = (
{
background = {
paths = (
{
closed = 1;
nodes = (
"46 710 LINE",
"46 653 LINE",
"114 625 LINE",
"114 -139 LINE",
"46 -169 LINE",
"46 -224 LINE",
"276 -224 LINE",
"276 -169 LINE",
"198 -139 LINE",
"198 90 LINE",
"175 90 LINE",
"234 21 OFFCURVE",
"299 -10 OFFCURVE",
"390 -10 CURVE SMOOTH",
"520 -10 OFFCURVE",
"589 47 OFFCURVE",
"589 249 CURVE SMOOTH",
"589 446 OFFCURVE",
"507 516 OFFCURVE",
"381 516 CURVE SMOOTH",
"318 516 OFFCURVE",
"256 499 OFFCURVE",
"179 449 CURVE",
"198 449 LINE",
"198 710 LINE"
);
},
{
closed = 1;
nodes = (
"464 443 OFFCURVE",
"501 374 OFFCURVE",
"501 241 CURVE SMOOTH",
"501 101 OFFCURVE",
"460 63 OFFCURVE",
"373 63 CURVE SMOOTH",
"307 63 OFFCURVE",
"251 86 OFFCURVE",
"198 128 CURVE",
"198 402 LINE",
"262 425 OFFCURVE",
"309 443 OFFCURVE",
"361 443 CURVE SMOOTH"
);
}
);
};
guideLines = (
{
angle = 90;
position = "{198, 452}";
}
);
layerId = "0225C979-6A3F-4323-834E-E3153ADD1AE8";
rightMetricsKey = "=p";
name = Regular;
paths = (
{
closed = 1;
nodes = (
"46 710 LINE",
"46 653 LINE",
"114 625 LINE",
"114 -139 LINE",
"46 -169 LINE",
"46 -224 LINE",
"276 -224 LINE",
"276 -169 LINE",
"198 -139 LINE",
"198 90 LINE",
"175 90 LINE",
"234 21 OFFCURVE",
"299 -10 OFFCURVE",
"390 -10 CURVE SMOOTH",
"520 -10 OFFCURVE",
"589 47 OFFCURVE",
"589 249 CURVE SMOOTH",
"589 446 OFFCURVE",
"507 516 OFFCURVE",
"381 516 CURVE SMOOTH",
"318 516 OFFCURVE",
"256 499 OFFCURVE",
"179 449 CURVE",
"198 449 LINE",
"198 710 LINE"
);
},
{
closed = 1;
nodes = (
"464 443 OFFCURVE",
"501 374 OFFCURVE",
"501 241 CURVE SMOOTH",
"501 101 OFFCURVE",
"460 63 OFFCURVE",
"373 63 CURVE SMOOTH",
"307 63 OFFCURVE",
"251 86 OFFCURVE",
"198 128 CURVE",
"198 402 LINE",
"262 425 OFFCURVE",
"309 443 OFFCURVE",
"361 443 CURVE SMOOTH"
);
}
);
width = 634;
}
);
leftMetricsKey = "=n";
rightMetricsKey = "=o+4";
unicode = 00FE;
},
{
glyphname = q;
lastChange = "2014-11-05 19:13:04 +0000";
layers = (
{
background = {
paths = (
{
closed = 1;
nodes = (
"127 516 OFFCURVE",
"45 446 OFFCURVE",
"45 249 CURVE SMOOTH",
"45 47 OFFCURVE",
"114 -10 OFFCURVE",
"244 -10 CURVE SMOOTH",
"335 -10 OFFCURVE",
"400 21 OFFCURVE",
"459 90 CURVE",
"436 90 LINE",
"436 -139 LINE",
"358 -169 LINE",
"358 -224 LINE",
"588 -224 LINE",
"588 -169 LINE",
"520 -139 LINE",
"520 502 LINE",
"477 502 LINE",
"441 446 LINE",
"460 446 LINE",
"377 500 OFFCURVE",
"316 516 OFFCURVE",
"253 516 CURVE SMOOTH"
);
},
{
closed = 1;
nodes = (
"325 443 OFFCURVE",
"372 425 OFFCURVE",
"436 402 CURVE",
"436 128 LINE",
"383 86 OFFCURVE",
"327 63 OFFCURVE",
"261 63 CURVE SMOOTH",
"174 63 OFFCURVE",
"133 101 OFFCURVE",
"133 241 CURVE SMOOTH",
"133 374 OFFCURVE",
"170 443 OFFCURVE",
"273 443 CURVE SMOOTH"
);
}
);
};
layerId = "0225C979-6A3F-4323-834E-E3153ADD1AE8";
name = Regular;
paths = (
{
closed = 1;
nodes = (
"127 516 OFFCURVE",
"45 446 OFFCURVE",
"45 249 CURVE SMOOTH",
"45 47 OFFCURVE",
"114 -10 OFFCURVE",
"244 -10 CURVE SMOOTH",
"335 -10 OFFCURVE",
"400 21 OFFCURVE",
"459 90 CURVE",
"436 90 LINE",
"436 -139 LINE",
"358 -169 LINE",
"358 -224 LINE",
"588 -224 LINE",
"588 -169 LINE",
"520 -139 LINE",
"520 502 LINE",
"477 502 LINE",
"441 446 LINE",
"460 446 LINE",
"377 500 OFFCURVE",
"316 516 OFFCURVE",
"253 516 CURVE SMOOTH"
);
},
{
closed = 1;
nodes = (
"325 443 OFFCURVE",
"372 425 OFFCURVE",
"436 402 CURVE",
"436 128 LINE",
"383 86 OFFCURVE",
"327 63 OFFCURVE",
"261 63 CURVE SMOOTH",
"174 63 OFFCURVE",
"133 101 OFFCURVE",
"133 241 CURVE SMOOTH",
"133 374 OFFCURVE",
"170 443 OFFCURVE",
"273 443 CURVE SMOOTH"
);
}
);
width = 623;
}
);
leftMetricsKey = "=o+4";
unicode = 0071;
},
{
glyphname = r;
lastChange = "2014-11-05 19:13:04 +0000";
layers = (
{
anchors = (
{
name = bottom;
position = "{156, 0}";
},
{
name = top;
position = "{267, 502}";
}
);
background = {
hints = (
{
place = "{0.000000, 0.000000}";
}
);
paths = (
{
closed = 1;
nodes = (
"307 518 OFFCURVE",
"242 495 OFFCURVE",
"171 417 CURVE",
"214 412 LINE",
"157 502 LINE",
"46 502 LINE",
"46 445 LINE",
"114 417 LINE",
"114 85 LINE",
"46 55 LINE",
"46 0 LINE",
"276 0 LINE",
"276 55 LINE",
"198 85 LINE",
"198 375 LINE",
"237 407 OFFCURVE",
"275 430 OFFCURVE",
"320 450 CURVE",
"308 453 LINE",
"345 394 LINE",
"393 394 OFFCURVE",
"419 412 OFFCURVE",
"419 458 CURVE SMOOTH",
"419 499 OFFCURVE",
"401 518 OFFCURVE",
"360 518 CURVE SMOOTH"
);
}
);
};
guideLines = (
{
angle = 90;
position = "{198, 85}";
}
);
layerId = "0225C979-6A3F-4323-834E-E3153ADD1AE8";
name = Regular;
paths = (
{
closed = 1;
nodes = (
"307 518 OFFCURVE",
"242 495 OFFCURVE",
"171 417 CURVE",
"214 412 LINE",
"157 502 LINE",
"46 502 LINE",
"46 445 LINE",
"114 417 LINE",
"114 85 LINE",
"46 55 LINE",
"46 0 LINE",
"276 0 LINE",
"276 55 LINE",
"198 85 LINE",
"198 375 LINE",
"237 407 OFFCURVE",
"275 430 OFFCURVE",
"320 450 CURVE",
"308 453 LINE",
"345 394 LINE",
"393 394 OFFCURVE",
"419 412 OFFCURVE",
"419 458 CURVE SMOOTH",
"419 499 OFFCURVE",
"401 518 OFFCURVE",
"360 518 CURVE SMOOTH"
);
}
);
width = 444;
}
);
leftMetricsKey = h;
unicode = 0072;
},
{
glyphname = s;
lastChange = "2014-11-05 19:13:04 +0000";
layers = (
{
anchors = (
{
name = bottom;
position = "{263, 0}";
},
{
name = top;
position = "{263, 502}";
}
);
background = {
paths = (
{
closed = 1;
nodes = (
"84 516 OFFCURVE",
"37 471 OFFCURVE",
"37 366 CURVE SMOOTH",
"37 268 OFFCURVE",
"77 241 OFFCURVE",
"213 216 CURVE SMOOTH",
"354 190 OFFCURVE",
"402 198 OFFCURVE",
"402 130 CURVE SMOOTH",
"402 73 OFFCURVE",
"375 56 OFFCURVE",
"252 56 CURVE SMOOTH",
"194 56 OFFCURVE",
"162 59 OFFCURVE",
"105 70 CURVE",
"143 31 LINE",
"103 150 LINE",
"43 150 LINE",
"43 6 LINE",
"126 -8 OFFCURVE",
"179 -14 OFFCURVE",
"249 -14 CURVE SMOOTH",
"440 -14 OFFCURVE",
"490 34 OFFCURVE",
"490 142 CURVE SMOOTH",
"490 228 OFFCURVE",
"464 259 OFFCURVE",
"326 284 CURVE SMOOTH",
"167 313 OFFCURVE",
"125 311 OFFCURVE",
"125 374 CURVE SMOOTH",
"125 427 OFFCURVE",
"151 446 OFFCURVE",
"259 446 CURVE SMOOTH",
"320 446 OFFCURVE",
"357 441 OFFCURVE",
"410 431 CURVE",
"373 476 LINE",
"414 357 LINE",
"472 357 LINE",
"472 496 LINE",
"389 510 OFFCURVE",
"330 516 OFFCURVE",
"263 516 CURVE SMOOTH"
);
}
);
};
layerId = "0225C979-6A3F-4323-834E-E3153ADD1AE8";
name = Regular;
paths = (
{
closed = 1;
nodes = (
"87 516 OFFCURVE",
"40 471 OFFCURVE",
"40 366 CURVE SMOOTH",
"40 268 OFFCURVE",
"76 241 OFFCURVE",
"212 216 CURVE SMOOTH",
"353 190 OFFCURVE",
"398 198 OFFCURVE",
"398 130 CURVE SMOOTH",
"398 73 OFFCURVE",
"374 56 OFFCURVE",
"251 56 CURVE SMOOTH",
"197 56 OFFCURVE",
"165 59 OFFCURVE",
"108 70 CURVE",
"146 31 LINE",
"106 150 LINE",
"46 150 LINE",
"46 6 LINE",
"129 -8 OFFCURVE",
"182 -14 OFFCURVE",
"248 -14 CURVE SMOOTH",
"439 -14 OFFCURVE",
"486 34 OFFCURVE",
"486 142 CURVE SMOOTH",
"486 228 OFFCURVE",
"463 259 OFFCURVE",
"325 284 CURVE SMOOTH",
"166 313 OFFCURVE",
"128 311 OFFCURVE",
"128 374 CURVE SMOOTH",
"128 427 OFFCURVE",
"154 446 OFFCURVE",
"258 446 CURVE SMOOTH",
"316 446 OFFCURVE",
"353 441 OFFCURVE",
"406 431 CURVE",
"369 476 LINE",
"410 357 LINE",
"468 357 LINE",
"468 496 LINE",
"385 510 OFFCURVE",
"326 516 OFFCURVE",
"262 516 CURVE SMOOTH"
);
}
);
width = 526;
}
);
unicode = 0073;
},
{
glyphname = germandbls;
lastChange = "2014-11-05 19:13:04 +0000";
layers = (
{
background = {
paths = (
{
closed = 1;
nodes = (
"191 718 OFFCURVE",
"114 650 OFFCURVE",
"114 522 CURVE SMOOTH",
"114 502 LINE",
"46 488 LINE",
"46 430 LINE",
"114 430 LINE",
"114 85 LINE",
"46 55 LINE",
"46 0 LINE",
"198 0 LINE",
"198 520 LINE SMOOTH",
"198 609 OFFCURVE",
"232 646 OFFCURVE",
"314 646 CURVE SMOOTH",
"384 646 OFFCURVE",
"412 619 OFFCURVE",
"412 550 CURVE SMOOTH",
"412 471 OFFCURVE",
"375 437 OFFCURVE",
"289 437 CURVE",
"289 365 LINE",
"294 365 LINE SMOOTH",
"418 365 OFFCURVE",
"472 322 OFFCURVE",
"472 217 CURVE SMOOTH",
"472 116 OFFCURVE",
"426 74 OFFCURVE",
"309 74 CURVE SMOOTH",
"289 74 LINE",
"289 0 LINE",
"319 0 LINE SMOOTH",
"476 0 OFFCURVE",
"560 79 OFFCURVE",
"560 217 CURVE SMOOTH",
"560 333 OFFCURVE",
"500 409 OFFCURVE",
"391 418 CURVE",
"391 420 LINE",
"456 434 OFFCURVE",
"494 484 OFFCURVE",
"494 561 CURVE SMOOTH",
"494 660 OFFCURVE",
"433 718 OFFCURVE",
"317 718 CURVE SMOOTH"
);
}
);
};
guideLines = (
{
angle = 90;
position = "{472, 219}";
},
{
angle = 90;
position = "{516, 219}";
}
);
layerId = "0225C979-6A3F-4323-834E-E3153ADD1AE8";
name = Regular;
paths = (
{
closed = 1;
nodes = (
"191 718 OFFCURVE",
"114 650 OFFCURVE",
"114 522 CURVE SMOOTH",
"114 502 LINE",
"46 488 LINE",
"46 430 LINE",
"114 430 LINE",
"114 85 LINE",
"46 55 LINE",
"46 0 LINE",
"198 0 LINE",
"198 520 LINE SMOOTH",
"198 609 OFFCURVE",
"232 646 OFFCURVE",
"314 646 CURVE SMOOTH",
"384 646 OFFCURVE",
"412 619 OFFCURVE",
"412 550 CURVE SMOOTH",
"412 471 OFFCURVE",
"375 437 OFFCURVE",
"289 437 CURVE",
"289 365 LINE",
"294 365 LINE SMOOTH",
"418 365 OFFCURVE",
"472 322 OFFCURVE",
"472 217 CURVE SMOOTH",
"472 116 OFFCURVE",
"426 74 OFFCURVE",
"309 74 CURVE SMOOTH",
"289 74 LINE",
"289 0 LINE",
"319 0 LINE SMOOTH",
"476 0 OFFCURVE",
"560 79 OFFCURVE",
"560 217 CURVE SMOOTH",
"560 333 OFFCURVE",
"500 409 OFFCURVE",
"391 418 CURVE",
"391 420 LINE",
"456 434 OFFCURVE",
"494 484 OFFCURVE",
"494 561 CURVE SMOOTH",
"494 660 OFFCURVE",
"433 718 OFFCURVE",
"317 718 CURVE SMOOTH"
);
}
);
width = 590;
}
);
leftMetricsKey = n;
unicode = 00DF;
},
{
glyphname = t;
lastChange = "2014-11-13 17:29:10 +0000";
layers = (
{
anchors = (
{
name = bottom;
position = "{208, 0}";
},
{
name = center;
position = "{181, 251}";
},
{
name = topright;
position = "{280, 502}";
}
);
background = {
paths = (
{
closed = 1;
nodes = (
"311 -4 LINE",
"294 -7 OFFCURVE",
"275 -8 OFFCURVE",
"248 -8 CURVE SMOOTH",
"146 -8 OFFCURVE",
"104 31 OFFCURVE",
"104 125 CURVE SMOOTH",
"104 432 LINE",
"36 432 LINE",
"36 488 LINE",
"104 502 LINE",
"134 647 LINE",
"188 647 LINE",
"188 502 LINE",
"311 502 LINE",
"311 432 LINE",
"188 432 LINE",
"188 123 LINE SMOOTH",
"188 79 OFFCURVE",
"205 64 OFFCURVE",
"265 64 CURVE SMOOTH",
"283 64 OFFCURVE",
"297 64 OFFCURVE",
"311 66 CURVE"
);
}
);
};
layerId = "0225C979-6A3F-4323-834E-E3153ADD1AE8";
leftMetricsKey = "=n-10";
name = Regular;
paths = (
{
closed = 1;
nodes = (
"275 -8 OFFCURVE",
"294 -7 OFFCURVE",
"311 -4 CURVE",
"311 66 LINE",
"297 64 OFFCURVE",
"283 64 OFFCURVE",
"265 64 CURVE SMOOTH",
"205 64 OFFCURVE",
"188 79 OFFCURVE",
"188 123 CURVE SMOOTH",
"188 432 LINE",
"311 432 LINE",
"311 502 LINE",
"188 502 LINE",
"188 647 LINE",
"134 647 LINE",
"104 502 LINE",
"36 488 LINE",
"36 432 LINE",
"104 432 LINE",
"104 125 LINE SMOOTH",
"104 31 OFFCURVE",
"146 -8 OFFCURVE",
"248 -8 CURVE SMOOTH"
);
}
);
width = 361;
}
);
leftMetricsKey = "=f-5";
unicode = 0074;
},
{
glyphname = u;
lastChange = "2014-11-05 19:13:04 +0000";
layers = (
{
anchors = (
{
name = ogonek;
position = "{530, 10}";
},
{
name = top;
position = "{327, 502}";
}
);
background = {
paths = (
{
closed = 1;
nodes = (
"398 502 LINE",
"398 447 LINE",
"466 419 LINE",
"466 100 LINE",
"396 75 OFFCURVE",
"351 59 OFFCURVE",
"300 59 CURVE SMOOTH",
"229 59 OFFCURVE",
"188 90 OFFCURVE",
"188 171 CURVE SMOOTH",
"188 502 LINE",
"36 502 LINE",
"36 447 LINE",
"104 417 LINE",
"104 182 LINE SMOOTH",
"104 40 OFFCURVE",
"146 -14 OFFCURVE",
"273 -14 CURVE SMOOTH",
"347 -14 OFFCURVE",
"416 5 OFFCURVE",
"509 56 CURVE",
"471 56 LINE",
"507 0 LINE",
"618 0 LINE",
"618 57 LINE",
"550 85 LINE",
"550 502 LINE"
);
}
);
};
layerId = "0225C979-6A3F-4323-834E-E3153ADD1AE8";
leftMetricsKey = "=n-10";
rightMetricsKey = "=n";
name = Regular;
paths = (
{
closed = 1;
nodes = (
"398 502 LINE",
"398 447 LINE",
"466 419 LINE",
"466 100 LINE",
"396 75 OFFCURVE",
"351 59 OFFCURVE",
"300 59 CURVE SMOOTH",
"229 59 OFFCURVE",
"188 90 OFFCURVE",
"188 171 CURVE SMOOTH",
"188 502 LINE",
"36 502 LINE",
"36 447 LINE",
"104 417 LINE",
"104 182 LINE SMOOTH",
"104 40 OFFCURVE",
"146 -14 OFFCURVE",
"273 -14 CURVE SMOOTH",
"347 -14 OFFCURVE",
"416 5 OFFCURVE",
"509 56 CURVE",
"471 56 LINE",
"507 0 LINE",
"618 0 LINE",
"618 57 LINE",
"550 85 LINE",
"550 502 LINE"
);
}
);
width = 653;
}
);
leftMetricsKey = "=i-5";
rightMetricsKey = i;
unicode = 0075;
},
{
glyphname = v;
lastChange = "2014-11-05 19:13:04 +0000";
layers = (
{
background = {
paths = (
{
closed = 1;
nodes = (
"579 502 LINE",
"378 502 LINE",
"378 446 LINE",
"446 419 LINE",
"288 38 LINE",
"318 38 LINE",
"160 419 LINE",
"228 446 LINE",
"228 502 LINE",
"10 502 LINE",
"10 446 LINE",
"68 418 LINE",
"247 0 LINE",
"343 0 LINE",
"521 418 LINE",
"579 446 LINE"
);
}
);
};
layerId = "0225C979-6A3F-4323-834E-E3153ADD1AE8";
name = Regular;
paths = (
{
closed = 1;
nodes = (
"579 502 LINE",
"378 502 LINE",
"378 446 LINE",
"446 419 LINE",
"288 38 LINE",
"318 38 LINE",
"160 419 LINE",
"228 446 LINE",
"228 502 LINE",
"10 502 LINE",
"10 446 LINE",
"68 418 LINE",
"247 0 LINE",
"343 0 LINE",
"521 418 LINE",
"579 446 LINE"
);
}
);
width = 589;
}
);
unicode = 0076;
},
{
glyphname = w;
lastChange = "2014-11-05 19:13:04 +0000";
layers = (
{
anchors = (
{
name = top;
position = "{411, 502}";
}
);
background = {
paths = (
{
closed = 1;
nodes = (
"613 502 LINE",
"613 445 LINE",
"681 417 LINE",
"570 67 LINE",
"584 67 LINE",
"466 468 LINE",
"369 468 LINE",
"251 65 LINE",
"265 65 LINE",
"155 417 LINE",
"223 445 LINE",
"223 502 LINE",
"10 502 LINE",
"10 445 LINE",
"68 417 LINE",
"202 0 LINE",
"304 0 LINE",
"431 432 LINE",
"391 432 LINE",
"518 0 LINE",
"620 0 LINE",
"754 417 LINE",
"812 445 LINE",
"812 502 LINE"
);
}
);
};
layerId = "0225C979-6A3F-4323-834E-E3153ADD1AE8";
name = Regular;
paths = (
{
closed = 1;
nodes = (
"613 502 LINE",
"613 445 LINE",
"681 417 LINE",
"570 67 LINE",
"584 67 LINE",
"466 468 LINE",
"369 468 LINE",
"251 65 LINE",
"265 65 LINE",
"155 417 LINE",
"223 445 LINE",
"223 502 LINE",
"10 502 LINE",
"10 445 LINE",
"68 417 LINE",
"202 0 LINE",
"304 0 LINE",
"431 432 LINE",
"391 432 LINE",
"518 0 LINE",
"620 0 LINE",
"754 417 LINE",
"812 445 LINE",
"812 502 LINE"
);
}
);
width = 822;
}
);
unicode = 0077;
},
{
glyphname = x;
lastChange = "2014-11-05 19:13:04 +0000";
layers = (
{
background = {
guideLines = (
{
angle = 134.375;
position = "{505, 357}";
showMeasurement = 1;
}
);
paths = (
{
closed = 1;
nodes = (
"25 502 LINE",
"25 445 LINE",
"83 417 LINE",
"437 85 LINE",
"369 55 LINE",
"369 0 LINE",
"611 0 LINE",
"611 55 LINE",
"551 85 LINE",
"198 417 LINE",
"266 445 LINE",
"266 502 LINE"
);
},
{
closed = 1;
nodes = (
"85 85 LINE",
"25 55 LINE",
"25 0 LINE",
"253 0 LINE",
"253 55 LINE",
"185 85 LINE",
"319 216 LINE",
"272 260 LINE"
);
},
{
closed = 1;
nodes = (
"385 502 LINE",
"385 445 LINE",
"453 417 LINE",
"317 286 LINE",
"363 241 LINE",
"553 417 LINE",
"611 445 LINE",
"611 502 LINE"
);
}
);
};
guideLines = (
{
angle = 46.8368;
position = "{179, 250}";
showMeasurement = 1;
},
{
angle = 133.274;
position = "{124, 155}";
showMeasurement = 1;
}
);
layerId = "0225C979-6A3F-4323-834E-E3153ADD1AE8";
name = Regular;
paths = (
{
closed = 1;
nodes = (
"25 502 LINE",
"25 445 LINE",
"83 417 LINE",
"437 85 LINE",
"369 55 LINE",
"369 0 LINE",
"611 0 LINE",
"611 55 LINE",
"551 85 LINE",
"198 417 LINE",
"266 445 LINE",
"266 502 LINE"
);
},
{
closed = 1;
nodes = (
"85 85 LINE",
"25 55 LINE",
"25 0 LINE",
"253 0 LINE",
"253 55 LINE",
"185 85 LINE",
"319 216 LINE",
"272 260 LINE"
);
},
{
closed = 1;
nodes = (
"385 502 LINE",
"385 445 LINE",
"453 417 LINE",
"317 286 LINE",
"363 241 LINE",
"553 417 LINE",
"611 445 LINE",
"611 502 LINE"
);
}
);
width = 636;
}
);
unicode = 0078;
},
{
glyphname = y;
lastChange = "2014-11-05 19:13:04 +0000";
layers = (
{
anchors = (
{
name = top;
position = "{329, 502}";
}
);
background = {
paths = (
{
closed = 1;
nodes = (
"389 502 LINE",
"389 446 LINE",
"470 419 LINE",
"303 38 LINE",
"354 38 LINE",
"184 419 LINE",
"265 446 LINE",
"265 502 LINE",
"10 502 LINE",
"10 446 LINE",
"92 418 LINE",
"304 -45 LINE",
"294 22 LINE",
"223 -138 OFFCURVE",
"197 -153 OFFCURVE",
"124 -153 CURVE SMOOTH",
"101 -153 OFFCURVE",
"76 -152 OFFCURVE",
"51 -150 CURVE",
"51 -224 LINE",
"71 -224 LINE SMOOTH",
"219 -224 OFFCURVE",
"275 -185 OFFCURVE",
"324 -75 CURVE SMOOTH",
"545 418 LINE",
"627 446 LINE",
"627 502 LINE"
);
}
);
};
guideLines = (
{
angle = 90;
position = "{10, 976}";
},
{
angle = 90;
position = "{92, -320}";
},
{
angle = 90;
position = "{51, 976}";
}
);
layerId = "0225C979-6A3F-4323-834E-E3153ADD1AE8";
leftMetricsKey = "=v";
rightMetricsKey = "=v";
name = Regular;
paths = (
{
closed = 1;
nodes = (
"389 502 LINE",
"389 446 LINE",
"470 419 LINE",
"303 38 LINE",
"354 38 LINE",
"184 419 LINE",
"265 446 LINE",
"265 502 LINE",
"10 502 LINE",
"10 446 LINE",
"92 418 LINE",
"304 -45 LINE",
"294 22 LINE",
"223 -138 OFFCURVE",
"197 -153 OFFCURVE",
"124 -153 CURVE SMOOTH",
"101 -153 OFFCURVE",
"76 -152 OFFCURVE",
"51 -150 CURVE",
"51 -224 LINE",
"71 -224 LINE SMOOTH",
"219 -224 OFFCURVE",
"275 -185 OFFCURVE",
"324 -75 CURVE SMOOTH",
"545 418 LINE",
"627 446 LINE",
"627 502 LINE"
);
}
);
width = 637;
}
);
leftMetricsKey = v;
rightMetricsKey = v;
unicode = 0079;
},
{
glyphname = z;
lastChange = "2014-11-05 22:30:39 +0000";
layers = (
{
anchors = (
{
name = top;
position = "{290, 502}";
}
);
background = {
paths = (
{
closed = 1;
nodes = (
"53 502 LINE",
"53 347 LINE",
"105 347 LINE",
"126 432 LINE",
"431 432 LINE",
"431 442 LINE",
"50 77 LINE",
"50 0 LINE",
"533 0 LINE",
"533 155 LINE",
"481 155 LINE",
"462 70 LINE",
"145 70 LINE",
"145 60 LINE",
"526 425 LINE",
"526 502 LINE"
);
}
);
};
guideLines = (
{
angle = 133.771;
position = "{366, 216}";
showMeasurement = 1;
}
);
layerId = "0225C979-6A3F-4323-834E-E3153ADD1AE8";
name = Regular;
paths = (
{
closed = 1;
nodes = (
"53 502 LINE",
"53 347 LINE",
"105 347 LINE",
"126 432 LINE",
"431 432 LINE",
"431 442 LINE",
"50 77 LINE",
"50 0 LINE",
"533 0 LINE",
"533 155 LINE",
"481 155 LINE",
"462 70 LINE",
"145 70 LINE",
"145 60 LINE",
"526 425 LINE",
"526 502 LINE"
);
}
);
width = 583;
}
);
unicode = 007A;
},
{
glyphname = f_f;
lastChange = "2014-11-11 02:54:49 +0000";
layers = (
{
anchors = (
{
name = bottom;
position = "{337, 0}";
},
{
name = top;
position = "{337, 502}";
}
);
background = {
paths = (
{
closed = 0;
nodes = (
"457 85 LINE",
"389 55 LINE",
"389 0 LINE",
"609 0 LINE",
"609 55 LINE",
"541 85 LINE"
);
}
);
};
guideLines = (
{
angle = 90;
position = "{1086, 184}";
}
);
layerId = "0225C979-6A3F-4323-834E-E3153ADD1AE8";
name = Regular;
paths = (
{
closed = 1;
nodes = (
"291 0 LINE",
"291 55 LINE",
"198 85 LINE",
"198 432 LINE",
"466 432 LINE",
"466 85 LINE",
"398 55 LINE",
"398 0 LINE",
"643 0 LINE",
"643 55 LINE",
"550 85 LINE",
"550 432 LINE",
"643 432 LINE",
"643 502 LINE",
"550 502 LINE",
"550 576 LINE SMOOTH",
"550 625 OFFCURVE",
"574 656 OFFCURVE",
"631 656 CURVE",
"658 597 LINE",
"710 597 OFFCURVE",
"729 616 OFFCURVE",
"729 651 CURVE SMOOTH",
"729 697 OFFCURVE",
"704 718 OFFCURVE",
"642 718 CURVE SMOOTH",
"529 718 OFFCURVE",
"466 664 OFFCURVE",
"466 550 CURVE SMOOTH",
"466 502 LINE",
"198 502 LINE",
"198 576 LINE SMOOTH",
"198 625 OFFCURVE",
"222 656 OFFCURVE",
"279 656 CURVE",
"306 597 LINE",
"358 597 OFFCURVE",
"377 616 OFFCURVE",
"377 651 CURVE SMOOTH",
"377 697 OFFCURVE",
"352 718 OFFCURVE",
"290 718 CURVE SMOOTH",
"177 718 OFFCURVE",
"114 664 OFFCURVE",
"114 550 CURVE SMOOTH",
"114 502 LINE",
"46 488 LINE",
"46 432 LINE",
"114 432 LINE",
"114 85 LINE",
"46 55 LINE",
"46 0 LINE"
);
}
);
width = 694;
}
);
leftMetricsKey = f;
rightMetricsKey = f;
},
{
glyphname = f_f_i;
lastChange = "2014-11-11 02:54:49 +0000";
layers = (
{
background = {
paths = (
{
closed = 1;
nodes = (
"529 718 OFFCURVE",
"466 664 OFFCURVE",
"466 550 CURVE SMOOTH",
"466 502 LINE",
"398 488 LINE",
"398 432 LINE",
"466 432 LINE",
"466 85 LINE",
"398 55 LINE",
"398 0 LINE",
"643 0 LINE",
"643 55 LINE",
"550 85 LINE",
"550 432 LINE",
"643 432 LINE",
"643 502 LINE",
"550 502 LINE",
"550 576 LINE SMOOTH",
"550 625 OFFCURVE",
"574 656 OFFCURVE",
"631 656 CURVE",
"658 597 LINE",
"710 597 OFFCURVE",
"729 616 OFFCURVE",
"729 651 CURVE SMOOTH",
"729 697 OFFCURVE",
"704 718 OFFCURVE",
"642 718 CURVE SMOOTH"
);
}
);
};
layerId = "0225C979-6A3F-4323-834E-E3153ADD1AE8";
name = Regular;
paths = (
{
closed = 1;
nodes = (
"291 0 LINE",
"291 55 LINE",
"198 85 LINE",
"198 432 LINE",
"466 432 LINE",
"466 85 LINE",
"398 55 LINE",
"398 0 LINE",
"643 0 LINE",
"643 55 LINE",
"550 85 LINE",
"550 432 LINE",
"818 432 LINE",
"818 85 LINE",
"750 55 LINE",
"750 0 LINE",
"995 0 LINE",
"995 55 LINE",
"902 85 LINE",
"902 502 LINE",
"550 502 LINE",
"550 536 LINE SMOOTH",
"550 628 OFFCURVE",
"578 656 OFFCURVE",
"670 656 CURVE SMOOTH",
"692 656 OFFCURVE",
"703 655 OFFCURVE",
"720 651 CURVE",
"747 592 LINE",
"799 592 OFFCURVE",
"818 611 OFFCURVE",
"818 646 CURVE SMOOTH",
"818 690 OFFCURVE",
"774 718 OFFCURVE",
"680 718 CURVE SMOOTH",
"525 718 OFFCURVE",
"466 663 OFFCURVE",
"466 517 CURVE SMOOTH",
"466 502 LINE",
"198 502 LINE",
"198 576 LINE SMOOTH",
"198 625 OFFCURVE",
"222 656 OFFCURVE",
"279 656 CURVE",
"306 597 LINE",
"358 597 OFFCURVE",
"377 616 OFFCURVE",
"377 651 CURVE SMOOTH",
"377 697 OFFCURVE",
"352 718 OFFCURVE",
"290 718 CURVE SMOOTH",
"177 718 OFFCURVE",
"114 664 OFFCURVE",
"114 550 CURVE SMOOTH",
"114 502 LINE",
"46 488 LINE",
"46 432 LINE",
"114 432 LINE",
"114 85 LINE",
"46 55 LINE",
"46 0 LINE"
);
}
);
width = 1030;
}
);
leftMetricsKey = f;
rightMetricsKey = i;
},
{
glyphname = f_f_l;
lastChange = "2014-11-11 02:54:49 +0000";
layers = (
{
background = {
paths = (
{
closed = 1;
nodes = (
"301 0 LINE",
"301 55 LINE",
"208 85 LINE",
"208 432 LINE",
"466 432 LINE",
"466 85 LINE",
"398 55 LINE",
"398 0 LINE",
"643 0 LINE",
"643 55 LINE",
"550 85 LINE",
"550 432 LINE",
"643 432 LINE",
"643 502 LINE",
"550 502 LINE",
"550 531 LINE SMOOTH",
"550 627 OFFCURVE",
"577 656 OFFCURVE",
"665 656 CURVE SMOOTH",
"684 656 OFFCURVE",
"694 655 OFFCURVE",
"709 651 CURVE",
"736 592 LINE",
"788 592 OFFCURVE",
"807 611 OFFCURVE",
"807 646 CURVE",
"808 646 LINE",
"808 85 LINE",
"740 55 LINE",
"740 0 LINE",
"960 0 LINE",
"960 55 LINE",
"892 85 LINE",
"892 710 LINE",
"749 710 LINE",
"729 715 OFFCURVE",
"705 718 OFFCURVE",
"675 718 CURVE SMOOTH",
"523 718 OFFCURVE",
"466 662 OFFCURVE",
"466 512 CURVE SMOOTH",
"466 502 LINE",
"208 502 LINE",
"208 576 LINE SMOOTH",
"208 625 OFFCURVE",
"232 656 OFFCURVE",
"289 656 CURVE",
"316 597 LINE",
"368 597 OFFCURVE",
"387 616 OFFCURVE",
"387 651 CURVE SMOOTH",
"387 697 OFFCURVE",
"362 718 OFFCURVE",
"300 718 CURVE SMOOTH",
"187 718 OFFCURVE",
"124 664 OFFCURVE",
"124 550 CURVE SMOOTH",
"124 502 LINE",
"56 488 LINE",
"56 432 LINE",
"124 432 LINE",
"124 85 LINE",
"56 55 LINE",
"56 0 LINE"
);
}
);
};
layerId = "0225C979-6A3F-4323-834E-E3153ADD1AE8";
name = Regular;
paths = (
{
closed = 1;
nodes = (
"291 0 LINE",
"291 55 LINE",
"198 85 LINE",
"198 432 LINE",
"466 432 LINE",
"466 85 LINE",
"398 55 LINE",
"398 0 LINE",
"643 0 LINE",
"643 55 LINE",
"550 85 LINE",
"550 432 LINE",
"643 432 LINE",
"643 502 LINE",
"550 502 LINE",
"550 531 LINE SMOOTH",
"550 627 OFFCURVE",
"577 656 OFFCURVE",
"665 656 CURVE SMOOTH",
"684 656 OFFCURVE",
"694 655 OFFCURVE",
"709 651 CURVE",
"736 592 LINE",
"788 592 OFFCURVE",
"805 611 OFFCURVE",
"807 641 CURVE",
"808 641 LINE",
"808 85 LINE",
"740 55 LINE",
"740 0 LINE",
"960 0 LINE",
"960 55 LINE",
"892 85 LINE",
"892 710 LINE",
"749 710 LINE",
"729 715 OFFCURVE",
"705 718 OFFCURVE",
"675 718 CURVE SMOOTH",
"523 718 OFFCURVE",
"466 662 OFFCURVE",
"466 512 CURVE SMOOTH",
"466 502 LINE",
"198 502 LINE",
"198 576 LINE SMOOTH",
"198 625 OFFCURVE",
"222 656 OFFCURVE",
"279 656 CURVE",
"306 597 LINE",
"358 597 OFFCURVE",
"377 616 OFFCURVE",
"377 651 CURVE SMOOTH",
"377 697 OFFCURVE",
"352 718 OFFCURVE",
"290 718 CURVE SMOOTH",
"177 718 OFFCURVE",
"114 664 OFFCURVE",
"114 550 CURVE SMOOTH",
"114 502 LINE",
"46 488 LINE",
"46 432 LINE",
"114 432 LINE",
"114 85 LINE",
"46 55 LINE",
"46 0 LINE"
);
}
);
width = 995;
}
);
leftMetricsKey = f;
rightMetricsKey = l;
},
{
glyphname = f_i;
lastChange = "2014-11-11 02:54:49 +0000";
layers = (
{
background = {
guideLines = (
{
angle = 114.59;
position = "{306, 597}";
}
);
paths = (
{
closed = 1;
nodes = (
"291 0 LINE",
"291 55 LINE",
"198 85 LINE",
"198 432 LINE",
"466 432 LINE",
"466 85 LINE",
"398 55 LINE",
"398 0 LINE",
"643 0 LINE",
"643 55 LINE",
"550 85 LINE",
"550 502 LINE",
"198 502 LINE",
"198 531 LINE SMOOTH",
"198 626.536 OFFCURVE",
"226 656 OFFCURVE",
"318 656 CURVE SMOOTH",
"340 656 OFFCURVE",
"351 655 OFFCURVE",
"368 651 CURVE",
"395 592 LINE",
"447 592 OFFCURVE",
"466 611 OFFCURVE",
"466 646 CURVE SMOOTH",
"466 690 OFFCURVE",
"422 718 OFFCURVE",
"328 718 CURVE SMOOTH",
"173.443 718 OFFCURVE",
"114 662 OFFCURVE",
"114 512 CURVE SMOOTH",
"114 502 LINE",
"46 488 LINE",
"46 432 LINE",
"114 432 LINE",
"114 85 LINE",
"46 55 LINE",
"46 0 LINE"
);
}
);
};
guideLines = (
{
angle = 114.59;
position = "{395, 592}";
},
{
angle = 90;
position = "{466, 432}";
}
);
layerId = "0225C979-6A3F-4323-834E-E3153ADD1AE8";
name = Regular;
paths = (
{
closed = 1;
nodes = (
"291 0 LINE",
"291 55 LINE",
"198 85 LINE",
"198 432 LINE",
"466 432 LINE",
"466 85 LINE",
"398 55 LINE",
"398 0 LINE",
"653 0 LINE",
"653 55 LINE",
"550 85 LINE",
"550 502 LINE",
"198 502 LINE",
"198 531 LINE SMOOTH",
"198 627 OFFCURVE",
"226 656 OFFCURVE",
"318 656 CURVE SMOOTH",
"340 656 OFFCURVE",
"351 655 OFFCURVE",
"368 651 CURVE",
"395 592 LINE",
"447 592 OFFCURVE",
"466 611 OFFCURVE",
"466 646 CURVE SMOOTH",
"466 690 OFFCURVE",
"422 718 OFFCURVE",
"328 718 CURVE SMOOTH",
"173 718 OFFCURVE",
"114 662 OFFCURVE",
"114 512 CURVE SMOOTH",
"114 502 LINE",
"46 488 LINE",
"46 432 LINE",
"114 432 LINE",
"114 85 LINE",
"46 55 LINE",
"46 0 LINE"
);
}
);
width = 688;
}
);
leftMetricsKey = f;
rightMetricsKey = i;
},
{
glyphname = f_l;
lastChange = "2014-11-11 02:54:49 +0000";
layers = (
{
anchors = (
{
name = bottom;
position = "{498, 0}";
},
{
name = top;
position = "{498, 680}";
},
{
name = topright;
position = "{623, 502}";
}
);
background = {
paths = (
{
closed = 1;
nodes = (
"291 0 LINE",
"291 55 LINE",
"198 85 LINE",
"198 432 LINE",
"291 432 LINE",
"291 502 LINE",
"198 502 LINE",
"198 531 LINE SMOOTH",
"198 627 OFFCURVE",
"225 656 OFFCURVE",
"313 656 CURVE SMOOTH",
"336 656 OFFCURVE",
"346 655 OFFCURVE",
"361 651 CURVE",
"388 592 LINE",
"440 592 OFFCURVE",
"459 611 OFFCURVE",
"459 646 CURVE",
"456 646 LINE",
"456 85 LINE",
"388 55 LINE",
"388 0 LINE",
"608 0 LINE",
"608 55 LINE",
"540 85 LINE",
"540 710 LINE",
"397 710 LINE",
"377 715 OFFCURVE",
"353 718 OFFCURVE",
"323 718 CURVE SMOOTH",
"171 718 OFFCURVE",
"114 662 OFFCURVE",
"114 512 CURVE SMOOTH",
"114 502 LINE",
"46 488 LINE",
"46 432 LINE",
"114 432 LINE",
"114 85 LINE",
"46 55 LINE",
"46 0 LINE"
);
}
);
};
layerId = "0225C979-6A3F-4323-834E-E3153ADD1AE8";
name = Regular;
paths = (
{
closed = 1;
nodes = (
"291 0 LINE",
"291 55 LINE",
"198 85 LINE",
"198 432 LINE",
"291 432 LINE",
"291 502 LINE",
"198 502 LINE",
"198 531 LINE SMOOTH",
"198 627 OFFCURVE",
"225 656 OFFCURVE",
"313 656 CURVE SMOOTH",
"332 656 OFFCURVE",
"342 655 OFFCURVE",
"357 651 CURVE",
"384 592 LINE",
"436 592 OFFCURVE",
"453 611 OFFCURVE",
"455 641 CURVE",
"456 641 LINE",
"456 85 LINE",
"388 55 LINE",
"388 0 LINE",
"608 0 LINE",
"608 55 LINE",
"540 85 LINE",
"540 710 LINE",
"397 710 LINE",
"377 715 OFFCURVE",
"353 718 OFFCURVE",
"323 718 CURVE SMOOTH",
"171 718 OFFCURVE",
"114 662 OFFCURVE",
"114 512 CURVE SMOOTH",
"114 502 LINE",
"46 488 LINE",
"46 432 LINE",
"114 432 LINE",
"114 85 LINE",
"46 55 LINE",
"46 0 LINE"
);
}
);
width = 643;
}
);
leftMetricsKey = f;
rightMetricsKey = l;
},
{
color = 0;
glyphname = ordfeminine;
lastChange = "2014-11-11 02:54:45 +0000";
layers = (
{
anchors = (
{
name = ogonek;
position = "{453, 10}";
},
{
name = top;
position = "{262, 484}";
}
);
background = {
paths = (
{
closed = 1;
nodes = (
"186 692 OFFCURVE",
"123 682 OFFCURVE",
"65 669 CURVE",
"65 598 LINE",
"126 613 OFFCURVE",
"185 621 OFFCURVE",
"249 621 CURVE SMOOTH",
"345 621 OFFCURVE",
"368 592 OFFCURVE",
"368 509 CURVE SMOOTH",
"368 473 LINE",
"345 486 OFFCURVE",
"303 500 OFFCURVE",
"245 500 CURVE SMOOTH",
"102 500 OFFCURVE",
"40 452 OFFCURVE",
"40 341 CURVE SMOOTH",
"40 235 OFFCURVE",
"95 192 OFFCURVE",
"205 192 CURVE SMOOTH",
"280 192 OFFCURVE",
"338 221 OFFCURVE",
"390 286 CURVE",
"368 286 LINE",
"398 201 LINE",
"510 201 LINE",
"510 255 LINE",
"450 284 LINE",
"450 526 LINE SMOOTH",
"450 635 OFFCURVE",
"428 692 OFFCURVE",
"253 692 CURVE SMOOTH"
);
},
{
closed = 1;
nodes = (
"288 432 OFFCURVE",
"332 429 OFFCURVE",
"368 418 CURVE",
"368 323 LINE",
"328 286 OFFCURVE",
"277 262 OFFCURVE",
"222 262 CURVE SMOOTH",
"148 262 OFFCURVE",
"126 288 OFFCURVE",
"126 347 CURVE SMOOTH",
"126 403 OFFCURVE",
"153 432 OFFCURVE",
"254 432 CURVE SMOOTH"
);
}
);
};
layerId = "0225C979-6A3F-4323-834E-E3153ADD1AE8";
name = Regular;
paths = (
{
closed = 1;
nodes = (
"186 692 OFFCURVE",
"123 682 OFFCURVE",
"65 669 CURVE",
"65 598 LINE",
"126 613 OFFCURVE",
"185 621 OFFCURVE",
"249 621 CURVE SMOOTH",
"345 621 OFFCURVE",
"368 592 OFFCURVE",
"368 509 CURVE SMOOTH",
"368 473 LINE",
"345 486 OFFCURVE",
"303 500 OFFCURVE",
"245 500 CURVE SMOOTH",
"102 500 OFFCURVE",
"40 452 OFFCURVE",
"40 341 CURVE SMOOTH",
"40 235 OFFCURVE",
"95 192 OFFCURVE",
"205 192 CURVE SMOOTH",
"280 192 OFFCURVE",
"338 221 OFFCURVE",
"390 286 CURVE",
"368 286 LINE",
"398 201 LINE",
"510 201 LINE",
"510 255 LINE",
"450 284 LINE",
"450 526 LINE SMOOTH",
"450 635 OFFCURVE",
"428 692 OFFCURVE",
"253 692 CURVE SMOOTH"
);
},
{
closed = 1;
nodes = (
"288 432 OFFCURVE",
"332 429 OFFCURVE",
"368 418 CURVE",
"368 323 LINE",
"328 286 OFFCURVE",
"277 262 OFFCURVE",
"222 262 CURVE SMOOTH",
"148 262 OFFCURVE",
"126 288 OFFCURVE",
"126 347 CURVE SMOOTH",
"126 403 OFFCURVE",
"153 432 OFFCURVE",
"254 432 CURVE SMOOTH"
);
}
);
width = 539;
}
);
unicode = 00AA;
},
{
color = 0;
glyphname = ordmasculine;
lastChange = "2014-11-11 02:54:45 +0000";
layers = (
{
anchors = (
{
name = top;
position = "{262, 484}";
}
);
background = {
paths = (
{
closed = 1;
nodes = (
"134 692 OFFCURVE",
"34 625 OFFCURVE",
"34 440 CURVE SMOOTH",
"34 254 OFFCURVE",
"133 188 OFFCURVE",
"260 188 CURVE SMOOTH",
"385 188 OFFCURVE",
"484 254 OFFCURVE",
"484 440 CURVE SMOOTH",
"484 625 OFFCURVE",
"384 692 OFFCURVE",
"260 692 CURVE SMOOTH"
);
},
{
closed = 1;
nodes = (
"355 621 OFFCURVE",
"398 582 OFFCURVE",
"398 440 CURVE SMOOTH",
"398 298 OFFCURVE",
"355 258 OFFCURVE",
"260 258 CURVE SMOOTH",
"163 258 OFFCURVE",
"121 298 OFFCURVE",
"121 440 CURVE SMOOTH",
"121 582 OFFCURVE",
"163 621 OFFCURVE",
"260 621 CURVE SMOOTH"
);
}
);
};
layerId = "0225C979-6A3F-4323-834E-E3153ADD1AE8";
name = Regular;
paths = (
{
closed = 1;
nodes = (
"134 692 OFFCURVE",
"34 625 OFFCURVE",
"34 440 CURVE SMOOTH",
"34 254 OFFCURVE",
"133 188 OFFCURVE",
"260 188 CURVE SMOOTH",
"385 188 OFFCURVE",
"484 254 OFFCURVE",
"484 440 CURVE SMOOTH",
"484 625 OFFCURVE",
"384 692 OFFCURVE",
"260 692 CURVE SMOOTH"
);
},
{
closed = 1;
nodes = (
"355 621 OFFCURVE",
"398 582 OFFCURVE",
"398 440 CURVE SMOOTH",
"398 298 OFFCURVE",
"355 258 OFFCURVE",
"260 258 CURVE SMOOTH",
"163 258 OFFCURVE",
"121 298 OFFCURVE",
"121 440 CURVE SMOOTH",
"121 582 OFFCURVE",
"163 621 OFFCURVE",
"260 621 CURVE SMOOTH"
);
}
);
width = 518;
}
);
unicode = 00BA;
},
{
glyphname = Delta;
lastChange = "2014-11-11 02:54:53 +0000";
layers = (
{
background = {
paths = (
{
closed = 1;
nodes = (
"270 680 LINE",
"10 55 LINE",
"10 0 LINE",
"652 0 LINE",
"652 55 LINE",
"385 680 LINE"
);
},
{
closed = 1;
nodes = (
"563 52 LINE",
"565 71 LINE",
"72 71 LINE",
"89 52 LINE",
"335 643 LINE",
"310 643 LINE"
);
}
);
};
guideLines = (
{
position = "{189, 64}";
}
);
layerId = "0225C979-6A3F-4323-834E-E3153ADD1AE8";
name = Regular;
paths = (
{
closed = 1;
nodes = (
"270 680 LINE",
"10 55 LINE",
"10 0 LINE",
"652 0 LINE",
"652 55 LINE",
"385 680 LINE"
);
},
{
closed = 1;
nodes = (
"563 52 LINE",
"565 71 LINE",
"72 71 LINE",
"89 52 LINE",
"335 643 LINE",
"310 643 LINE"
);
}
);
width = 662;
}
);
unicode = 0394;
},
{
glyphname = Omega;
lastChange = "2014-11-11 02:54:53 +0000";
layers = (
{
background = {
paths = (
{
closed = 1;
nodes = (
"185 692 OFFCURVE",
"75 593 OFFCURVE",
"75 421 CURVE SMOOTH",
"75 278 OFFCURVE",
"149 192 OFFCURVE",
"248 162 CURVE",
"248 71 LINE",
"74 71 LINE",
"97 51 LINE",
"78 156 LINE",
"25 156 LINE",
"25 0 LINE",
"324 0 LINE",
"324 210 LINE",
"208 232 OFFCURVE",
"165 312 OFFCURVE",
"165 419 CURVE SMOOTH",
"165 559 OFFCURVE",
"240 618 OFFCURVE",
"374 618 CURVE SMOOTH",
"508 618 OFFCURVE",
"583 559 OFFCURVE",
"583 419 CURVE SMOOTH",
"583 312 OFFCURVE",
"540 232 OFFCURVE",
"424 210 CURVE",
"424 0 LINE",
"723 0 LINE",
"723 156 LINE",
"670 156 LINE",
"651 51 LINE",
"674 71 LINE",
"500 71 LINE",
"500 162 LINE",
"599 192 OFFCURVE",
"673 278 OFFCURVE",
"673 421 CURVE SMOOTH",
"673 593 OFFCURVE",
"564 692 OFFCURVE",
"374 692 CURVE SMOOTH"
);
}
);
};
layerId = "0225C979-6A3F-4323-834E-E3153ADD1AE8";
name = Regular;
paths = (
{
closed = 1;
nodes = (
"185 692 OFFCURVE",
"75 593 OFFCURVE",
"75 421 CURVE SMOOTH",
"75 278 OFFCURVE",
"149 192 OFFCURVE",
"248 162 CURVE",
"248 71 LINE",
"74 71 LINE",
"97 51 LINE",
"78 156 LINE",
"25 156 LINE",
"25 0 LINE",
"324 0 LINE",
"324 210 LINE",
"208 232 OFFCURVE",
"165 312 OFFCURVE",
"165 419 CURVE SMOOTH",
"165 559 OFFCURVE",
"240 618 OFFCURVE",
"374 618 CURVE SMOOTH",
"508 618 OFFCURVE",
"583 559 OFFCURVE",
"583 419 CURVE SMOOTH",
"583 312 OFFCURVE",
"540 232 OFFCURVE",
"424 210 CURVE",
"424 0 LINE",
"723 0 LINE",
"723 156 LINE",
"670 156 LINE",
"651 51 LINE",
"674 71 LINE",
"500 71 LINE",
"500 162 LINE",
"599 192 OFFCURVE",
"673 278 OFFCURVE",
"673 421 CURVE SMOOTH",
"673 593 OFFCURVE",
"564 692 OFFCURVE",
"374 692 CURVE SMOOTH"
);
}
);
width = 748;
}
);
unicode = 03A9;
},
{
glyphname = mu;
lastChange = "2014-11-11 02:54:53 +0000";
layers = (
{
anchors = (
{
name = ogonek;
position = "{497, 10}";
},
{
name = top;
position = "{311, 509}";
}
);
background = {
paths = (
{
closed = 1;
nodes = (
"449 502 LINE",
"449 100 LINE",
"379 75 OFFCURVE",
"334 59 OFFCURVE",
"283 59 CURVE SMOOTH",
"212 59 OFFCURVE",
"171 90 OFFCURVE",
"171 171 CURVE SMOOTH",
"171 502 LINE",
"87 502 LINE",
"87 -224 LINE",
"173 -224 LINE",
"173 1 LINE",
"197 -10 OFFCURVE",
"225 -14 OFFCURVE",
"256 -14 CURVE",
"330 -14 OFFCURVE",
"399 5 OFFCURVE",
"492 56 CURVE",
"454 56 LINE",
"490 0 LINE",
"601 0 LINE",
"601 57 LINE",
"533 85 LINE",
"533 502 LINE"
);
}
);
};
guideLines = (
{
angle = 90;
position = "{449, 419}";
}
);
layerId = "0225C979-6A3F-4323-834E-E3153ADD1AE8";
name = Regular;
paths = (
{
closed = 1;
nodes = (
"449 502 LINE",
"449 100 LINE",
"379 75 OFFCURVE",
"334 59 OFFCURVE",
"283 59 CURVE SMOOTH",
"212 59 OFFCURVE",
"171 90 OFFCURVE",
"171 171 CURVE SMOOTH",
"171 502 LINE",
"87 502 LINE",
"87 -224 LINE",
"173 -224 LINE",
"173 1 LINE",
"197 -10 OFFCURVE",
"225 -14 OFFCURVE",
"256 -14 CURVE",
"330 -14 OFFCURVE",
"399 5 OFFCURVE",
"492 56 CURVE",
"454 56 LINE",
"490 0 LINE",
"601 0 LINE",
"601 57 LINE",
"533 85 LINE",
"533 502 LINE"
);
}
);
width = 620;
}
);
unicode = 03BC;
},
{
glyphname = pi;
lastChange = "2014-11-11 02:54:53 +0000";
layers = (
{
background = {
paths = (
{
closed = 1;
nodes = (
"46 502 LINE",
"46 446 LINE",
"114 417 LINE",
"114 0 LINE",
"198 0 LINE",
"198 432 LINE",
"454 432 LINE",
"454 150 LINE SMOOTH",
"454 35 OFFCURVE",
"512 -8 OFFCURVE",
"604 -8 CURVE SMOOTH",
"667 -8 OFFCURVE",
"693 13 OFFCURVE",
"693 57 CURVE SMOOTH",
"693 94 OFFCURVE",
"675 113 OFFCURVE",
"622 113 CURVE",
"600 64 LINE",
"560 64 OFFCURVE",
"538 86 OFFCURVE",
"538 134 CURVE SMOOTH",
"538 432 LINE",
"668 432 LINE",
"668 502 LINE"
);
}
);
};
guideLines = (
{
position = "{997, 944}";
},
{
angle = 245.41;
position = "{632, 113}";
}
);
layerId = "0225C979-6A3F-4323-834E-E3153ADD1AE8";
leftMetricsKey = "=n";
name = Regular;
paths = (
{
closed = 1;
nodes = (
"46 502 LINE",
"46 446 LINE",
"114 417 LINE",
"114 0 LINE",
"198 0 LINE",
"198 432 LINE",
"454 432 LINE",
"454 150 LINE SMOOTH",
"454 35 OFFCURVE",
"512 -8 OFFCURVE",
"604 -8 CURVE SMOOTH",
"667 -8 OFFCURVE",
"693 13 OFFCURVE",
"693 57 CURVE SMOOTH",
"693 94 OFFCURVE",
"675 113 OFFCURVE",
"622 113 CURVE",
"600 64 LINE",
"560 64 OFFCURVE",
"538 86 OFFCURVE",
"538 134 CURVE SMOOTH",
"538 432 LINE",
"668 432 LINE",
"668 502 LINE"
);
}
);
width = 718;
}
);
leftMetricsKey = n;
unicode = 03C0;
},
{
glyphname = "a-deva";
lastChange = "2014-11-19 23:12:07 +0000";
layers = (
{
anchors = (
{
name = bottom;
position = "{647, 0}";
},
{
name = nukta;
position = "{35, 0}";
},
{
name = top;
position = "{647, 680}";
}
);
background = {
paths = (
{
closed = 1;
nodes = (
"174 688 OFFCURVE",
"122 682 OFFCURVE",
"78 670 CURVE",
"78 591 LINE",
"121 602 OFFCURVE",
"174 608 OFFCURVE",
"223 608 CURVE SMOOTH",
"317 608 OFFCURVE",
"330 588 OFFCURVE",
"330 518 CURVE SMOOTH",
"330 443 OFFCURVE",
"306 422 OFFCURVE",
"236 422 CURVE SMOOTH",
"127 422 LINE",
"127 346 LINE",
"236 346 LINE SMOOTH",
"314 346 OFFCURVE",
"341 330 OFFCURVE",
"341 243 CURVE SMOOTH",
"341 160 OFFCURVE",
"305 134 OFFCURVE",
"191 134 CURVE SMOOTH",
"124 134 OFFCURVE",
"83 146 OFFCURVE",
"35 165 CURVE",
"35 85 LINE",
"73 69 OFFCURVE",
"133 54 OFFCURVE",
"213 54 CURVE SMOOTH",
"355 54 OFFCURVE",
"415 107 OFFCURVE",
"415 214 CURVE SMOOTH",
"415 307 OFFCURVE",
"374 365 OFFCURVE",
"302 398 CURVE",
"293 363 LINE",
"354 380 OFFCURVE",
"404 430 OFFCURVE",
"404 526 CURVE SMOOTH",
"404 638 OFFCURVE",
"359 688 OFFCURVE",
"223 688 CURVE SMOOTH"
);
},
{
closed = 1;
nodes = (
"612 616 LINE",
"612 0 LINE",
"682 0 LINE",
"682 616 LINE"
);
},
{
closed = 1;
nodes = (
"476 680 LINE",
"476 606 LINE",
"788 606 LINE",
"788 680 LINE"
);
},
{
closed = 1;
nodes = (
"622 386 LINE",
"572 369 OFFCURVE",
"534 364 OFFCURVE",
"494 364 CURVE SMOOTH",
"429 364 OFFCURVE",
"383 377 OFFCURVE",
"323 410 CURVE",
"323 361 LINE",
"384 305 OFFCURVE",
"433 288 OFFCURVE",
"503 288 CURVE SMOOTH",
"540 288 OFFCURVE",
"577 292 OFFCURVE",
"622 304 CURVE"
);
}
);
};
guideLines = (
{
position = "{236, 346}";
},
{
position = "{236, 422}";
}
);
layerId = "0225C979-6A3F-4323-834E-E3153ADD1AE8";
name = Regular;
paths = (
{
closed = 1;
nodes = (
"174 688 OFFCURVE",
"122 682 OFFCURVE",
"78 670 CURVE",
"78 591 LINE",
"121 602 OFFCURVE",
"174 608 OFFCURVE",
"223 608 CURVE SMOOTH",
"317 608 OFFCURVE",
"330 588 OFFCURVE",
"330 518 CURVE SMOOTH",
"330 443 OFFCURVE",
"306 422 OFFCURVE",
"236 422 CURVE SMOOTH",
"127 422 LINE",
"127 346 LINE",
"236 346 LINE SMOOTH",
"314 346 OFFCURVE",
"341 330 OFFCURVE",
"341 243 CURVE SMOOTH",
"341 160 OFFCURVE",
"305 134 OFFCURVE",
"191 134 CURVE SMOOTH",
"124 134 OFFCURVE",
"83 146 OFFCURVE",
"35 165 CURVE",
"35 85 LINE",
"73 69 OFFCURVE",
"133 54 OFFCURVE",
"213 54 CURVE SMOOTH",
"355 54 OFFCURVE",
"415 107 OFFCURVE",
"415 214 CURVE SMOOTH",
"415 307 OFFCURVE",
"374 365 OFFCURVE",
"302 398 CURVE",
"293 363 LINE",
"354 380 OFFCURVE",
"404 430 OFFCURVE",
"404 526 CURVE SMOOTH",
"404 638 OFFCURVE",
"359 688 OFFCURVE",
"223 688 CURVE SMOOTH"
);
},
{
closed = 1;
nodes = (
"612 616 LINE",
"612 0 LINE",
"682 0 LINE",
"682 616 LINE"
);
},
{
closed = 1;
nodes = (
"476 680 LINE",
"476 606 LINE",
"783 606 LINE",
"783 680 LINE"
);
},
{
closed = 1;
nodes = (
"338 364 LINE",
"362 292 LINE",
"622 292 LINE",
"622 364 LINE"
);
}
);
width = 773;
}
);
rightMetricsKey = "pa-deva";
unicode = 0905;
},
{
glyphname = "i-deva";
lastChange = "2014-11-17 23:49:01 +0000";
layers = (
{
anchors = (
{
name = bottom;
position = "{279, 0}";
},
{
name = top;
position = "{420, 680}";
}
);
background = {
anchors = (
{
name = top;
position = "{419, 680}";
}
);
guideLines = (
{
angle = 90;
position = "{284, -28}";
},
{
angle = 90;
position = "{52, 360}";
}
);
paths = (
{
closed = 1;
nodes = (
"147 -107 LINE",
"147 37 LINE",
"173 61 LINE",
"126 166 LINE",
"72 166 OFFCURVE",
"52 145 OFFCURVE",
"52 104 CURVE SMOOTH",
"52 7 OFFCURVE",
"169 -8 OFFCURVE",
"279 -8 CURVE SMOOTH",
"431 -8 OFFCURVE",
"496 51 OFFCURVE",
"496 167 CURVE SMOOTH",
"496 246 OFFCURVE",
"469 308 OFFCURVE",
"367 308 CURVE SMOOTH",
"308 308 OFFCURVE",
"248 284 OFFCURVE",
"195 284 CURVE SMOOTH",
"147 284 OFFCURVE",
"126 301 OFFCURVE",
"126 355 CURVE SMOOTH",
"126 408 OFFCURVE",
"147 425 OFFCURVE",
"214 425 CURVE SMOOTH",
"456 425 LINE",
"456 616 LINE",
"384 616 LINE",
"384 484 LINE",
"404 501 LINE",
"206 501 LINE SMOOTH",
"94 501 OFFCURVE",
"52 452 OFFCURVE",
"52 360 CURVE SMOOTH",
"52 260 OFFCURVE",
"101 204 OFFCURVE",
"191 204 CURVE SMOOTH",
"246 204 OFFCURVE",
"310 228 OFFCURVE",
"357 228 CURVE SMOOTH",
"404 228 OFFCURVE",
"422 209 OFFCURVE",
"422 161 CURVE SMOOTH",
"422 102 OFFCURVE",
"390 72 OFFCURVE",
"273 72 CURVE SMOOTH",
"223 72 OFFCURVE",
"179 76 OFFCURVE",
"147 85 CURVE",
"77 80 LINE",
"77 -107 LINE"
);
},
{
closed = 0;
nodes = (
"0 606 LINE"
);
},
{
closed = 1;
nodes = (
"558 606 LINE",
"558 680 LINE",
"0 680 LINE",
"0 606 LINE"
);
}
);
};
layerId = "0225C979-6A3F-4323-834E-E3153ADD1AE8";
name = Regular;
paths = (
{
closed = 1;
nodes = (
"147 -107 LINE",
"147 37 LINE",
"173 61 LINE",
"126 166 LINE",
"72 166 OFFCURVE",
"52 145 OFFCURVE",
"52 104 CURVE SMOOTH",
"52 7 OFFCURVE",
"169 -8 OFFCURVE",
"279 -8 CURVE SMOOTH",
"431 -8 OFFCURVE",
"496 51 OFFCURVE",
"496 167 CURVE SMOOTH",
"496 246 OFFCURVE",
"469 308 OFFCURVE",
"367 308 CURVE SMOOTH",
"308 308 OFFCURVE",
"248 284 OFFCURVE",
"195 284 CURVE SMOOTH",
"147 284 OFFCURVE",
"126 301 OFFCURVE",
"126 355 CURVE SMOOTH",
"126 408 OFFCURVE",
"147 425 OFFCURVE",
"214 425 CURVE SMOOTH",
"456 425 LINE",
"456 616 LINE",
"384 616 LINE",
"384 484 LINE",
"404 501 LINE",
"206 501 LINE SMOOTH",
"94 501 OFFCURVE",
"52 452 OFFCURVE",
"52 360 CURVE SMOOTH",
"52 260 OFFCURVE",
"101 204 OFFCURVE",
"191 204 CURVE SMOOTH",
"246 204 OFFCURVE",
"310 228 OFFCURVE",
"357 228 CURVE SMOOTH",
"404 228 OFFCURVE",
"422 209 OFFCURVE",
"422 161 CURVE SMOOTH",
"422 102 OFFCURVE",
"390 72 OFFCURVE",
"273 72 CURVE SMOOTH",
"223 72 OFFCURVE",
"179 76 OFFCURVE",
"147 85 CURVE",
"77 80 LINE",
"77 -107 LINE"
);
},
{
closed = 0;
nodes = (
"0 606 LINE"
);
},
{
closed = 1;
nodes = (
"553 606 LINE",
"553 680 LINE",
"0 680 LINE",
"0 606 LINE"
);
}
);
width = 543;
}
);
unicode = 0907;
},
{
glyphname = "u-deva";
lastChange = "2014-11-19 18:19:05 +0000";
layers = (
{
anchors = (
{
name = bottom;
position = "{243, 0}";
},
{
name = top;
position = "{368, 680}";
}
);
background = {
paths = (
{
closed = 1;
nodes = (
"551 606 LINE",
"551 680 LINE",
"-5 680 LINE",
"-5 606 LINE"
);
},
{
closed = 1;
nodes = (
"338 616 LINE",
"361 587 OFFCURVE",
"371 560 OFFCURVE",
"371 519 CURVE SMOOTH",
"371 443 OFFCURVE",
"345 422 OFFCURVE",
"268 422 CURVE SMOOTH",
"149 422 LINE",
"149 346 LINE",
"268 346 LINE SMOOTH",
"352 346 OFFCURVE",
"382 317 OFFCURVE",
"382 244 CURVE SMOOTH",
"382 161 OFFCURVE",
"344 134 OFFCURVE",
"227 134 CURVE SMOOTH",
"142 134 OFFCURVE",
"96 151 OFFCURVE",
"40 178 CURVE",
"40 100 LINE",
"84 77 OFFCURVE",
"154 54 OFFCURVE",
"243 54 CURVE SMOOTH",
"388 54 OFFCURVE",
"456 110 OFFCURVE",
"456 235 CURVE SMOOTH",
"456 339 OFFCURVE",
"410 387 OFFCURVE",
"325 405 CURVE",
"325 368 LINE",
"400 380 OFFCURVE",
"445 430 OFFCURVE",
"445 522 CURVE SMOOTH",
"445 564 OFFCURVE",
"432 595 OFFCURVE",
"414 616 CURVE"
);
}
);
};
guideLines = (
{
position = "{268, 346}";
},
{
position = "{243, 54}";
},
{
position = "{415, 239}";
}
);
layerId = "0225C979-6A3F-4323-834E-E3153ADD1AE8";
name = Regular;
paths = (
{
closed = 1;
nodes = (
"538 606 LINE",
"538 680 LINE",
"0 680 LINE",
"0 606 LINE"
);
},
{
closed = 1;
nodes = (
"338 616 LINE",
"361 587 OFFCURVE",
"371 560 OFFCURVE",
"371 519 CURVE SMOOTH",
"371 443 OFFCURVE",
"345 422 OFFCURVE",
"268 422 CURVE SMOOTH",
"149 422 LINE",
"149 346 LINE",
"268 346 LINE SMOOTH",
"352 346 OFFCURVE",
"382 317 OFFCURVE",
"382 244 CURVE SMOOTH",
"382 161 OFFCURVE",
"344 134 OFFCURVE",
"227 134 CURVE SMOOTH",
"142 134 OFFCURVE",
"96 151 OFFCURVE",
"40 178 CURVE",
"40 100 LINE",
"84 77 OFFCURVE",
"154 54 OFFCURVE",
"243 54 CURVE SMOOTH",
"388 54 OFFCURVE",
"456 110 OFFCURVE",
"456 235 CURVE SMOOTH",
"456 339 OFFCURVE",
"410 387 OFFCURVE",
"325 405 CURVE",
"325 368 LINE",
"400 380 OFFCURVE",
"445 430 OFFCURVE",
"445 522 CURVE SMOOTH",
"445 564 OFFCURVE",
"432 595 OFFCURVE",
"414 616 CURVE"
);
}
);
width = 528;
}
);
unicode = 0909;
},
{
glyphname = "uu-deva";
lastChange = "2014-11-19 18:19:28 +0000";
layers = (
{
background = {
components = (
{
name = "u-deva";
transform = "{1, 0, 0, 1, 0, 0}";
}
);
guideLines = (
{
position = "{317, 386}";
}
);
paths = (
{
closed = 1;
nodes = (
"676 54 OFFCURVE",
"728 110 OFFCURVE",
"728 217 CURVE SMOOTH",
"728 330 OFFCURVE",
"670 386 OFFCURVE",
"565 386 CURVE SMOOTH",
"464 386 OFFCURVE",
"406 335 OFFCURVE",
"406 234 CURVE",
"461 234 LINE",
"461 283 OFFCURVE",
"500 306 OFFCURVE",
"560 306 CURVE SMOOTH",
"635 306 OFFCURVE",
"654 271 OFFCURVE",
"654 217 CURVE SMOOTH",
"654 156 OFFCURVE",
"630 134 OFFCURVE",
"569 134 CURVE SMOOTH",
"559 134 OFFCURVE",
"547 134 OFFCURVE",
"532 136 CURVE",
"532 58 LINE",
"547 55 OFFCURVE",
"566 54 OFFCURVE",
"579 54 CURVE SMOOTH"
);
},
{
closed = 1;
nodes = (
"748 606 LINE",
"748 680 LINE",
"546 680 LINE",
"546 606 LINE"
);
}
);
};
components = (
{
name = "u-deva";
transform = "{1, 0, 0, 1, 0, 0}";
}
);
guideLines = (
{
position = "{420, 234}";
},
{
position = "{248, 54}";
},
{
position = "{145, 346}";
},
{
angle = 90;
position = "{461, 414}";
},
{
position = "{145, 386}";
},
{
angle = 90;
position = "{557, 414}";
},
{
angle = 90;
position = "{532, 414}";
}
);
layerId = "0225C979-6A3F-4323-834E-E3153ADD1AE8";
name = Regular;
paths = (
{
closed = 1;
nodes = (
"671 54 OFFCURVE",
"723 110 OFFCURVE",
"723 217 CURVE SMOOTH",
"723 330 OFFCURVE",
"665 386 OFFCURVE",
"560 386 CURVE SMOOTH",
"459 386 OFFCURVE",
"401 335 OFFCURVE",
"401 234 CURVE",
"456 234 LINE",
"456 283 OFFCURVE",
"495 306 OFFCURVE",
"555 306 CURVE SMOOTH",
"630 306 OFFCURVE",
"649 271 OFFCURVE",
"649 217 CURVE SMOOTH",
"649 156 OFFCURVE",
"625 134 OFFCURVE",
"564 134 CURVE SMOOTH",
"554 134 OFFCURVE",
"542 134 OFFCURVE",
"527 136 CURVE",
"527 58 LINE",
"542 55 OFFCURVE",
"561 54 OFFCURVE",
"574 54 CURVE SMOOTH"
);
},
{
closed = 1;
nodes = (
"738 606 LINE",
"738 680 LINE",
"533 680 LINE",
"533 606 LINE"
);
}
);
width = 728;
}
);
unicode = 090A;
},
{
glyphname = "rVocalic-deva";
lastChange = "2014-11-05 19:14:56 +0000";
layers = (
{
anchors = (
{
name = bottom;
position = "{391, 0}";
},
{
name = top;
position = "{391, 680}";
}
);
background = {
paths = (
{
closed = 1;
nodes = (
"319 249 LINE",
"170 472 LINE SMOOTH",
"155 494 OFFCURVE",
"141 501 OFFCURVE",
"110 501 CURVE SMOOTH",
"21 501 LINE",
"21 425 LINE",
"71 425 LINE SMOOTH",
"106 425 OFFCURVE",
"114 421 OFFCURVE",
"133 393 CURVE SMOOTH",
"267 202 LINE"
);
},
{
closed = 1;
nodes = (
"426 0 LINE",
"426 616 LINE",
"356 616 LINE",
"356 0 LINE"
);
},
{
closed = 1;
nodes = (
"778 606 LINE",
"778 680 LINE",
"0 680 LINE",
"1 606 LINE"
);
},
{
closed = 1;
nodes = (
"548 330 OFFCURVE",
"567 290 OFFCURVE",
"602 267 CURVE",
"592 297 LINE",
"546 273 OFFCURVE",
"523 226 OFFCURVE",
"523 160 CURVE SMOOTH",
"523 54 OFFCURVE",
"581 0 OFFCURVE",
"679 0 CURVE SMOOTH",
"717 0 OFFCURVE",
"737 3 OFFCURVE",
"769 11 CURVE",
"769 91 LINE",
"731 83 OFFCURVE",
"712 80 OFFCURVE",
"679 80 CURVE SMOOTH",
"623 80 OFFCURVE",
"597 101 OFFCURVE",
"597 160 CURVE SMOOTH",
"597 219 OFFCURVE",
"623 240 OFFCURVE",
"709 240 CURVE SMOOTH",
"744 240 LINE",
"744 316 LINE",
"689 316 LINE SMOOTH",
"639 316 OFFCURVE",
"618 335 OFFCURVE",
"618 388 CURVE SMOOTH",
"618 501 LINE",
"563 501 LINE",
"13 1 LINE",
"13 0 LINE",
"118 -1 LINE",
"548 392 LINE"
);
}
);
};
layerId = "0225C979-6A3F-4323-834E-E3153ADD1AE8";
name = Regular;
paths = (
{
closed = 1;
nodes = (
"319 249 LINE",
"170 472 LINE SMOOTH",
"155 494 OFFCURVE",
"141 501 OFFCURVE",
"110 501 CURVE SMOOTH",
"21 501 LINE",
"21 425 LINE",
"71 425 LINE SMOOTH",
"106 425 OFFCURVE",
"114 421 OFFCURVE",
"133 393 CURVE SMOOTH",
"267 202 LINE"
);
},
{
closed = 1;
nodes = (
"426 0 LINE",
"426 616 LINE",
"356 616 LINE",
"356 0 LINE"
);
},
{
closed = 1;
nodes = (
"773 606 LINE",
"773 680 LINE",
"0 680 LINE",
"1 606 LINE"
);
},
{
closed = 1;
nodes = (
"548 330 OFFCURVE",
"567 290 OFFCURVE",
"602 267 CURVE",
"592 297 LINE",
"546 273 OFFCURVE",
"523 226 OFFCURVE",
"523 160 CURVE SMOOTH",
"523 54 OFFCURVE",
"581 0 OFFCURVE",
"679 0 CURVE SMOOTH",
"717 0 OFFCURVE",
"737 3 OFFCURVE",
"769 11 CURVE",
"769 91 LINE",
"731 83 OFFCURVE",
"712 80 OFFCURVE",
"679 80 CURVE SMOOTH",
"623 80 OFFCURVE",
"597 101 OFFCURVE",
"597 160 CURVE SMOOTH",
"597 219 OFFCURVE",
"623 240 OFFCURVE",
"709 240 CURVE SMOOTH",
"744 240 LINE",
"744 316 LINE",
"689 316 LINE SMOOTH",
"639 316 OFFCURVE",
"618 335 OFFCURVE",
"618 388 CURVE SMOOTH",
"618 501 LINE",
"563 501 LINE",
"13 1 LINE",
"13 0 LINE",
"118 -1 LINE",
"548 392 LINE"
);
}
);
width = 763;
}
);
unicode = 090B;
},
{
glyphname = "rrVocalic-deva";
lastChange = "2014-11-17 23:49:47 +0000";
layers = (
{
anchors = (
{
name = bottom;
position = "{391, 0}";
},
{
name = top;
position = "{391, 680}";
}
);
background = {
paths = (
{
closed = 1;
nodes = (
"769 22 LINE",
"769 98 LINE",
"679 98 LINE SMOOTH",
"623 98 OFFCURVE",
"597 121 OFFCURVE",
"597 175 CURVE SMOOTH",
"597 229 OFFCURVE",
"620 250 OFFCURVE",
"689 250 CURVE SMOOTH",
"712 250 OFFCURVE",
"727 248 OFFCURVE",
"749 244 CURVE",
"749 324 LINE",
"731 328 OFFCURVE",
"712 330 OFFCURVE",
"695 330 CURVE SMOOTH",
"639 330 OFFCURVE",
"618 345 OFFCURVE",
"618 398 CURVE SMOOTH",
"618 501 LINE",
"563 501 LINE",
"13 1 LINE",
"13 0 LINE",
"118 -1 LINE",
"548 392 LINE",
"548 340 OFFCURVE",
"567 300 OFFCURVE",
"602 277 CURVE",
"592 309 LINE",
"544 285 OFFCURVE",
"523 236 OFFCURVE",
"523 175 CURVE SMOOTH",
"523 113 OFFCURVE",
"549 66 OFFCURVE",
"593 41 CURVE",
"593 57 LINE",
"564 34 OFFCURVE",
"548 -3 OFFCURVE",
"548 -55 CURVE SMOOTH",
"548 -156 OFFCURVE",
"606 -210 OFFCURVE",
"704 -210 CURVE SMOOTH",
"742 -210 OFFCURVE",
"762 -207 OFFCURVE",
"794 -199 CURVE",
"794 -119 LINE",
"756 -127 OFFCURVE",
"737 -130 OFFCURVE",
"704 -130 CURVE SMOOTH",
"648 -130 OFFCURVE",
"622 -109 OFFCURVE",
"622 -55 CURVE SMOOTH",
"622 -7 OFFCURVE",
"644 22 OFFCURVE",
"707 22 CURVE SMOOTH"
);
},
{
closed = 1;
nodes = (
"319 249 LINE",
"170 472 LINE SMOOTH",
"155 494 OFFCURVE",
"141 501 OFFCURVE",
"110 501 CURVE SMOOTH",
"21 501 LINE",
"21 425 LINE",
"71 425 LINE SMOOTH",
"106 425 OFFCURVE",
"114 421 OFFCURVE",
"133 393 CURVE SMOOTH",
"267 202 LINE"
);
},
{
closed = 1;
nodes = (
"426 0 LINE",
"426 616 LINE",
"356 616 LINE",
"356 0 LINE"
);
},
{
closed = 1;
nodes = (
"788 606 LINE",
"788 680 LINE",
"0 680 LINE",
"1 606 LINE"
);
}
);
};
guideLines = (
{
angle = 90;
position = "{593, 81}";
}
);
layerId = "0225C979-6A3F-4323-834E-E3153ADD1AE8";
name = Regular;
paths = (
{
closed = 1;
nodes = (
"769 22 LINE",
"769 98 LINE",
"679 98 LINE SMOOTH",
"623 98 OFFCURVE",
"597 121 OFFCURVE",
"597 175 CURVE SMOOTH",
"597 229 OFFCURVE",
"620 250 OFFCURVE",
"689 250 CURVE SMOOTH",
"712 250 OFFCURVE",
"727 248 OFFCURVE",
"749 244 CURVE",
"749 324 LINE",
"731 328 OFFCURVE",
"712 330 OFFCURVE",
"695 330 CURVE SMOOTH",
"639 330 OFFCURVE",
"618 345 OFFCURVE",
"618 398 CURVE SMOOTH",
"618 501 LINE",
"563 501 LINE",
"13 1 LINE",
"13 0 LINE",
"118 -1 LINE",
"548 392 LINE",
"548 340 OFFCURVE",
"567 300 OFFCURVE",
"602 277 CURVE",
"592 309 LINE",
"544 285 OFFCURVE",
"523 236 OFFCURVE",
"523 175 CURVE SMOOTH",
"523 113 OFFCURVE",
"549 66 OFFCURVE",
"593 41 CURVE",
"593 57 LINE",
"564 34 OFFCURVE",
"548 -3 OFFCURVE",
"548 -55 CURVE SMOOTH",
"548 -156 OFFCURVE",
"606 -210 OFFCURVE",
"704 -210 CURVE SMOOTH",
"742 -210 OFFCURVE",
"762 -207 OFFCURVE",
"794 -199 CURVE",
"794 -119 LINE",
"756 -127 OFFCURVE",
"737 -130 OFFCURVE",
"704 -130 CURVE SMOOTH",
"648 -130 OFFCURVE",
"622 -109 OFFCURVE",
"622 -55 CURVE SMOOTH",
"622 -7 OFFCURVE",
"644 22 OFFCURVE",
"707 22 CURVE SMOOTH"
);
},
{
closed = 1;
nodes = (
"319 249 LINE",
"170 472 LINE SMOOTH",
"155 494 OFFCURVE",
"141 501 OFFCURVE",
"110 501 CURVE SMOOTH",
"21 501 LINE",
"21 425 LINE",
"71 425 LINE SMOOTH",
"106 425 OFFCURVE",
"114 421 OFFCURVE",
"133 393 CURVE SMOOTH",
"267 202 LINE"
);
},
{
closed = 1;
nodes = (
"426 0 LINE",
"426 616 LINE",
"356 616 LINE",
"356 0 LINE"
);
},
{
closed = 1;
nodes = (
"788 606 LINE",
"788 680 LINE",
"0 680 LINE",
"1 606 LINE"
);
}
);
width = 773;
}
);
unicode = 0960;
},
{
glyphname = "lVocalic-deva";
lastChange = "2014-11-17 23:50:49 +0000";
layers = (
{
anchors = (
{
name = bottom;
position = "{435, 0}";
},
{
name = top;
position = "{527, 680}";
}
);
background = {
paths = (
{
closed = 1;
nodes = (
"673 -150 OFFCURVE",
"701 -146 OFFCURVE",
"721 -139 CURVE",
"721 -59 LINE",
"696 -67 OFFCURVE",
"671 -70 OFFCURVE",
"641 -70 CURVE SMOOTH",
"582 -70 OFFCURVE",
"546 -58 OFFCURVE",
"546 -6 CURVE SMOOTH",
"546 101 OFFCURVE",
"696 44 OFFCURVE",
"696 263 CURVE SMOOTH",
"696 391 OFFCURVE",
"645 467 OFFCURVE",
"515 467 CURVE SMOOTH",
"452 467 OFFCURVE",
"396 449 OFFCURVE",
"371 393 CURVE",
"346 452 OFFCURVE",
"290 467 OFFCURVE",
"231 467 CURVE SMOOTH",
"90 467 OFFCURVE",
"46 383 OFFCURVE",
"46 235 CURVE SMOOTH",
"46 63 OFFCURVE",
"105 0 OFFCURVE",
"241 0 CURVE SMOOTH",
"258 0 OFFCURVE",
"291 1 OFFCURVE",
"314 5 CURVE",
"314 85 LINE",
"285 81 OFFCURVE",
"264 80 OFFCURVE",
"245 80 CURVE SMOOTH",
"150 80 OFFCURVE",
"120 105 OFFCURVE",
"120 229 CURVE SMOOTH",
"120 330 OFFCURVE",
"140 387 OFFCURVE",
"232 387 CURVE SMOOTH",
"309 387 OFFCURVE",
"336 348 OFFCURVE",
"336 247 CURVE SMOOTH",
"336 208 LINE",
"406 208 LINE",
"406 247 LINE SMOOTH",
"406 345 OFFCURVE",
"434 387 OFFCURVE",
"511 387 CURVE SMOOTH",
"593 387 OFFCURVE",
"622 339 OFFCURVE",
"622 260 CURVE SMOOTH",
"622 80 OFFCURVE",
"472 165 OFFCURVE",
"472 -4 CURVE SMOOTH",
"472 -104 OFFCURVE",
"524 -150 OFFCURVE",
"639 -150 CURVE SMOOTH"
);
},
{
closed = 1;
nodes = (
"757 606 LINE",
"757 680 LINE",
"0 680 LINE",
"0 606 LINE"
);
},
{
closed = 1;
nodes = (
"562 441 LINE",
"562 616 LINE",
"492 616 LINE",
"492 441 LINE"
);
}
);
};
guideLines = (
{
angle = 90;
position = "{696, 240}";
},
{
angle = 90;
position = "{746, 240}";
},
{
angle = 90;
position = "{696, 240}";
}
);
layerId = "0225C979-6A3F-4323-834E-E3153ADD1AE8";
name = Regular;
paths = (
{
closed = 1;
nodes = (
"673 -150 OFFCURVE",
"701 -146 OFFCURVE",
"721 -139 CURVE",
"721 -59 LINE",
"696 -67 OFFCURVE",
"671 -70 OFFCURVE",
"641 -70 CURVE SMOOTH",
"582 -70 OFFCURVE",
"546 -58 OFFCURVE",
"546 -6 CURVE SMOOTH",
"546 101 OFFCURVE",
"696 44 OFFCURVE",
"696 263 CURVE SMOOTH",
"696 391 OFFCURVE",
"645 467 OFFCURVE",
"515 467 CURVE SMOOTH",
"452 467 OFFCURVE",
"396 449 OFFCURVE",
"371 393 CURVE",
"346 452 OFFCURVE",
"290 467 OFFCURVE",
"231 467 CURVE SMOOTH",
"90 467 OFFCURVE",
"46 383 OFFCURVE",
"46 235 CURVE SMOOTH",
"46 63 OFFCURVE",
"105 0 OFFCURVE",
"241 0 CURVE SMOOTH",
"258 0 OFFCURVE",
"291 1 OFFCURVE",
"314 5 CURVE",
"314 85 LINE",
"285 81 OFFCURVE",
"264 80 OFFCURVE",
"245 80 CURVE SMOOTH",
"150 80 OFFCURVE",
"120 105 OFFCURVE",
"120 229 CURVE SMOOTH",
"120 330 OFFCURVE",
"140 387 OFFCURVE",
"232 387 CURVE SMOOTH",
"309 387 OFFCURVE",
"336 348 OFFCURVE",
"336 247 CURVE SMOOTH",
"336 208 LINE",
"406 208 LINE",
"406 247 LINE SMOOTH",
"406 345 OFFCURVE",
"434 387 OFFCURVE",
"511 387 CURVE SMOOTH",
"593 387 OFFCURVE",
"622 339 OFFCURVE",
"622 260 CURVE SMOOTH",
"622 80 OFFCURVE",
"472 165 OFFCURVE",
"472 -4 CURVE SMOOTH",
"472 -104 OFFCURVE",
"524 -150 OFFCURVE",
"639 -150 CURVE SMOOTH"
);
},
{
closed = 1;
nodes = (
"752 606 LINE",
"752 680 LINE",
"0 680 LINE",
"0 606 LINE"
);
},
{
closed = 1;
nodes = (
"562 441 LINE",
"562 616 LINE",
"492 616 LINE",
"492 441 LINE"
);
}
);
width = 742;
}
);
unicode = 090C;
},
{
glyphname = "llVocalic-deva";
lastChange = "2014-11-17 23:50:54 +0000";
layers = (
{
anchors = (
{
name = bottom;
position = "{443, 0}";
},
{
name = top;
position = "{527, 680}";
}
);
background = {
guideLines = (
{
position = "{441, -150}";
}
);
paths = (
{
closed = 1;
nodes = (
"674 -139 OFFCURVE",
"701 -135 OFFCURVE",
"721 -128 CURVE",
"721 -48 LINE",
"696 -56 OFFCURVE",
"671 -59 OFFCURVE",
"641 -59 CURVE SMOOTH",
"582 -59 OFFCURVE",
"546 -47 OFFCURVE",
"546 1 CURVE SMOOTH",
"546 99 OFFCURVE",
"696 45 OFFCURVE",
"696 264 CURVE SMOOTH",
"696 391 OFFCURVE",
"645 467 OFFCURVE",
"515 467 CURVE SMOOTH",
"452 467 OFFCURVE",
"396 449 OFFCURVE",
"371 393 CURVE",
"346 452 OFFCURVE",
"290 467 OFFCURVE",
"231 467 CURVE SMOOTH",
"90 467 OFFCURVE",
"46 383 OFFCURVE",
"46 235 CURVE SMOOTH",
"46 63 OFFCURVE",
"105 0 OFFCURVE",
"241 0 CURVE SMOOTH",
"258 0 OFFCURVE",
"291 1 OFFCURVE",
"314 5 CURVE",
"314 85 LINE",
"285 81 OFFCURVE",
"264 80 OFFCURVE",
"245 80 CURVE SMOOTH",
"150 80 OFFCURVE",
"120 105 OFFCURVE",
"120 229 CURVE SMOOTH",
"120 330 OFFCURVE",
"140 387 OFFCURVE",
"232 387 CURVE SMOOTH",
"309 387 OFFCURVE",
"336 348 OFFCURVE",
"336 247 CURVE SMOOTH",
"336 208 LINE",
"406 208 LINE",
"406 247 LINE SMOOTH",
"406 345 OFFCURVE",
"434 387 OFFCURVE",
"511 387 CURVE SMOOTH",
"593 387 OFFCURVE",
"622 339 OFFCURVE",
"622 260 CURVE SMOOTH",
"622 80 OFFCURVE",
"472 162 OFFCURVE",
"472 2 CURVE SMOOTH",
"472 -85 OFFCURVE",
"526 -139 OFFCURVE",
"637 -139 CURVE SMOOTH"
);
},
{
closed = 1;
nodes = (
"672 -359 OFFCURVE",
"698 -356 OFFCURVE",
"721 -348 CURVE",
"721 -268 LINE",
"697 -276 OFFCURVE",
"673 -279 OFFCURVE",
"643 -279 CURVE SMOOTH",
"571 -279 OFFCURVE",
"546 -261 OFFCURVE",
"546 -215 CURVE SMOOTH",
"546 -164 OFFCURVE",
"576 -139 OFFCURVE",
"637 -139 CURVE",
"627 -104 LINE",
"519 -104 OFFCURVE",
"472 -142 OFFCURVE",
"472 -228 CURVE SMOOTH",
"472 -319 OFFCURVE",
"522 -359 OFFCURVE",
"636 -359 CURVE SMOOTH"
);
},
{
closed = 1;
nodes = (
"757 606 LINE",
"757 680 LINE",
"0 680 LINE",
"0 606 LINE"
);
},
{
closed = 1;
nodes = (
"562 441 LINE",
"562 616 LINE",
"492 616 LINE",
"492 441 LINE"
);
}
);
};
guideLines = (
{
position = "{463, -150}";
},
{
angle = 90;
position = "{721, -14}";
},
{
angle = 90;
position = "{472, 7}";
},
{
angle = 90;
position = "{731, -14}";
}
);
layerId = "0225C979-6A3F-4323-834E-E3153ADD1AE8";
name = Regular;
paths = (
{
closed = 1;
nodes = (
"674 -139 OFFCURVE",
"701 -135 OFFCURVE",
"721 -128 CURVE",
"721 -48 LINE",
"696 -56 OFFCURVE",
"671 -59 OFFCURVE",
"641 -59 CURVE SMOOTH",
"582 -59 OFFCURVE",
"546 -47 OFFCURVE",
"546 1 CURVE SMOOTH",
"546 99 OFFCURVE",
"696 45 OFFCURVE",
"696 264 CURVE SMOOTH",
"696 391 OFFCURVE",
"645 467 OFFCURVE",
"515 467 CURVE SMOOTH",
"452 467 OFFCURVE",
"396 449 OFFCURVE",
"371 393 CURVE",
"346 452 OFFCURVE",
"290 467 OFFCURVE",
"231 467 CURVE SMOOTH",
"90 467 OFFCURVE",
"46 383 OFFCURVE",
"46 235 CURVE SMOOTH",
"46 63 OFFCURVE",
"105 0 OFFCURVE",
"241 0 CURVE SMOOTH",
"258 0 OFFCURVE",
"291 1 OFFCURVE",
"314 5 CURVE",
"314 85 LINE",
"285 81 OFFCURVE",
"264 80 OFFCURVE",
"245 80 CURVE SMOOTH",
"150 80 OFFCURVE",
"120 105 OFFCURVE",
"120 229 CURVE SMOOTH",
"120 330 OFFCURVE",
"140 387 OFFCURVE",
"232 387 CURVE SMOOTH",
"309 387 OFFCURVE",
"336 348 OFFCURVE",
"336 247 CURVE SMOOTH",
"336 208 LINE",
"406 208 LINE",
"406 247 LINE SMOOTH",
"406 345 OFFCURVE",
"434 387 OFFCURVE",
"511 387 CURVE SMOOTH",
"593 387 OFFCURVE",
"622 339 OFFCURVE",
"622 260 CURVE SMOOTH",
"622 80 OFFCURVE",
"472 162 OFFCURVE",
"472 2 CURVE SMOOTH",
"472 -85 OFFCURVE",
"526 -139 OFFCURVE",
"637 -139 CURVE SMOOTH"
);
},
{
closed = 1;
nodes = (
"672 -359 OFFCURVE",
"698 -356 OFFCURVE",
"721 -348 CURVE",
"721 -268 LINE",
"697 -276 OFFCURVE",
"673 -279 OFFCURVE",
"643 -279 CURVE SMOOTH",
"571 -279 OFFCURVE",
"546 -261 OFFCURVE",
"546 -215 CURVE SMOOTH",
"546 -164 OFFCURVE",
"576 -139 OFFCURVE",
"637 -139 CURVE",
"627 -104 LINE",
"519 -104 OFFCURVE",
"472 -142 OFFCURVE",
"472 -228 CURVE SMOOTH",
"472 -319 OFFCURVE",
"522 -359 OFFCURVE",
"636 -359 CURVE SMOOTH"
);
},
{
closed = 1;
nodes = (
"752 606 LINE",
"752 680 LINE",
"0 680 LINE",
"0 606 LINE"
);
},
{
closed = 1;
nodes = (
"562 441 LINE",
"562 616 LINE",
"492 616 LINE",
"492 441 LINE"
);
}
);
width = 742;
}
);
unicode = 0961;
},
{
glyphname = "e-deva";
lastChange = "2014-11-17 23:51:15 +0000";
layers = (
{
anchors = (
{
name = bottom;
position = "{317, 0}";
},
{
name = top;
position = "{477, 680}";
}
);
background = {
paths = (
{
closed = 1;
nodes = (
"96 616 LINE",
"96 212 LINE SMOOTH",
"96 64 OFFCURVE",
"172 0 OFFCURVE",
"317 0 CURVE SMOOTH",
"372 0 OFFCURVE",
"434 7 OFFCURVE",
"477 22 CURVE",
"477 102 LINE",
"425 86 OFFCURVE",
"368 80 OFFCURVE",
"320 80 CURVE SMOOTH",
"206 80 OFFCURVE",
"166 113 OFFCURVE",
"166 209 CURVE SMOOTH",
"166 616 LINE"
);
},
{
closed = 1;
nodes = (
"512 616 LINE",
"442 616 LINE",
"442 381 LINE SMOOTH",
"442 327 OFFCURVE",
"420 310 OFFCURVE",
"358 310 CURVE SMOOTH",
"337 310 OFFCURVE",
"311 312 OFFCURVE",
"289 317 CURVE",
"289 237 LINE",
"308 231 OFFCURVE",
"333 230 OFFCURVE",
"362 230 CURVE SMOOTH",
"472 230 OFFCURVE",
"512 275 OFFCURVE",
"512 377 CURVE SMOOTH"
);
},
{
closed = 1;
nodes = (
"0 680 LINE",
"0 606 LINE",
"628 606 LINE",
"628 680 LINE"
);
}
);
};
guideLines = (
{
angle = 90;
position = "{442, 616}";
}
);
layerId = "0225C979-6A3F-4323-834E-E3153ADD1AE8";
name = Regular;
paths = (
{
closed = 1;
nodes = (
"96 616 LINE",
"96 212 LINE SMOOTH",
"96 64 OFFCURVE",
"172 0 OFFCURVE",
"317 0 CURVE SMOOTH",
"372 0 OFFCURVE",
"434 7 OFFCURVE",
"477 22 CURVE",
"477 102 LINE",
"425 86 OFFCURVE",
"368 80 OFFCURVE",
"320 80 CURVE SMOOTH",
"206 80 OFFCURVE",
"166 113 OFFCURVE",
"166 209 CURVE SMOOTH",
"166 616 LINE"
);
},
{
closed = 1;
nodes = (
"512 616 LINE",
"442 616 LINE",
"442 381 LINE SMOOTH",
"442 327 OFFCURVE",
"420 310 OFFCURVE",
"358 310 CURVE SMOOTH",
"337 310 OFFCURVE",
"311 312 OFFCURVE",
"289 317 CURVE",
"289 237 LINE",
"308 231 OFFCURVE",
"333 230 OFFCURVE",
"362 230 CURVE SMOOTH",
"472 230 OFFCURVE",
"512 275 OFFCURVE",
"512 377 CURVE SMOOTH"
);
},
{
closed = 1;
nodes = (
"0 680 LINE",
"0 606 LINE",
"618 606 LINE",
"618 680 LINE"
);
}
);
width = 608;
}
);
unicode = 090F;
},
{
glyphname = "oCandra-deva";
lastChange = "2014-11-19 23:28:55 +0000";
layers = (
{
background = {
anchors = (
{
name = nukta;
position = "{780, 0}";
},
{
name = bottom;
position = "{909, 0}";
},
{
name = top;
position = "{909, 680}";
}
);
components = (
{
name = "a-deva";
transform = "{1, 0, 0, 1, 0, 0}";
}
);
guideLines = (
{
angle = 90;
position = "{909, 616}";
}
);
paths = (
{
closed = 1;
nodes = (
"874 616 LINE",
"874 0 LINE",
"944 0 LINE",
"944 616 LINE"
);
},
{
closed = 1;
nodes = (
"778 680 LINE",
"778 606 LINE",
"1050 606 LINE",
"1050 680 LINE"
);
},
{
closed = 1;
nodes = (
"1010 779 OFFCURVE",
"1064 823 OFFCURVE",
"1064 905 CURVE SMOOTH",
"1064 915 LINE",
"1004 915 LINE",
"1004 910 LINE SMOOTH",
"1004 870 OFFCURVE",
"972 849 OFFCURVE",
"909 849 CURVE SMOOTH",
"846 849 OFFCURVE",
"814 870 OFFCURVE",
"814 910 CURVE SMOOTH",
"814 915 LINE",
"754 915 LINE",
"754 905 LINE SMOOTH",
"754 823 OFFCURVE",
"808 779 OFFCURVE",
"909 779 CURVE SMOOTH"
);
}
);
};
components = (
{
name = "aa-deva";
transform = "{1, 0, 0, 1, 0, 0}";
},
{
name = "eCandraMatra-deva";
transform = "{1, 0, 0, 1, 784, 0}";
}
);
guideLines = (
{
angle = 90;
position = "{909, 50}";
}
);
layerId = "0225C979-6A3F-4323-834E-E3153ADD1AE8";
name = Regular;
width = 1035;
}
);
unicode = 0911;
},
{
glyphname = "aaMatra-deva";
lastChange = "2014-11-17 23:54:22 +0000";
layers = (
{
anchors = (
{
name = bottom;
position = "{131, 0}";
},
{
name = top;
position = "{131, 680}";
}
);
background = {
paths = (
{
closed = 1;
nodes = (
"96 616 LINE",
"96 0 LINE",
"166 0 LINE",
"166 616 LINE"
);
},
{
closed = 1;
nodes = (
"0 680 LINE",
"0 606 LINE",
"277 606 LINE",
"277 680 LINE"
);
}
);
};
layerId = "0225C979-6A3F-4323-834E-E3153ADD1AE8";
name = Regular;
paths = (
{
closed = 1;
nodes = (
"96 616 LINE",
"96 0 LINE",
"166 0 LINE",
"166 616 LINE"
);
},
{
closed = 1;
nodes = (
"0 680 LINE",
"0 606 LINE",
"272 606 LINE",
"272 680 LINE"
);
}
);
width = 262;
}
);
rightMetricsKey = "pa-deva";
unicode = 093E;
},
{
glyphname = "iMatra-deva";
lastChange = "2014-11-05 19:14:56 +0000";
layers = (
{
anchors = (
{
name = top;
position = "{694, 893}";
}
);
background = {
components = (
{
name = "aaMatra-deva";
transform = "{1, 0, 0, 1, 0, 0}";
}
);
paths = (
{
closed = 1;
nodes = (
"729 873 LINE",
"729 953 LINE",
"467 953 LINE SMOOTH",
"347 953 OFFCURVE",
"284 948 OFFCURVE",
"238 936 CURVE SMOOTH",
"153 914 OFFCURVE",
"96 865 OFFCURVE",
"96 734 CURVE SMOOTH",
"96 670 LINE",
"166 670 LINE",
"166 720 LINE SMOOTH",
"166 794 OFFCURVE",
"180 831 OFFCURVE",
"234 853 CURVE SMOOTH",
"273 869 OFFCURVE",
"319 873 OFFCURVE",
"467 873 CURVE SMOOTH"
);
}
);
};
components = (
{
name = "aaMatra-deva";
transform = "{1, 0, 0, 1, 0, 0}";
}
);
guideLines = (
{
angle = 90;
position = "{694, 750}";
},
{
position = "{166, 720}";
},
{
angle = 90;
position = "{470, 604}";
},
{
angle = 90;
position = "{96, 604}";
},
{
angle = 90;
position = "{764, 750}";
}
);
layerId = "0225C979-6A3F-4323-834E-E3153ADD1AE8";
name = Regular;
paths = (
{
closed = 1;
nodes = (
"729 873 LINE",
"729 953 LINE",
"467 953 LINE SMOOTH",
"347 953 OFFCURVE",
"284 948 OFFCURVE",
"238 936 CURVE SMOOTH",
"153 914 OFFCURVE",
"96 865 OFFCURVE",
"96 734 CURVE SMOOTH",
"96 670 LINE",
"166 670 LINE",
"166 720 LINE SMOOTH",
"166 794 OFFCURVE",
"180 831 OFFCURVE",
"234 853 CURVE SMOOTH",
"273 869 OFFCURVE",
"319 873 OFFCURVE",
"467 873 CURVE SMOOTH"
);
}
);
width = 262;
}
);
unicode = 093F;
},
{
glyphname = "iMatra_reph-deva";
lastChange = "2014-11-05 19:14:56 +0000";
layers = (
{
background = {
components = (
{
name = "aaMatra-deva";
transform = "{1, 0, 0, 1, 0, 0}";
}
);
paths = (
{
closed = 1;
nodes = (
"537 947 OFFCURVE",
"478 953 OFFCURVE",
"424 953 CURVE SMOOTH",
"365 953 OFFCURVE",
"310 948 OFFCURVE",
"266 939 CURVE SMOOTH",
"118 908 OFFCURVE",
"96 829 OFFCURVE",
"96 734 CURVE SMOOTH",
"96 670 LINE",
"166 670 LINE",
"166 720 LINE SMOOTH",
"166 798 OFFCURVE",
"180.171 842.6 OFFCURVE",
"273 862 CURVE SMOOTH",
"322 872 OFFCURVE",
"363 873 OFFCURVE",
"424 873 CURVE SMOOTH",
"502 873 OFFCURVE",
"544 867 OFFCURVE",
"624 848 CURVE",
"624 891 LINE SMOOTH",
"624 947 OFFCURVE",
"644 965 OFFCURVE",
"706 965 CURVE SMOOTH",
"734 965 OFFCURVE",
"748 964 OFFCURVE",
"764 959 CURVE",
"764 1037 LINE",
"739 1043 OFFCURVE",
"718 1045 OFFCURVE",
"693 1045 CURVE SMOOTH",
"594 1045 OFFCURVE",
"559 1006 OFFCURVE",
"554 919 CURVE",
"574 935 LINE"
);
}
);
};
components = (
{
name = "aaMatra-deva";
transform = "{1, 0, 0, 1, 0, 0}";
}
);
guideLines = (
{
angle = 90;
position = "{694, 828}";
},
{
angle = 90;
position = "{764, 828}";
}
);
layerId = "0225C979-6A3F-4323-834E-E3153ADD1AE8";
name = Regular;
paths = (
{
closed = 1;
nodes = (
"537 947 OFFCURVE",
"478 953 OFFCURVE",
"424 953 CURVE SMOOTH",
"365 953 OFFCURVE",
"310 948 OFFCURVE",
"266 939 CURVE SMOOTH",
"118 908 OFFCURVE",
"96 829 OFFCURVE",
"96 734 CURVE SMOOTH",
"96 670 LINE",
"166 670 LINE",
"166 720 LINE SMOOTH",
"166 798 OFFCURVE",
"180.171 842.6 OFFCURVE",
"273 862 CURVE SMOOTH",
"322 872 OFFCURVE",
"363 873 OFFCURVE",
"424 873 CURVE SMOOTH",
"502 873 OFFCURVE",
"544 867 OFFCURVE",
"624 848 CURVE",
"624 891 LINE SMOOTH",
"624 947 OFFCURVE",
"644 965 OFFCURVE",
"706 965 CURVE SMOOTH",
"734 965 OFFCURVE",
"748 964 OFFCURVE",
"764 959 CURVE",
"764 1037 LINE",
"739 1043 OFFCURVE",
"718 1045 OFFCURVE",
"693 1045 CURVE SMOOTH",
"594 1045 OFFCURVE",
"559 1006 OFFCURVE",
"554 919 CURVE",
"574 935 LINE"
);
}
);
width = 263;
}
);
},
{
glyphname = "iiMatra-deva";
lastChange = "2014-11-17 23:55:02 +0000";
layers = (
{
anchors = (
{
name = bottom;
position = "{131, 0}";
},
{
name = iimatra;
position = "{-131, 780}";
},
{
name = top;
position = "{131, 680}";
}
);
background = {
components = (
{
name = "aaMatra-deva";
transform = "{1, 0, 0, 1, 0, 0}";
}
);
paths = (
{
closed = 1;
nodes = (
"-166 780 LINE",
"-96 780 LINE",
"-96 798 LINE SMOOTH",
"-96 843 OFFCURVE",
"-73 873 OFFCURVE",
"-7 873 CURVE SMOOTH",
"66 873 OFFCURVE",
"96 832 OFFCURVE",
"96 732 CURVE SMOOTH",
"96 670 LINE",
"166 670 LINE",
"166 747 LINE SMOOTH",
"166 861 OFFCURVE",
"133 953 OFFCURVE",
"-3 953 CURVE SMOOTH",
"-115 953 OFFCURVE",
"-166 895 OFFCURVE",
"-166 803 CURVE SMOOTH"
);
}
);
};
components = (
{
name = "aaMatra-deva";
transform = "{1, 0, 0, 1, 0, 0}";
}
);
guideLines = (
{
angle = 90;
position = "{-96, 690}";
},
{
angle = 90;
position = "{-166, 690}";
}
);
layerId = "0225C979-6A3F-4323-834E-E3153ADD1AE8";
name = Regular;
paths = (
{
closed = 1;
nodes = (
"-166 780 LINE",
"-96 780 LINE",
"-96 798 LINE SMOOTH",
"-96 843 OFFCURVE",
"-73 873 OFFCURVE",
"-7 873 CURVE SMOOTH",
"66 873 OFFCURVE",
"96 832 OFFCURVE",
"96 732 CURVE SMOOTH",
"96 670 LINE",
"166 670 LINE",
"166 747 LINE SMOOTH",
"166 861 OFFCURVE",
"133 953 OFFCURVE",
"-3 953 CURVE SMOOTH",
"-115 953 OFFCURVE",
"-166 895 OFFCURVE",
"-166 803 CURVE SMOOTH"
);
}
);
width = 262;
}
);
rightMetricsKey = "pa-deva";
unicode = 0940;
},
{
glyphname = "oCandraMatra-deva";
lastChange = "2014-11-19 18:22:27 +0000";
layers = (
{
background = {
anchors = (
{
name = top;
position = "{131, 839}";
}
);
components = (
{
name = "aaMatra-deva";
transform = "{1, 0, 0, 1, 0, 0}";
}
);
paths = (
{
closed = 1;
nodes = (
"232 779 OFFCURVE",
"286 823 OFFCURVE",
"286 905 CURVE SMOOTH",
"286 915 LINE",
"226 915 LINE",
"226 910 LINE SMOOTH",
"226 870 OFFCURVE",
"194 849 OFFCURVE",
"131 849 CURVE SMOOTH",
"68 849 OFFCURVE",
"36 870 OFFCURVE",
"36 910 CURVE SMOOTH",
"36 915 LINE",
"-24 915 LINE",
"-24 905 LINE SMOOTH",
"-24 823 OFFCURVE",
"30 779 OFFCURVE",
"131 779 CURVE SMOOTH"
);
}
);
};
components = (
{
name = "aaMatra-deva";
transform = "{1, 0, 0, 1, 0, 0}";
},
{
name = "eCandraMatra-deva";
transform = "{1, 0, 0, 1, 6, 0}";
}
);
layerId = "0225C979-6A3F-4323-834E-E3153ADD1AE8";
name = Regular;
width = 262;
}
);
unicode = 0949;
},
{
glyphname = "auMatra_anusvara-deva";
lastChange = "2014-11-05 19:14:56 +0000";
layers = (
{
background = {
components = (
{
name = "aaMatra-deva";
transform = "{1, 0, 0, 1, 0, 0}";
},
{
name = "aiMatra-deva";
transform = "{1, 0, 0, 1, 6, 0}";
}
);
paths = (
{
closed = 1;
nodes = (
"221 831 OFFCURVE",
"197 809 OFFCURVE",
"197 768 CURVE SMOOTH",
"197 727 OFFCURVE",
"221 705 OFFCURVE",
"260 705 CURVE SMOOTH",
"299 705 OFFCURVE",
"323 727 OFFCURVE",
"323 768 CURVE SMOOTH",
"323 809 OFFCURVE",
"299 831 OFFCURVE",
"260 831 CURVE SMOOTH"
);
}
);
};
components = (
{
name = "aaMatra-deva";
transform = "{1, 0, 0, 1, 0, 0}";
},
{
name = "aiMatra-deva";
transform = "{1, 0, 0, 1, 6, 0}";
}
);
layerId = "0225C979-6A3F-4323-834E-E3153ADD1AE8";
name = Regular;
paths = (
{
closed = 1;
nodes = (
"221 831 OFFCURVE",
"197 809 OFFCURVE",
"197 768 CURVE SMOOTH",
"197 727 OFFCURVE",
"221 705 OFFCURVE",
"260 705 CURVE SMOOTH",
"299 705 OFFCURVE",
"323 727 OFFCURVE",
"323 768 CURVE SMOOTH",
"323 809 OFFCURVE",
"299 831 OFFCURVE",
"260 831 CURVE SMOOTH"
);
}
);
width = 262;
}
);
},
{
glyphname = "prishthaMatraE-deva";
lastChange = "2014-11-17 23:57:45 +0000";
layers = (
{
background = {
paths = (
{
closed = 1;
nodes = (
"277 680 LINE",
"96 680 LINE",
"96 0 LINE",
"166 0 LINE",
"166 606 LINE",
"277 606 LINE"
);
}
);
};
layerId = "0225C979-6A3F-4323-834E-E3153ADD1AE8";
name = Regular;
paths = (
{
closed = 1;
nodes = (
"272 680 LINE",
"96 680 LINE",
"96 0 LINE",
"166 0 LINE",
"166 606 LINE",
"272 606 LINE"
);
}
);
width = 262;
}
);
unicode = 094E;
},
{
glyphname = "awMatra-deva";
lastChange = "2014-11-19 18:23:28 +0000";
layers = (
{
anchors = (
{
name = top;
position = "{217, 680}";
}
);
background = {
components = (
{
name = "aaMatra-deva";
transform = "{1, 0, 0, 1, 0, 0}";
}
);
paths = (
{
closed = 1;
nodes = (
"166 660 LINE",
"166 865 LINE SMOOTH",
"166 976 OFFCURVE",
"114 984 OFFCURVE",
"25 999 CURVE SMOOTH",
"-66 1015 OFFCURVE",
"-95 1021 OFFCURVE",
"-95 1060 CURVE SMOOTH",
"-95 1070 LINE",
"-165 1070 LINE",
"-165 1060 LINE SMOOTH",
"-165 951 OFFCURVE",
"-87 940 OFFCURVE",
"-11 930 CURVE SMOOTH",
"58 921 OFFCURVE",
"101 918 OFFCURVE",
"101 866 CURVE SMOOTH",
"101 660 LINE"
);
},
{
closed = 1;
nodes = (
"96 660 LINE",
"141 660 LINE",
"141 711 LINE SMOOTH",
"141 807 OFFCURVE",
"107 857 OFFCURVE",
"19 857 CURVE SMOOTH",
"-13 857 OFFCURVE",
"-79 851 OFFCURVE",
"-116 851 CURVE SMOOTH",
"-175 851 OFFCURVE",
"-195 869 OFFCURVE",
"-195 914 CURVE SMOOTH",
"-195 924 LINE",
"-265 924 LINE",
"-265 914 LINE SMOOTH",
"-265 821 OFFCURVE",
"-221 775 OFFCURVE",
"-118 775 CURVE SMOOTH",
"-78 775 OFFCURVE",
"-17 783 OFFCURVE",
"16 783 CURVE SMOOTH",
"75 783 OFFCURVE",
"96 760 OFFCURVE",
"96 710 CURVE SMOOTH"
);
}
);
};
components = (
{
name = "aaMatra-deva";
transform = "{1, 0, 0, 1, 0, 0}";
}
);
guideLines = (
{
angle = 90;
position = "{96, 593}";
},
{
angle = 90;
position = "{166, 593}";
}
);
layerId = "0225C979-6A3F-4323-834E-E3153ADD1AE8";
name = Regular;
paths = (
{
closed = 1;
nodes = (
"166 660 LINE",
"166 865 LINE SMOOTH",
"166 976 OFFCURVE",
"114 984 OFFCURVE",
"25 999 CURVE SMOOTH",
"-66 1015 OFFCURVE",
"-95 1021 OFFCURVE",
"-95 1060 CURVE SMOOTH",
"-95 1070 LINE",
"-165 1070 LINE",
"-165 1060 LINE SMOOTH",
"-165 951 OFFCURVE",
"-87 940 OFFCURVE",
"-11 930 CURVE SMOOTH",
"58 921 OFFCURVE",
"101 918 OFFCURVE",
"101 866 CURVE SMOOTH",
"101 660 LINE"
);
},
{
closed = 1;
nodes = (
"96 660 LINE",
"141 660 LINE",
"141 711 LINE SMOOTH",
"141 807 OFFCURVE",
"107 857 OFFCURVE",
"19 857 CURVE SMOOTH",
"-13 857 OFFCURVE",
"-79 851 OFFCURVE",
"-116 851 CURVE SMOOTH",
"-175 851 OFFCURVE",
"-195 869 OFFCURVE",
"-195 914 CURVE SMOOTH",
"-195 924 LINE",
"-265 924 LINE",
"-265 914 LINE SMOOTH",
"-265 821 OFFCURVE",
"-221 775 OFFCURVE",
"-118 775 CURVE SMOOTH",
"-78 775 OFFCURVE",
"-17 783 OFFCURVE",
"16 783 CURVE SMOOTH",
"75 783 OFFCURVE",
"96 760 OFFCURVE",
"96 710 CURVE SMOOTH"
);
}
);
width = 262;
}
);
unicode = 094F;
},
{
glyphname = "ka-deva";
lastChange = "2014-11-19 23:33:21 +0000";
layers = (
{
anchors = (
{
name = bottom;
position = "{433, 0}";
},
{
name = nukta;
position = "{92, 0}";
},
{
name = top;
position = "{433, 680}";
}
);
background = {
paths = (
{
closed = 1;
nodes = (
"119 496 OFFCURVE",
"55 444 OFFCURVE",
"55 304 CURVE SMOOTH",
"55 164 OFFCURVE",
"119 112 OFFCURVE",
"250 112 CURVE SMOOTH",
"322 112 OFFCURVE",
"366 128 OFFCURVE",
"409 151 CURVE",
"409 218 LINE",
"363 198 OFFCURVE",
"326 192 OFFCURVE",
"269 192 CURVE SMOOTH",
"160 192 OFFCURVE",
"129 214 OFFCURVE",
"129 304 CURVE SMOOTH",
"129 394 OFFCURVE",
"161 416 OFFCURVE",
"270 416 CURVE SMOOTH",
"327 416 OFFCURVE",
"363 409 OFFCURVE",
"408 389 CURVE",
"408 459 LINE",
"364 481 OFFCURVE",
"320 496 OFFCURVE",
"250 496 CURVE SMOOTH"
);
},
{
closed = 1;
nodes = (
"398 616 LINE",
"398 0 LINE",
"468 0 LINE",
"468 616 LINE"
);
},
{
closed = 1;
nodes = (
"0 680 LINE",
"1 606 LINE",
"879 606 LINE",
"879 680 LINE"
);
},
{
closed = 1;
nodes = (
"558 116 LINE",
"583 113 OFFCURVE",
"610 112 OFFCURVE",
"630 112 CURVE SMOOTH",
"698 112 OFFCURVE",
"737 124 OFFCURVE",
"765 152 CURVE SMOOTH",
"795 183 OFFCURVE",
"811 232 OFFCURVE",
"811 303 CURVE SMOOTH",
"811 444 OFFCURVE",
"747 496 OFFCURVE",
"616 496 CURVE SMOOTH",
"546 496 OFFCURVE",
"502 481 OFFCURVE",
"458 459 CURVE",
"458 389 LINE",
"503 409 OFFCURVE",
"538 416 OFFCURVE",
"597 416 CURVE SMOOTH",
"709 416 OFFCURVE",
"737 394 OFFCURVE",
"737 304 CURVE SMOOTH",
"737 214 OFFCURVE",
"713 192 OFFCURVE",
"626 192 CURVE SMOOTH",
"603 192 OFFCURVE",
"581 193 OFFCURVE",
"558 196 CURVE"
);
}
);
};
layerId = "0225C979-6A3F-4323-834E-E3153ADD1AE8";
name = Regular;
paths = (
{
closed = 1;
nodes = (
"119 496 OFFCURVE",
"55 444 OFFCURVE",
"55 304 CURVE SMOOTH",
"55 164 OFFCURVE",
"119 112 OFFCURVE",
"250 112 CURVE SMOOTH",
"322 112 OFFCURVE",
"366 128 OFFCURVE",
"409 151 CURVE",
"409 218 LINE",
"363 198 OFFCURVE",
"326 192 OFFCURVE",
"269 192 CURVE SMOOTH",
"160 192 OFFCURVE",
"129 214 OFFCURVE",
"129 304 CURVE SMOOTH",
"129 394 OFFCURVE",
"161 416 OFFCURVE",
"270 416 CURVE SMOOTH",
"327 416 OFFCURVE",
"363 409 OFFCURVE",
"408 389 CURVE",
"408 459 LINE",
"364 481 OFFCURVE",
"320 496 OFFCURVE",
"250 496 CURVE SMOOTH"
);
},
{
closed = 1;
nodes = (
"398 616 LINE",
"398 0 LINE",
"468 0 LINE",
"468 616 LINE"
);
},
{
closed = 1;
nodes = (
"0 680 LINE",
"1 606 LINE",
"875 606 LINE",
"875 680 LINE"
);
},
{
closed = 1;
nodes = (
"558 116 LINE",
"583 113 OFFCURVE",
"610 112 OFFCURVE",
"630 112 CURVE SMOOTH",
"698 112 OFFCURVE",
"737 124 OFFCURVE",
"765 152 CURVE SMOOTH",
"795 183 OFFCURVE",
"811 232 OFFCURVE",
"811 303 CURVE SMOOTH",
"811 444 OFFCURVE",
"747 496 OFFCURVE",
"616 496 CURVE SMOOTH",
"546 496 OFFCURVE",
"502 481 OFFCURVE",
"458 459 CURVE",
"458 389 LINE",
"503 409 OFFCURVE",
"538 416 OFFCURVE",
"597 416 CURVE SMOOTH",
"709 416 OFFCURVE",
"737 394 OFFCURVE",
"737 304 CURVE SMOOTH",
"737 214 OFFCURVE",
"713 192 OFFCURVE",
"626 192 CURVE SMOOTH",
"603 192 OFFCURVE",
"581 193 OFFCURVE",
"558 196 CURVE"
);
}
);
width = 865;
}
);
unicode = 0915;
},
{
glyphname = "kha-deva";
lastChange = "2014-11-05 19:14:56 +0000";
layers = (
{
anchors = (
{
name = bottom;
position = "{741, 0}";
},
{
name = nukta;
position = "{57, 0}";
},
{
name = top;
position = "{741, 680}";
}
);
background = {
guideLines = (
{
position = "{80, 302}";
}
);
paths = (
{
closed = 1;
nodes = (
"335 0 LINE",
"335 1 LINE",
"100 288 LINE",
"84 271 LINE",
"230 271 OFFCURVE",
"291 317 OFFCURVE",
"291 440 CURVE SMOOTH",
"291 513 OFFCURVE",
"274 579 OFFCURVE",
"254 617 CURVE",
"153 617 LINE",
"185 582 OFFCURVE",
"212 520 OFFCURVE",
"212 453 CURVE SMOOTH",
"212 365 OFFCURVE",
"155 347 OFFCURVE",
"70 347 CURVE SMOOTH",
"32 347 LINE",
"32 260 LINE",
"240 0 LINE"
);
},
{
closed = 1;
nodes = (
"616 128 OFFCURVE",
"668 143 OFFCURVE",
"717 167 CURVE",
"717 234 LINE",
"667 215 OFFCURVE",
"630 208 OFFCURVE",
"572 208 CURVE SMOOTH",
"469 208 OFFCURVE",
"440 230 OFFCURVE",
"440 312 CURVE SMOOTH",
"440 394 OFFCURVE",
"469 416 OFFCURVE",
"572 416 CURVE SMOOTH",
"630 416 OFFCURVE",
"667 408 OFFCURVE",
"717 390 CURVE",
"717 458 LINE",
"668 482 OFFCURVE",
"616 496 OFFCURVE",
"546 496 CURVE SMOOTH",
"419 496 OFFCURVE",
"366 447 OFFCURVE",
"366 312 CURVE SMOOTH",
"366 177 OFFCURVE",
"419 128 OFFCURVE",
"546 128 CURVE SMOOTH"
);
},
{
closed = 1;
nodes = (
"776 0 LINE",
"776 616 LINE",
"706 616 LINE",
"706 0 LINE"
);
},
{
closed = 1;
nodes = (
"887 606 LINE",
"887 680 LINE",
"0 680 LINE",
"0 606 LINE"
);
}
);
};
guideLines = (
{
angle = 90;
position = "{32, 347}";
}
);
layerId = "0225C979-6A3F-4323-834E-E3153ADD1AE8";
name = Regular;
paths = (
{
closed = 1;
nodes = (
"335 0 LINE",
"335 1 LINE",
"100 288 LINE",
"84 271 LINE",
"230 271 OFFCURVE",
"291 317 OFFCURVE",
"291 440 CURVE SMOOTH",
"291 513 OFFCURVE",
"274 579 OFFCURVE",
"254 617 CURVE",
"153 617 LINE",
"185 582 OFFCURVE",
"212 520 OFFCURVE",
"212 453 CURVE SMOOTH",
"212 365 OFFCURVE",
"155 347 OFFCURVE",
"70 347 CURVE SMOOTH",
"32 347 LINE",
"32 260 LINE",
"240 0 LINE"
);
},
{
closed = 1;
nodes = (
"616 128 OFFCURVE",
"668 143 OFFCURVE",
"717 167 CURVE",
"717 234 LINE",
"667 215 OFFCURVE",
"630 208 OFFCURVE",
"572 208 CURVE SMOOTH",
"469 208 OFFCURVE",
"440 230 OFFCURVE",
"440 312 CURVE SMOOTH",
"440 394 OFFCURVE",
"469 416 OFFCURVE",
"572 416 CURVE SMOOTH",
"630 416 OFFCURVE",
"667 408 OFFCURVE",
"717 390 CURVE",
"717 458 LINE",
"668 482 OFFCURVE",
"616 496 OFFCURVE",
"546 496 CURVE SMOOTH",
"419 496 OFFCURVE",
"366 447 OFFCURVE",
"366 312 CURVE SMOOTH",
"366 177 OFFCURVE",
"419 128 OFFCURVE",
"546 128 CURVE SMOOTH"
);
},
{
closed = 1;
nodes = (
"776 0 LINE",
"776 616 LINE",
"706 616 LINE",
"706 0 LINE"
);
},
{
closed = 1;
nodes = (
"882 606 LINE",
"882 680 LINE",
"0 680 LINE",
"0 606 LINE"
);
}
);
width = 872;
}
);
rightMetricsKey = "pa-deva";
unicode = 0916;
},
{
glyphname = "ga-deva";
lastChange = "2014-11-05 19:14:56 +0000";
layers = (
{
anchors = (
{
name = bottom;
position = "{459, 0}";
},
{
name = nukta;
position = "{133, 0}";
},
{
name = top;
position = "{459, 680}";
}
);
background = {
paths = (
{
closed = 1;
nodes = (
"424 616 LINE",
"424 0 LINE",
"494 0 LINE",
"494 616 LINE"
);
},
{
closed = 1;
nodes = (
"0 680 LINE",
"0 606 LINE",
"605 606 LINE",
"605 680 LINE"
);
},
{
closed = 1;
nodes = (
"32 268 LINE",
"32 193 OFFCURVE",
"64 164 OFFCURVE",
"117 164 CURVE SMOOTH",
"172 164 OFFCURVE",
"203 193 OFFCURVE",
"203 282 CURVE SMOOTH",
"203 616 LINE",
"133 616 LINE",
"133 288 LINE",
"157 322 LINE"
);
}
);
};
layerId = "0225C979-6A3F-4323-834E-E3153ADD1AE8";
name = Regular;
paths = (
{
closed = 1;
nodes = (
"424 616 LINE",
"424 0 LINE",
"494 0 LINE",
"494 616 LINE"
);
},
{
closed = 1;
nodes = (
"0 680 LINE",
"0 606 LINE",
"600 606 LINE",
"600 680 LINE"
);
},
{
closed = 1;
nodes = (
"32 268 LINE",
"32 193 OFFCURVE",
"64 164 OFFCURVE",
"117 164 CURVE SMOOTH",
"172 164 OFFCURVE",
"203 193 OFFCURVE",
"203 282 CURVE SMOOTH",
"203 616 LINE",
"133 616 LINE",
"133 288 LINE",
"157 322 LINE"
);
}
);
width = 590;
}
);
rightMetricsKey = "pa-deva";
unicode = 0917;
},
{
glyphname = "gha-deva";
lastChange = "2014-11-19 23:49:26 +0000";
layers = (
{
anchors = (
{
name = bottom;
position = "{479, 0}";
},
{
name = nukta;
position = "{109, 0}";
},
{
name = top;
position = "{479, 680}";
}
);
background = {
paths = (
{
closed = 1;
nodes = (
"340 100 OFFCURVE",
"397 113 OFFCURVE",
"450 145 CURVE",
"450 239 LINE",
"400 198 OFFCURVE",
"348 180 OFFCURVE",
"271 180 CURVE SMOOTH",
"171 180 OFFCURVE",
"146 210 OFFCURVE",
"146 275 CURVE SMOOTH",
"146 333 OFFCURVE",
"167 358 OFFCURVE",
"252 358 CURVE SMOOTH",
"330 358 LINE",
"330 434 LINE",
"255 434 LINE SMOOTH",
"139 434 OFFCURVE",
"121 458 OFFCURVE",
"120 532 CURVE SMOOTH",
"120 567 OFFCURVE",
"125 590 OFFCURVE",
"137 616 CURVE",
"63 616 LINE",
"53 598 OFFCURVE",
"46 571 OFFCURVE",
"46 532 CURVE SMOOTH",
"47 423 OFFCURVE",
"101 376 OFFCURVE",
"181 366 CURVE",
"166 392 LINE",
"111 387 OFFCURVE",
"72 340 OFFCURVE",
"72 263 CURVE SMOOTH",
"72 162 OFFCURVE",
"137 100 OFFCURVE",
"277 100 CURVE SMOOTH"
);
},
{
closed = 1;
nodes = (
"514 0 LINE",
"514 616 LINE",
"444 616 LINE",
"444 0 LINE"
);
},
{
closed = 1;
nodes = (
"625 606 LINE",
"625 679 LINE",
"-30 680 LINE",
"-30 606 LINE"
);
}
);
};
layerId = "0225C979-6A3F-4323-834E-E3153ADD1AE8";
name = Regular;
paths = (
{
closed = 1;
nodes = (
"340 100 OFFCURVE",
"397 113 OFFCURVE",
"450 145 CURVE",
"450 239 LINE",
"400 198 OFFCURVE",
"348 180 OFFCURVE",
"271 180 CURVE SMOOTH",
"171 180 OFFCURVE",
"146 210 OFFCURVE",
"146 275 CURVE SMOOTH",
"146 333 OFFCURVE",
"167 358 OFFCURVE",
"252 358 CURVE SMOOTH",
"330 358 LINE",
"330 434 LINE",
"255 434 LINE SMOOTH",
"139 434 OFFCURVE",
"121 458 OFFCURVE",
"120 532 CURVE SMOOTH",
"120 567 OFFCURVE",
"125 590 OFFCURVE",
"137 616 CURVE",
"63 616 LINE",
"53 598 OFFCURVE",
"46 571 OFFCURVE",
"46 532 CURVE SMOOTH",
"47 423 OFFCURVE",
"101 376 OFFCURVE",
"181 366 CURVE",
"166 392 LINE",
"111 387 OFFCURVE",
"72 340 OFFCURVE",
"72 263 CURVE SMOOTH",
"72 162 OFFCURVE",
"137 100 OFFCURVE",
"277 100 CURVE SMOOTH"
);
},
{
closed = 1;
nodes = (
"514 0 LINE",
"514 616 LINE",
"444 616 LINE",
"444 0 LINE"
);
},
{
closed = 1;
nodes = (
"620 606 LINE",
"620 679 LINE",
"0 680 LINE",
"0 606 LINE"
);
}
);
width = 610;
}
);
rightMetricsKey = "=-10";
unicode = 0918;
},
{
glyphname = "nga-deva";
lastChange = "2014-11-19 23:34:06 +0000";
layers = (
{
background = {
guideLines = (
{
position = "{564, 367}";
}
);
paths = (
{
closed = 1;
nodes = (
"446 367 LINE",
"513 367 LINE",
"513 465 LINE",
"446 465 LINE"
);
}
);
};
components = (
{
name = "dda-deva";
transform = "{1, 0, 0, 1, 0, 0}";
},
{
name = "nukta-deva";
transform = "{1, 0, 0, 1, 437, 502}";
}
);
layerId = "0225C979-6A3F-4323-834E-E3153ADD1AE8";
name = Regular;
paths = (
{
closed = 1;
nodes = (
"543 680 LINE",
"543 606 LINE",
"620 606 LINE SMOOTH",
"620 680 LINE SMOOTH"
);
}
);
width = 610;
}
);
leftMetricsKey = "dda-deva";
unicode = 0919;
},
{
glyphname = "ca-deva";
lastChange = "2014-11-05 19:14:56 +0000";
layers = (
{
anchors = (
{
name = bottom;
position = "{534, 0}";
},
{
name = nukta;
position = "{116, 0}";
},
{
name = top;
position = "{534, 680}";
}
);
background = {
paths = (
{
closed = 1;
nodes = (
"0 680 LINE",
"0 606 LINE",
"680 606 LINE",
"680 680 LINE"
);
},
{
closed = 1;
nodes = (
"499 0 LINE",
"569 0 LINE",
"569 616 LINE",
"499 616 LINE"
);
},
{
closed = 1;
nodes = (
"0 491 LINE",
"0 415 LINE",
"424 415 LINE",
"424 491 LINE"
);
},
{
closed = 1;
nodes = (
"467 246 OFFCURVE",
"384 195 OFFCURVE",
"285 195 CURVE SMOOTH",
"199 195 OFFCURVE",
"153 233 OFFCURVE",
"153 305 CURVE SMOOTH",
"153 361 OFFCURVE",
"181 408 OFFCURVE",
"236 425 CURVE",
"146 425 LINE",
"101 406 OFFCURVE",
"79 358 OFFCURVE",
"79 296 CURVE SMOOTH",
"79 184 OFFCURVE",
"153 115 OFFCURVE",
"286 115 CURVE SMOOTH",
"388 115 OFFCURVE",
"478 155 OFFCURVE",
"509 206 CURVE",
"509 308 LINE"
);
}
);
};
layerId = "0225C979-6A3F-4323-834E-E3153ADD1AE8";
name = Regular;
paths = (
{
closed = 1;
nodes = (
"-5 680 LINE",
"-5 606 LINE",
"675 606 LINE",
"675 680 LINE"
);
},
{
closed = 1;
nodes = (
"499 0 LINE",
"569 0 LINE",
"569 616 LINE",
"499 616 LINE"
);
},
{
closed = 1;
nodes = (
"-5 491 LINE",
"-5 415 LINE",
"419 415 LINE",
"419 491 LINE"
);
},
{
closed = 1;
nodes = (
"467 246 OFFCURVE",
"384 195 OFFCURVE",
"285 195 CURVE SMOOTH",
"199 195 OFFCURVE",
"153 233 OFFCURVE",
"153 305 CURVE SMOOTH",
"153 361 OFFCURVE",
"181 408 OFFCURVE",
"236 425 CURVE",
"146 425 LINE",
"101 406 OFFCURVE",
"79 358 OFFCURVE",
"79 296 CURVE SMOOTH",
"79 184 OFFCURVE",
"153 115 OFFCURVE",
"286 115 CURVE SMOOTH",
"388 115 OFFCURVE",
"478 155 OFFCURVE",
"509 206 CURVE",
"509 308 LINE"
);
}
);
width = 665;
}
);
unicode = 091A;
},
{
glyphname = "cha-deva";
lastChange = "2014-11-19 19:14:55 +0000";
layers = (
{
anchors = (
{
name = bottom;
position = "{410, 37}";
},
{
name = nukta;
position = "{318, -120}";
},
{
name = top;
position = "{498, 680}";
}
);
background = {
guideLines = (
{
angle = 90;
position = "{467, 529}";
}
);
paths = (
{
closed = 1;
nodes = (
"537 0 OFFCURVE",
"661 94 OFFCURVE",
"661 308 CURVE SMOOTH",
"661 477 OFFCURVE",
"584 517 OFFCURVE",
"503 517 CURVE SMOOTH",
"415 517 OFFCURVE",
"374 470 OFFCURVE",
"374 389 CURVE SMOOTH",
"374 292 OFFCURVE",
"426 246 OFFCURVE",
"534 245 CURVE",
"534 325 LINE",
"473 325 OFFCURVE",
"438 341 OFFCURVE",
"438 388 CURVE SMOOTH",
"438 425 OFFCURVE",
"458 443 OFFCURVE",
"503 443 CURVE SMOOTH",
"555 443 OFFCURVE",
"587 416 OFFCURVE",
"587 319 CURVE SMOOTH",
"587 151 OFFCURVE",
"503 80 OFFCURVE",
"310 80 CURVE SMOOTH",
"175 80 OFFCURVE",
"149 115 OFFCURVE",
"149 171 CURVE SMOOTH",
"149 212 OFFCURVE",
"163 227 OFFCURVE",
"215 227 CURVE SMOOTH",
"304 227 LINE",
"304 303 LINE",
"218 303 LINE SMOOTH",
"144 303 OFFCURVE",
"124 318 OFFCURVE",
"124 371 CURVE SMOOTH",
"124 416 OFFCURVE",
"139 437 OFFCURVE",
"233 437 CURVE SMOOTH",
"268 437 OFFCURVE",
"291 434 OFFCURVE",
"319 428 CURVE",
"319 506 LINE",
"290 514 OFFCURVE",
"255 517 OFFCURVE",
"220 517 CURVE SMOOTH",
"106 517 OFFCURVE",
"50 485 OFFCURVE",
"50 381 CURVE SMOOTH",
"50 284 OFFCURVE",
"99 249 OFFCURVE",
"184 239 CURVE",
"169 272 LINE",
"108 266 OFFCURVE",
"75 229 OFFCURVE",
"75 160 CURVE SMOOTH",
"75 57 OFFCURVE",
"147 0 OFFCURVE",
"318 0 CURVE SMOOTH"
);
},
{
closed = 1;
nodes = (
"727 606 LINE SMOOTH",
"727 680 LINE SMOOTH",
"0 681 LINE",
"0 606 LINE"
);
},
{
closed = 1;
nodes = (
"533 480 LINE",
"533 616 LINE",
"463 616 LINE",
"463 480 LINE"
);
}
);
};
layerId = "0225C979-6A3F-4323-834E-E3153ADD1AE8";
name = Regular;
paths = (
{
closed = 1;
nodes = (
"537 0 OFFCURVE",
"661 94 OFFCURVE",
"661 308 CURVE SMOOTH",
"661 477 OFFCURVE",
"584 517 OFFCURVE",
"503 517 CURVE SMOOTH",
"415 517 OFFCURVE",
"374 470 OFFCURVE",
"374 389 CURVE SMOOTH",
"374 292 OFFCURVE",
"426 246 OFFCURVE",
"534 245 CURVE",
"534 325 LINE",
"473 325 OFFCURVE",
"438 341 OFFCURVE",
"438 388 CURVE SMOOTH",
"438 425 OFFCURVE",
"458 443 OFFCURVE",
"503 443 CURVE SMOOTH",
"555 443 OFFCURVE",
"587 416 OFFCURVE",
"587 319 CURVE SMOOTH",
"587 151 OFFCURVE",
"503 80 OFFCURVE",
"310 80 CURVE SMOOTH",
"175 80 OFFCURVE",
"149 115 OFFCURVE",
"149 171 CURVE SMOOTH",
"149 212 OFFCURVE",
"163 227 OFFCURVE",
"215 227 CURVE SMOOTH",
"304 227 LINE",
"304 303 LINE",
"218 303 LINE SMOOTH",
"144 303 OFFCURVE",
"124 318 OFFCURVE",
"124 371 CURVE SMOOTH",
"124 416 OFFCURVE",
"139 437 OFFCURVE",
"233 437 CURVE SMOOTH",
"268 437 OFFCURVE",
"291 434 OFFCURVE",
"319 428 CURVE",
"319 506 LINE",
"290 514 OFFCURVE",
"255 517 OFFCURVE",
"220 517 CURVE SMOOTH",
"106 517 OFFCURVE",
"50 485 OFFCURVE",
"50 381 CURVE SMOOTH",
"50 284 OFFCURVE",
"99 249 OFFCURVE",
"184 239 CURVE",
"169 272 LINE",
"108 266 OFFCURVE",
"75 229 OFFCURVE",
"75 160 CURVE SMOOTH",
"75 57 OFFCURVE",
"147 0 OFFCURVE",
"318 0 CURVE SMOOTH"
);
},
{
closed = 1;
nodes = (
"722 606 LINE",
"722 680 LINE",
"0 681 LINE",
"0 606 LINE"
);
},
{
closed = 1;
nodes = (
"533 480 LINE",
"533 616 LINE",
"463 616 LINE",
"463 480 LINE"
);
}
);
width = 712;
}
);
unicode = 091B;
},
{
glyphname = "ja-deva";
lastChange = "2014-11-14 08:05:50 +0000";
layers = (
{
anchors = (
{
name = bottom;
position = "{571, 0}";
},
{
name = nukta;
position = "{50, 0}";
},
{
name = top;
position = "{571, 680}";
}
);
background = {
paths = (
{
closed = 1;
nodes = (
"591 0 LINE",
"591 616 LINE",
"521 616 LINE",
"521 0 LINE"
);
},
{
closed = 1;
nodes = (
"702 606 LINE",
"702 680 LINE",
"-20 680 LINE",
"-20 606 LINE"
);
},
{
closed = 1;
nodes = (
"361 100 OFFCURVE",
"421 157 OFFCURVE",
"421 273 CURVE SMOOTH",
"421 311 OFFCURVE",
"413 347 OFFCURVE",
"398 384 CURVE",
"383 362 LINE",
"531 362 LINE",
"531 438 LINE",
"315 438 LINE",
"315 390 LINE",
"336 365 OFFCURVE",
"347 330 OFFCURVE",
"347 284 CURVE SMOOTH",
"347 214 OFFCURVE",
"311 180 OFFCURVE",
"237 180 CURVE SMOOTH",
"130 180 OFFCURVE",
"77 275 OFFCURVE",
"77 438 CURVE",
"3 438 LINE",
"3 221 OFFCURVE",
"80 100 OFFCURVE",
"237 100 CURVE SMOOTH"
);
}
);
};
layerId = "0225C979-6A3F-4323-834E-E3153ADD1AE8";
name = Regular;
paths = (
{
closed = 1;
nodes = (
"606 0 LINE",
"606 616 LINE",
"536 616 LINE",
"536 0 LINE"
);
},
{
closed = 1;
nodes = (
"712 606 LINE",
"712 680 LINE",
"0 680 LINE",
"0 606 LINE"
);
},
{
closed = 1;
nodes = (
"364 100 OFFCURVE",
"421 157 OFFCURVE",
"421 273 CURVE SMOOTH",
"421 311 OFFCURVE",
"413 347 OFFCURVE",
"398 384 CURVE",
"383 362 LINE",
"546 362 LINE",
"546 438 LINE",
"315 438 LINE",
"315 390 LINE",
"336 365 OFFCURVE",
"347 330 OFFCURVE",
"347 284 CURVE SMOOTH",
"347 215 OFFCURVE",
"313 180 OFFCURVE",
"242 180 CURVE SMOOTH",
"137 180 OFFCURVE",
"88 275 OFFCURVE",
"87 438 CURVE",
"13 438 LINE",
"13 221 OFFCURVE",
"87 100 OFFCURVE",
"242 100 CURVE SMOOTH"
);
}
);
width = 702;
}
);
rightMetricsKey = "=pa-deva";
unicode = 091C;
},
{
glyphname = "jha-deva";
lastChange = "2014-11-05 19:14:56 +0000";
layers = (
{
anchors = (
{
name = bottom;
position = "{681, 0}";
},
{
name = nukta;
position = "{-18, -107}";
},
{
name = top;
position = "{681, 680}";
}
);
background = {
paths = (
{
closed = 1;
nodes = (
"147 -107 LINE",
"147 37 LINE",
"173 61 LINE",
"126 166 LINE",
"72 166 OFFCURVE",
"52 145 OFFCURVE",
"52 104 CURVE SMOOTH",
"52 7 OFFCURVE",
"169 -8 OFFCURVE",
"279 -8 CURVE SMOOTH",
"421 -8 OFFCURVE",
"486 51 OFFCURVE",
"486 167 CURVE SMOOTH",
"486 246 OFFCURVE",
"459 308 OFFCURVE",
"357 308 CURVE SMOOTH",
"301 308 OFFCURVE",
"245 284 OFFCURVE",
"195 284 CURVE SMOOTH",
"147 284 OFFCURVE",
"126 301 OFFCURVE",
"126 355 CURVE SMOOTH",
"126 408 OFFCURVE",
"147 425 OFFCURVE",
"214 425 CURVE SMOOTH",
"446 425 LINE",
"446 616 LINE",
"374 616 LINE",
"374 484 LINE",
"394 501 LINE",
"206 501 LINE SMOOTH",
"94 501 OFFCURVE",
"52 452 OFFCURVE",
"52 360 CURVE SMOOTH",
"52 260 OFFCURVE",
"101 204 OFFCURVE",
"191 204 CURVE SMOOTH",
"243 204 OFFCURVE",
"303 228 OFFCURVE",
"347 228 CURVE SMOOTH",
"394 228 OFFCURVE",
"412 209 OFFCURVE",
"412 161 CURVE SMOOTH",
"412 102 OFFCURVE",
"380 72 OFFCURVE",
"273 72 CURVE SMOOTH",
"223 72 OFFCURVE",
"179 76 OFFCURVE",
"147 85 CURVE",
"77 80 LINE",
"77 -107 LINE"
);
},
{
closed = 0;
nodes = (
"0 606 LINE"
);
},
{
closed = 1;
nodes = (
"822 606 LINE",
"822 680 LINE",
"0 680 LINE",
"0 606 LINE"
);
},
{
closed = 1;
nodes = (
"716 0 LINE",
"716 613 LINE",
"646 613 LINE",
"646 0 LINE"
);
},
{
closed = 1;
nodes = (
"583 205 OFFCURVE",
"619 212 OFFCURVE",
"657 225 CURVE",
"657 301 LINE",
"610 285 OFFCURVE",
"570 281 OFFCURVE",
"531 281 CURVE SMOOTH",
"483 281 OFFCURVE",
"456 285 OFFCURVE",
"415 299 CURVE",
"415 225 LINE",
"457 212 OFFCURVE",
"488 205 OFFCURVE",
"536 205 CURVE SMOOTH"
);
}
);
};
layerId = "0225C979-6A3F-4323-834E-E3153ADD1AE8";
name = Regular;
paths = (
{
closed = 1;
nodes = (
"147 -107 LINE",
"147 37 LINE",
"173 61 LINE",
"126 166 LINE",
"72 166 OFFCURVE",
"52 145 OFFCURVE",
"52 104 CURVE SMOOTH",
"52 7 OFFCURVE",
"169 -8 OFFCURVE",
"279 -8 CURVE SMOOTH",
"421 -8 OFFCURVE",
"486 51 OFFCURVE",
"486 167 CURVE SMOOTH",
"486 246 OFFCURVE",
"459 308 OFFCURVE",
"357 308 CURVE SMOOTH",
"301 308 OFFCURVE",
"245 284 OFFCURVE",
"195 284 CURVE SMOOTH",
"147 284 OFFCURVE",
"126 301 OFFCURVE",
"126 355 CURVE SMOOTH",
"126 408 OFFCURVE",
"147 425 OFFCURVE",
"214 425 CURVE SMOOTH",
"446 425 LINE",
"446 616 LINE",
"374 616 LINE",
"374 484 LINE",
"394 501 LINE",
"206 501 LINE SMOOTH",
"94 501 OFFCURVE",
"52 452 OFFCURVE",
"52 360 CURVE SMOOTH",
"52 260 OFFCURVE",
"101 204 OFFCURVE",
"191 204 CURVE SMOOTH",
"243 204 OFFCURVE",
"303 228 OFFCURVE",
"347 228 CURVE SMOOTH",
"394 228 OFFCURVE",
"412 209 OFFCURVE",
"412 161 CURVE SMOOTH",
"412 102 OFFCURVE",
"380 72 OFFCURVE",
"273 72 CURVE SMOOTH",
"223 72 OFFCURVE",
"179 76 OFFCURVE",
"147 85 CURVE",
"77 80 LINE",
"77 -107 LINE"
);
},
{
closed = 0;
nodes = (
"0 606 LINE"
);
},
{
closed = 1;
nodes = (
"822 606 LINE",
"822 680 LINE",
"0 680 LINE",
"0 606 LINE"
);
},
{
closed = 1;
nodes = (
"716 0 LINE",
"716 613 LINE",
"646 613 LINE",
"646 0 LINE"
);
},
{
closed = 1;
nodes = (
"357 308 LINE",
"381 236 LINE",
"656 236 LINE",
"656 308 LINE"
);
}
);
width = 812;
}
);
rightMetricsKey = "=pa-deva";
unicode = 091D;
},
{
glyphname = "nya-deva";
lastChange = "2014-11-18 04:43:28 +0000";
layers = (
{
anchors = (
{
name = bottom;
position = "{610, 0}";
},
{
name = nukta;
position = "{146, 0}";
},
{
name = top;
position = "{610, 680}";
}
);
background = {
guideLines = (
{
angle = 90;
position = "{113, 616}";
},
{
angle = 90;
position = "{43, 616}";
}
);
paths = (
{
closed = 1;
nodes = (
"385 100 OFFCURVE",
"460 175 OFFCURVE",
"460 312 CURVE SMOOTH",
"460 441 OFFCURVE",
"393 509 OFFCURVE",
"253 509 CURVE SMOOTH",
"215 509 OFFCURVE",
"171 504 OFFCURVE",
"136 496 CURVE",
"136 416 LINE",
"179 425 OFFCURVE",
"213 429 OFFCURVE",
"249 429 CURVE SMOOTH",
"353 429 OFFCURVE",
"390 396 OFFCURVE",
"390 309 CURVE SMOOTH",
"390 218 OFFCURVE",
"349 180 OFFCURVE",
"241 180 CURVE SMOOTH",
"145 180 OFFCURVE",
"98 210 OFFCURVE",
"67 305 CURVE",
"-3 286 LINE",
"27 163 OFFCURVE",
"108 100 OFFCURVE",
"240 100 CURVE SMOOTH"
);
},
{
closed = 1;
nodes = (
"580 276 LINE",
"580 352 LINE",
"423 352 LINE",
"423 276 LINE"
);
},
{
closed = 1;
nodes = (
"630 0 LINE",
"630 616 LINE",
"560 616 LINE",
"560 0 LINE"
);
},
{
closed = 1;
nodes = (
"736 606 LINE",
"736 680 LINE",
"-10 680 LINE",
"-10 606 LINE"
);
}
);
};
guideLines = (
{
position = "{131, 133}";
},
{
position = "{423, 358}";
},
{
position = "{423, 320}";
},
{
angle = 90;
position = "{136, 566}";
}
);
layerId = "0225C979-6A3F-4323-834E-E3153ADD1AE8";
name = Regular;
paths = (
{
closed = 1;
nodes = (
"385 100 OFFCURVE",
"460 175 OFFCURVE",
"460 315 CURVE SMOOTH",
"460 444 OFFCURVE",
"387 509 OFFCURVE",
"256 509 CURVE SMOOTH",
"213 509 OFFCURVE",
"180 504 OFFCURVE",
"146 496 CURVE",
"146 416 LINE",
"189 425 OFFCURVE",
"220 429 OFFCURVE",
"256 429 CURVE SMOOTH",
"352 429 OFFCURVE",
"390 393 OFFCURVE",
"390 313 CURVE SMOOTH",
"390 218 OFFCURVE",
"349 180 OFFCURVE",
"251 180 CURVE SMOOTH",
"148 180 OFFCURVE",
"99 213 OFFCURVE",
"75 304 CURVE",
"5 304 LINE",
"23 171 OFFCURVE",
"105 100 OFFCURVE",
"250 100 CURVE SMOOTH"
);
},
{
closed = 1;
nodes = (
"595 276 LINE",
"595 352 LINE",
"423 352 LINE",
"423 276 LINE"
);
},
{
closed = 1;
nodes = (
"645 0 LINE",
"645 616 LINE",
"575 616 LINE",
"575 0 LINE"
);
},
{
closed = 1;
nodes = (
"751 606 LINE",
"751 680 LINE",
"0 680 LINE",
"0 606 LINE"
);
}
);
width = 741;
}
);
rightMetricsKey = "pa-deva";
unicode = 091E;
},
{
glyphname = "tta-deva";
lastChange = "2014-11-19 18:25:23 +0000";
layers = (
{
anchors = (
{
name = bottom;
position = "{316, 0}";
},
{
name = nukta;
position = "{320, -120}";
},
{
name = top;
position = "{416, 680}";
}
);
background = {
paths = (
{
closed = 1;
nodes = (
"383 25 OFFCURVE",
"443 38 OFFCURVE",
"491 60 CURVE",
"491 140 LINE",
"442 117 OFFCURVE",
"382 105 OFFCURVE",
"318 105 CURVE SMOOTH",
"189 105 OFFCURVE",
"130 146 OFFCURVE",
"129 252 CURVE SMOOTH",
"128 368 OFFCURVE",
"196 398 OFFCURVE",
"366 398 CURVE SMOOTH",
"451 398 LINE",
"451 616 LINE",
"381 616 LINE",
"381 474 LINE",
"356 474 LINE SMOOTH",
"158 474 OFFCURVE",
"55 417 OFFCURVE",
"55 252 CURVE SMOOTH",
"55 79 OFFCURVE",
"157 25 OFFCURVE",
"316 25 CURVE SMOOTH"
);
},
{
closed = 1;
nodes = (
"560 606 LINE",
"560 680 LINE",
"5 680 LINE",
"5 606 LINE"
);
}
);
};
guideLines = (
{
position = "{200, 474}";
}
);
layerId = "0225C979-6A3F-4323-834E-E3153ADD1AE8";
name = Regular;
paths = (
{
closed = 1;
nodes = (
"383 25 OFFCURVE",
"443 38 OFFCURVE",
"491 60 CURVE",
"491 140 LINE",
"442 117 OFFCURVE",
"382 105 OFFCURVE",
"318 105 CURVE SMOOTH",
"189 105 OFFCURVE",
"130 146 OFFCURVE",
"129 252 CURVE SMOOTH",
"128 368 OFFCURVE",
"196 398 OFFCURVE",
"366 398 CURVE SMOOTH",
"451 398 LINE",
"451 616 LINE",
"381 616 LINE",
"381 474 LINE",
"356 474 LINE SMOOTH",
"158 474 OFFCURVE",
"55 417 OFFCURVE",
"55 252 CURVE SMOOTH",
"55 79 OFFCURVE",
"157 25 OFFCURVE",
"316 25 CURVE SMOOTH"
);
},
{
closed = 1;
nodes = (
"555 606 LINE",
"555 680 LINE",
"5 680 LINE",
"5 606 LINE"
);
}
);
width = 545;
}
);
unicode = 091F;
},
{
glyphname = "ttha-deva";
lastChange = "2014-11-18 22:17:58 +0000";
layers = (
{
anchors = (
{
name = bottom;
position = "{308, 0}";
},
{
name = nukta;
position = "{308, -120}";
},
{
name = top;
position = "{400, 680}";
}
);
background = {
anchors = (
{
name = top;
position = "{400, 680}";
}
);
paths = (
{
closed = 1;
nodes = (
"381 25 OFFCURVE",
"441 38 OFFCURVE",
"489 60 CURVE",
"489 140 LINE",
"440 117 OFFCURVE",
"380 105 OFFCURVE",
"316 105 CURVE SMOOTH",
"187 105 OFFCURVE",
"128 146 OFFCURVE",
"127 252 CURVE SMOOTH",
"126 368 OFFCURVE",
"194 398 OFFCURVE",
"364 398 CURVE SMOOTH",
"449 398 LINE",
"449 616 LINE",
"379 616 LINE",
"379 474 LINE",
"354 474 LINE SMOOTH",
"156 474 OFFCURVE",
"53 417 OFFCURVE",
"53 252 CURVE SMOOTH",
"53 79 OFFCURVE",
"155 25 OFFCURVE",
"314 25 CURVE SMOOTH"
);
},
{
closed = 1;
nodes = (
"553 606 LINE",
"553 680 LINE",
"3 680 LINE",
"3 606 LINE"
);
}
);
};
guideLines = (
{
angle = 180;
position = "{494, 126}";
},
{
angle = 90;
position = "{400, 616}";
}
);
layerId = "0225C979-6A3F-4323-834E-E3153ADD1AE8";
name = Regular;
paths = (
{
closed = 1;
nodes = (
"151 492 OFFCURVE",
"53 413 OFFCURVE",
"53 246 CURVE SMOOTH",
"53 79 OFFCURVE",
"152 0 OFFCURVE",
"308 0 CURVE SMOOTH",
"466 0 OFFCURVE",
"564 79 OFFCURVE",
"564 246 CURVE SMOOTH",
"564 413 OFFCURVE",
"466 492 OFFCURVE",
"308 492 CURVE SMOOTH"
);
},
{
closed = 1;
nodes = (
"428 412 OFFCURVE",
"490 360 OFFCURVE",
"490 246 CURVE SMOOTH",
"490 132 OFFCURVE",
"428 80 OFFCURVE",
"308 80 CURVE SMOOTH",
"188 80 OFFCURVE",
"127 132 OFFCURVE",
"127 246 CURVE SMOOTH",
"127 360 OFFCURVE",
"188 412 OFFCURVE",
"308 412 CURVE SMOOTH"
);
},
{
closed = 1;
nodes = (
"365 616 LINE",
"365 449 LINE",
"435 449 LINE",
"435 616 LINE"
);
},
{
closed = 1;
nodes = (
"0 680 LINE",
"0 606 LINE",
"627 606 LINE",
"627 680 LINE"
);
}
);
width = 617;
}
);
unicode = 0920;
},
{
glyphname = "dda-deva";
lastChange = "2014-11-18 22:17:58 +0000";
layers = (
{
anchors = (
{
name = bottom;
position = "{274, 0}";
},
{
name = nukta;
position = "{274, -120}";
},
{
name = top;
position = "{415, 680}";
}
);
background = {
paths = (
{
closed = 1;
nodes = (
"-5 680 LINE",
"-5 606 LINE",
"611 606 LINE",
"611 680 LINE"
);
},
{
closed = 1;
nodes = (
"453 104 OFFCURVE",
"559 184 OFFCURVE",
"559 365 CURVE SMOOTH",
"559 508 OFFCURVE",
"492 542 OFFCURVE",
"421 542 CURVE SMOOTH",
"345 542 OFFCURVE",
"309 502 OFFCURVE",
"309 429 CURVE SMOOTH",
"309 348 OFFCURVE",
"354 309 OFFCURVE",
"444 309 CURVE",
"444 376 LINE",
"398 376 OFFCURVE",
"369 388 OFFCURVE",
"369 427 CURVE SMOOTH",
"369 456 OFFCURVE",
"385 472 OFFCURVE",
"421 472 CURVE SMOOTH",
"465 472 OFFCURVE",
"489 450 OFFCURVE",
"489 371 CURVE SMOOTH",
"489 231 OFFCURVE",
"426 178 OFFCURVE",
"258 178 CURVE SMOOTH",
"150 178 OFFCURVE",
"129 205 OFFCURVE",
"129 247 CURVE SMOOTH",
"129 280 OFFCURVE",
"142 293 OFFCURVE",
"172 293 CURVE SMOOTH",
"253 293 LINE",
"253 363 LINE",
"180 363 LINE SMOOTH",
"123 363 OFFCURVE",
"107 374 OFFCURVE",
"107 418 CURVE SMOOTH",
"107 456 OFFCURVE",
"119 468 OFFCURVE",
"192 468 CURVE SMOOTH",
"222 468 OFFCURVE",
"242 466 OFFCURVE",
"265 461 CURVE",
"265 533 LINE",
"241 540 OFFCURVE",
"211 542 OFFCURVE",
"181 542 CURVE SMOOTH",
"85 542 OFFCURVE",
"37 515 OFFCURVE",
"37 427 CURVE SMOOTH",
"37 345 OFFCURVE",
"79 315 OFFCURVE",
"151 307 CURVE",
"138 334 LINE",
"87 329 OFFCURVE",
"59 298 OFFCURVE",
"59 240 CURVE SMOOTH",
"59 152 OFFCURVE",
"120 104 OFFCURVE",
"264 104 CURVE SMOOTH"
);
},
{
closed = 1;
nodes = (
"450 511 LINE",
"450 626 LINE",
"384 626 LINE",
"384 511 LINE"
);
},
{
closed = 1;
nodes = (
"384 166 LINE",
"384 -351 LINE",
"450 -351 LINE",
"450 166 LINE"
);
},
{
closed = 1;
nodes = (
"177 -84 LINE",
"394 -84 LINE",
"394 -8 LINE",
"175 -8 LINE SMOOTH",
"89 -8 OFFCURVE",
"59 -32 OFFCURVE",
"59 -98 CURVE SMOOTH",
"59 -159 OFFCURVE",
"89 -191 OFFCURVE",
"155 -191 CURVE",
"207 -72 LINE"
);
}
);
};
guideLines = (
{
position = "{245, -351}";
},
{
angle = 90;
position = "{450, 626}";
},
{
angle = 90;
position = "{384, 626}";
},
{
position = "{201, 501}";
}
);
layerId = "0225C979-6A3F-4323-834E-E3153ADD1AE8";
name = Regular;
paths = (
{
closed = 1;
nodes = (
"426 -8 OFFCURVE",
"491 51 OFFCURVE",
"491 167 CURVE SMOOTH",
"491 246 OFFCURVE",
"464 308 OFFCURVE",
"362 308 CURVE SMOOTH",
"303 308 OFFCURVE",
"243 284 OFFCURVE",
"190 284 CURVE SMOOTH",
"142 284 OFFCURVE",
"121 301 OFFCURVE",
"121 355 CURVE SMOOTH",
"121 408 OFFCURVE",
"142 425 OFFCURVE",
"209 425 CURVE SMOOTH",
"451 425 LINE",
"451 616 LINE",
"379 616 LINE",
"379 484 LINE",
"399 501 LINE",
"201 501 LINE SMOOTH",
"89 501 OFFCURVE",
"47 452 OFFCURVE",
"47 360 CURVE SMOOTH",
"47 260 OFFCURVE",
"96 204 OFFCURVE",
"186 204 CURVE SMOOTH",
"241 204 OFFCURVE",
"305 228 OFFCURVE",
"352 228 CURVE SMOOTH",
"399 228 OFFCURVE",
"417 209 OFFCURVE",
"417 161 CURVE SMOOTH",
"417 102 OFFCURVE",
"385 72 OFFCURVE",
"268 72 CURVE SMOOTH",
"187 72 OFFCURVE",
"108 87 OFFCURVE",
"39 121 CURVE",
"39 41 LINE",
"90 11 OFFCURVE",
"184 -8 OFFCURVE",
"274 -8 CURVE SMOOTH"
);
},
{
closed = 0;
nodes = (
"0 606 LINE SMOOTH"
);
},
{
closed = 1;
nodes = (
"548 606 LINE SMOOTH",
"548 680 LINE SMOOTH",
"0 680 LINE SMOOTH",
"0 606 LINE SMOOTH"
);
}
);
width = 538;
}
);
unicode = 0921;
},
{
glyphname = "ddha-deva";
lastChange = "2014-11-20 00:05:54 +0000";
layers = (
{
anchors = (
{
name = bottom;
position = "{311, 0}";
},
{
name = nukta;
position = "{311, -120}";
},
{
name = top;
position = "{460, 680}";
}
);
background = {
paths = (
{
closed = 1;
nodes = (
"596 607 LINE",
"596 681 LINE",
"-10 680 LINE",
"-10 606 LINE"
);
},
{
closed = 1;
nodes = (
"545 271 OFFCURVE",
"495 316 OFFCURVE",
"399 316 CURVE SMOOTH",
"290 316 OFFCURVE",
"244 258 OFFCURVE",
"244 159 CURVE SMOOTH",
"244 134 OFFCURVE",
"247 98 OFFCURVE",
"263 66 CURVE",
"331 66 LINE",
"320 98 OFFCURVE",
"316 129 OFFCURVE",
"316 151 CURVE SMOOTH",
"316 212 OFFCURVE",
"346 236 OFFCURVE",
"397 236 CURVE SMOOTH",
"451 236 OFFCURVE",
"471 210 OFFCURVE",
"471 164 CURVE SMOOTH",
"471 103 OFFCURVE",
"436 76 OFFCURVE",
"317 76 CURVE SMOOTH",
"164 76 OFFCURVE",
"114 120 OFFCURVE",
"114 250 CURVE SMOOTH",
"114 378 OFFCURVE",
"163 420 OFFCURVE",
"314 420 CURVE SMOOTH",
"495 420 LINE",
"495 616 LINE",
"425 616 LINE",
"425 496 LINE",
"303 496 LINE SMOOTH",
"121 496 OFFCURVE",
"40 420 OFFCURVE",
"40 253 CURVE SMOOTH",
"40 81 OFFCURVE",
"125 0 OFFCURVE",
"311 0 CURVE SMOOTH",
"474 0 OFFCURVE",
"545 63 OFFCURVE",
"545 176 CURVE SMOOTH"
);
}
);
};
layerId = "0225C979-6A3F-4323-834E-E3153ADD1AE8";
name = Regular;
paths = (
{
closed = 1;
nodes = (
"596 606 LINE",
"596 680 LINE",
"-10 680 LINE",
"-10 606 LINE"
);
},
{
closed = 1;
nodes = (
"545 273 OFFCURVE",
"495 318 OFFCURVE",
"399 318 CURVE SMOOTH",
"289 318 OFFCURVE",
"243 260 OFFCURVE",
"243 160 CURVE SMOOTH",
"243 134 OFFCURVE",
"246 98 OFFCURVE",
"262 66 CURVE",
"330 66 LINE",
"319 98 OFFCURVE",
"315 129 OFFCURVE",
"315 152 CURVE SMOOTH",
"315 214 OFFCURVE",
"345 238 OFFCURVE",
"397 238 CURVE SMOOTH",
"451 238 OFFCURVE",
"471 212 OFFCURVE",
"471 165 CURVE SMOOTH",
"471 103 OFFCURVE",
"436 76 OFFCURVE",
"317 76 CURVE SMOOTH",
"164 76 OFFCURVE",
"114 120 OFFCURVE",
"114 253 CURVE SMOOTH",
"114 383 OFFCURVE",
"163 425 OFFCURVE",
"314 425 CURVE SMOOTH",
"495 425 LINE",
"495 616 LINE",
"425 616 LINE",
"425 501 LINE",
"303 501 LINE SMOOTH",
"121 501 OFFCURVE",
"40 425 OFFCURVE",
"40 256 CURVE SMOOTH",
"40 81 OFFCURVE",
"125 0 OFFCURVE",
"311 0 CURVE SMOOTH",
"474 0 OFFCURVE",
"545 63 OFFCURVE",
"545 177 CURVE SMOOTH"
);
}
);
width = 586;
}
);
unicode = 0922;
},
{
glyphname = "nna-deva";
lastChange = "2014-11-11 02:55:01 +0000";
layers = (
{
anchors = (
{
name = bottom;
position = "{671, 0}";
},
{
name = nukta;
position = "{276, 0}";
},
{
name = top;
position = "{671, 680}";
}
);
background = {
paths = (
{
closed = 1;
nodes = (
"404 158 OFFCURVE",
"467 222 OFFCURVE",
"467 363 CURVE SMOOTH",
"467 616 LINE",
"397 616 LINE",
"397 360 LINE SMOOTH",
"397 270 OFFCURVE",
"365 238 OFFCURVE",
"275 238 CURVE SMOOTH",
"186 238 OFFCURVE",
"154 270 OFFCURVE",
"154 360 CURVE SMOOTH",
"154 616 LINE",
"84 616 LINE",
"84 363 LINE SMOOTH",
"84 222 OFFCURVE",
"147 158 OFFCURVE",
"275 158 CURVE SMOOTH"
);
},
{
closed = 1;
nodes = (
"706 0 LINE",
"706 616 LINE",
"636 616 LINE",
"636 0 LINE"
);
},
{
closed = 1;
nodes = (
"817 606 LINE",
"817 680 LINE",
"0 680 LINE",
"0 606 LINE"
);
}
);
};
layerId = "0225C979-6A3F-4323-834E-E3153ADD1AE8";
name = Regular;
paths = (
{
closed = 1;
nodes = (
"404 158 OFFCURVE",
"467 222 OFFCURVE",
"467 363 CURVE SMOOTH",
"467 616 LINE",
"397 616 LINE",
"397 360 LINE SMOOTH",
"397 270 OFFCURVE",
"365 238 OFFCURVE",
"275 238 CURVE SMOOTH",
"186 238 OFFCURVE",
"154 270 OFFCURVE",
"154 360 CURVE SMOOTH",
"154 616 LINE",
"84 616 LINE",
"84 363 LINE SMOOTH",
"84 222 OFFCURVE",
"147 158 OFFCURVE",
"275 158 CURVE SMOOTH"
);
},
{
closed = 1;
nodes = (
"706 0 LINE",
"706 616 LINE",
"636 616 LINE",
"636 0 LINE"
);
},
{
closed = 1;
nodes = (
"812 606 LINE",
"812 680 LINE",
"0 680 LINE",
"0 606 LINE"
);
}
);
width = 802;
}
);
rightMetricsKey = "pa-deva";
unicode = 0923;
},
{
glyphname = "ta-deva";
lastChange = "2014-11-11 02:55:01 +0000";
layers = (
{
anchors = (
{
name = bottom;
position = "{447, 0}";
},
{
name = nukta;
position = "{27, 0}";
},
{
name = top;
position = "{447, 680}";
}
);
background = {
paths = (
{
closed = 1;
nodes = (
"52 182 OFFCURVE",
"88 90 OFFCURVE",
"129 0 CURVE",
"207 0 LINE",
"155 107 OFFCURVE",
"126 192 OFFCURVE",
"126 266 CURVE SMOOTH",
"126 343 OFFCURVE",
"160 373 OFFCURVE",
"245 373 CURVE SMOOTH",
"429 373 LINE",
"429 449 LINE",
"237 449 LINE SMOOTH",
"104 449 OFFCURVE",
"52 398 OFFCURVE",
"52 285 CURVE SMOOTH"
);
}
);
};
layerId = "0225C979-6A3F-4323-834E-E3153ADD1AE8";
name = Regular;
paths = (
{
closed = 1;
nodes = (
"412 616 LINE",
"412 0 LINE",
"482 0 LINE",
"482 616 LINE"
);
},
{
closed = 1;
nodes = (
"0 680 LINE",
"0 606 LINE",
"588 606 LINE",
"588 680 LINE"
);
},
{
closed = 1;
nodes = (
"52 182 OFFCURVE",
"88 90 OFFCURVE",
"129 0 CURVE",
"207 0 LINE",
"155 107 OFFCURVE",
"126 192 OFFCURVE",
"126 266 CURVE SMOOTH",
"126 343 OFFCURVE",
"160 373 OFFCURVE",
"245 373 CURVE SMOOTH",
"429 373 LINE",
"429 449 LINE",
"237 449 LINE SMOOTH",
"104 449 OFFCURVE",
"52 398 OFFCURVE",
"52 285 CURVE SMOOTH"
);
}
);
width = 578;
}
);
rightMetricsKey = "pa-deva";
unicode = 0924;
},
{
glyphname = "tha-deva";
lastChange = "2014-11-18 05:08:54 +0000";
layers = (
{
anchors = (
{
name = bottom;
position = "{521, 0}";
},
{
name = nukta;
position = "{145, 0}";
},
{
name = top;
position = "{521, 680}";
}
);
background = {
paths = (
{
closed = 1;
nodes = (
"486 616 LINE",
"486 0 LINE",
"556 0 LINE",
"556 616 LINE"
);
},
{
closed = 1;
nodes = (
"406 680 LINE",
"406 606 LINE",
"667 606 LINE",
"667 680 LINE"
);
},
{
closed = 1;
nodes = (
"341 643 OFFCURVE",
"299 688 OFFCURVE",
"198 688 CURVE SMOOTH",
"113 688 OFFCURVE",
"75 646 OFFCURVE",
"75 571 CURVE SMOOTH",
"75 491 OFFCURVE",
"113 454 OFFCURVE",
"195 454 CURVE",
"195 524 LINE",
"154 524 OFFCURVE",
"139 536 OFFCURVE",
"139 568 CURVE SMOOTH",
"139 601 OFFCURVE",
"155 614 OFFCURVE",
"196 614 CURVE SMOOTH",
"245 614 OFFCURVE",
"268 596 OFFCURVE",
"268 526 CURVE SMOOTH",
"268 488 OFFCURVE",
"260 460 OFFCURVE",
"239 441 CURVE SMOOTH",
"216 419 OFFCURVE",
"177 409 OFFCURVE",
"85 409 CURVE SMOOTH",
"75 409 LINE",
"75 394 LINE SMOOTH",
"75 234 OFFCURVE",
"171 161 OFFCURVE",
"339 161 CURVE SMOOTH",
"398 161 OFFCURVE",
"447 167 OFFCURVE",
"496 181 CURVE",
"496 262 LINE",
"438 246 OFFCURVE",
"401 241 OFFCURVE",
"339 241 CURVE SMOOTH",
"219 241 OFFCURVE",
"167 272 OFFCURVE",
"145 345 CURVE",
"282 351 OFFCURVE",
"343 406 OFFCURVE",
"342 531 CURVE SMOOTH"
);
}
);
};
layerId = "0225C979-6A3F-4323-834E-E3153ADD1AE8";
name = Regular;
paths = (
{
closed = 1;
nodes = (
"486 616 LINE",
"486 0 LINE",
"556 0 LINE",
"556 616 LINE"
);
},
{
closed = 1;
nodes = (
"406 680 LINE",
"406 606 LINE",
"662 606 LINE",
"662 680 LINE"
);
},
{
closed = 1;
nodes = (
"341 643 OFFCURVE",
"299 688 OFFCURVE",
"198 688 CURVE SMOOTH",
"113 688 OFFCURVE",
"75 646 OFFCURVE",
"75 571 CURVE SMOOTH",
"75 491 OFFCURVE",
"113 454 OFFCURVE",
"195 454 CURVE",
"195 524 LINE",
"154 524 OFFCURVE",
"139 536 OFFCURVE",
"139 568 CURVE SMOOTH",
"139 601 OFFCURVE",
"155 614 OFFCURVE",
"196 614 CURVE SMOOTH",
"245 614 OFFCURVE",
"268 596 OFFCURVE",
"268 526 CURVE SMOOTH",
"268 488 OFFCURVE",
"260 460 OFFCURVE",
"239 441 CURVE SMOOTH",
"216 419 OFFCURVE",
"177 409 OFFCURVE",
"85 409 CURVE SMOOTH",
"75 409 LINE",
"75 394 LINE SMOOTH",
"75 234 OFFCURVE",
"171 161 OFFCURVE",
"339 161 CURVE SMOOTH",
"398 161 OFFCURVE",
"447 167 OFFCURVE",
"496 181 CURVE",
"496 262 LINE",
"438 246 OFFCURVE",
"401 241 OFFCURVE",
"339 241 CURVE SMOOTH",
"219 241 OFFCURVE",
"167 272 OFFCURVE",
"145 345 CURVE",
"282 351 OFFCURVE",
"343 406 OFFCURVE",
"342 531 CURVE SMOOTH"
);
}
);
width = 652;
}
);
unicode = 0925;
},
